<?xml version="1.0" encoding="UTF-8" standalone="no"?>
<!-- Created with Inkscape (http://www.inkscape.org/) -->

<svg
   version="1.1"
   id="svg1"
   width="88.372955"
   height="147.10617"
   viewBox="0 0 88.372955 147.10617"
   xmlns="http://www.w3.org/2000/svg"
   xmlns:svg="http://www.w3.org/2000/svg">
  <defs
     id="defs1" />
  <g
     id="g1"
     transform="translate(-9.0164156,-11.117382)">
    <path
       style="fill:#000000"
       d="m 67.272449,155.37923 c -2.56173,-1.56164 -6.9777,-2.95185 -9.81326,-3.08937 -3.3269,-0.16134 -5.61754,-1.07553 -6.45801,-2.57736 -0.85724,-1.53182 -2.57318,-2.19405 -5.02005,-1.93738 -2.04469,0.21447 -4.70547,-0.4299 -5.91286,-1.43194 -1.59204,-1.32128 -4.36857,-1.59474 -10.10464,-0.9952 -4.97159,0.51963 -8.23084,0.30659 -8.77481,-0.57357 -1.09401,-1.77014 -4.59202,-18.35646 -4.59202,-21.77372 0,-1.4092 -0.935547,-3.59595 -2.078999,-4.85945 -1.143452,-1.2635 -2.360273,-5.16954 -2.704048,-8.68008 -0.343775,-3.51055 -1.281691,-7.17402 -2.0842577,-8.14105 -1.10171,-1.32748 -0.950266,-1.75824 0.6181507,-1.75824 1.795288,0 2.017683,-2.30834 1.637846,-16.999999 -0.241734,-9.35 -0.630551,-17.6 -0.864038,-18.333334 -0.233487,-0.733333 0.218438,-2.533333 1.004278,-4 0.785841,-1.466666 1.807892,-4.664568 2.271226,-7.106447 2.082802,-10.976866 13.226092,-30.893553 17.284802,-30.893553 0.70773,0 4.05314,-1.689595 7.43425,-3.754656 3.3811,-2.065061 9.11626,-4.721924 12.7448,-5.904141 6.27818,-2.045501 7.00735,-2.014887 15.07286,0.632832 6.52143,2.140832 9.65152,4.118322 13.57619,8.576976 4.48798,5.098622 5.1726,6.789231 5.69958,14.074688 0.38804,5.364524 -0.0223,9.470336 -1.16531,11.660499 -0.97033,1.859258 -1.76793,4.754372 -1.77245,6.433586 -0.005,1.679215 -1.20821,5.405312 -2.67488,8.280216 -1.46666,2.874905 -2.67429,6.001002 -2.6836,6.946883 -0.009,0.945881 -2.42603,6.438173 -5.37047,12.205094 -5.98792,11.727823 -5.92489,12.054436 3.20616,16.614706 8.23677,4.11363 20.09694,18.93521 21.32431,26.64883 1.90615,11.97964 -4.893,23.37027 -18.05928,30.25473 -3.50242,1.83136 -6.52908,3.32751 -6.72591,3.32477 -0.19683,-0.003 -2.45383,-1.28269 -5.01556,-2.84432 z m 5.99102,-15.18175 c 1.46667,-0.22737 3.09556,-0.46339 3.61976,-0.5245 1.6407,-0.19128 4.13041,-5.89109 4.6558,-10.65878 0.42963,-3.89865 -0.31764,-5.40689 -5.08624,-10.26573 -3.07442,-3.13261 -7.44973,-6.44065 -9.72292,-7.3512 -2.27319,-0.91054 -5.56398,-2.746 -7.31288,-4.0788 -1.74889,-1.3328 -4.07852,-2.42327 -5.17694,-2.42327 -2.37397,0 -6.97658,-4.98157 -6.97658,-7.55102 0,-0.99531 2.1,-4.797351 4.66667,-8.448976 2.56666,-3.651625 4.66666,-7.274121 4.66666,-8.049991 0,-0.77587 1.58122,-2.876098 3.51382,-4.667173 4.59277,-4.256435 9.62325,-18.809629 10.68661,-30.916416 l 0.84614,-9.633581 -5.36642,-5.366419 c -2.95153,-2.951531 -6.52472,-5.36642 -7.94041,-5.36642 -4.53436,0 -16.04189,6.409765 -19.0225,10.595653 -3.19242,4.483334 -2.54468,7.285797 1.39497,6.0354 1.42798,-0.453222 2.55446,-0.183148 2.55446,0.61243 0,0.782751 -1.2,1.423184 -2.66667,1.423184 -1.77777,0 -2.66666,0.888889 -2.66666,2.666666 0,1.466667 -0.65,2.666667 -1.44445,2.666667 -0.79444,0 -1.17238,0.75 -0.83987,1.666667 0.33252,0.916666 -0.14603,3.51893 -1.06343,5.782808 -1.18873,2.9334 -1.2693,4.828609 -0.28042,6.595649 0.99513,1.778184 0.95021,2.625305 -0.15878,2.99497 -1.83609,0.61203 -2.07094,3.880224 -0.32447,4.515462 0.67205,0.244444 1.63883,2.694444 2.14839,5.444444 0.80009,4.317949 0.58794,5.000593 -1.55525,5.004349 -2.1592,0.0038 -2.52373,1.248687 -2.80497,9.579227 -0.31891,9.44634 -0.25633,9.6422 4.66136,14.58939 4.84776,4.87686 4.97264,5.2473 4.54856,13.49362 l -0.43605,8.47909 7.6218,5.26049 c 4.19198,2.89327 9.19059,6.33281 11.10802,7.64342 2.4188,1.65332 4.71095,2.1201 7.48622,1.5245 2.2,-0.47213 5.2,-1.04445 6.66667,-1.27181 z m -3.33333,-49.968943 c 0,-0.733333 0.6,-1.333333 1.33333,-1.333333 0.73333,0 1.33333,0.6 1.33333,1.333333 0,0.733334 -0.6,1.333334 -1.33333,1.333334 -0.73333,0 -1.33333,-0.6 -1.33333,-1.333334 z"
       id="path1" />
  </g>
</svg>
