<?xml version="1.0" encoding="UTF-8" standalone="no"?>
<!-- Created with Inkscape (http://www.inkscape.org/) -->

<svg
   version="1.1"
   id="svg1"
   width="105.33333"
   height="140"
   viewBox="0 0 105.33333 140"
   xmlns="http://www.w3.org/2000/svg"
   xmlns:svg="http://www.w3.org/2000/svg">
  <defs
     id="defs1" />
  <g
     id="g1">
    <path
       style="fill:#000000"
       d="m 31.333332,131.64469 c -2.933333,-0.90458 -7.141965,-2.77452 -9.352516,-4.15542 -2.21055,-1.38091 -5.895748,-4.98091 -8.189329,-8 L 9.6213401,114 8.6949829,108 C 8.1854865,104.7 7.4844147,95.253209 7.1370458,87.007131 L 6.5054658,72.014263 8.586066,69.04379 c 1.1443301,-1.63376 2.0806,-4.575395 2.0806,-6.536967 0,-1.961571 1.8,-7.194415 4,-11.628541 2.2,-4.434127 4,-8.595867 4,-9.248312 0,-0.652445 2.4,-3.785932 5.333333,-6.963303 2.933333,-3.177372 5.333333,-6.477475 5.333333,-7.333563 0,-0.856088 3.193911,-3.756254 7.097579,-6.444814 C 40.334579,18.199731 44.129991,16 44.865159,16 c 0.735167,0 2.745845,-1.5 4.468172,-3.333333 l 3.131504,-3.3333337 3.434248,0.042135 3.434247,0.042135 3.461855,3.0510717 c 1.90402,1.67809 3.833917,4.533485 4.288659,6.345323 l 0.826804,3.294252 -6.063967,7.726122 c -3.335182,4.249367 -6.374484,7.415605 -6.754005,7.036084 -0.37952,-0.37952 -3.078836,0.555075 -5.998478,2.076877 l -5.308441,2.766915 -3.403395,5.142876 C 38.510496,49.685706 36.214872,52 35.280976,52 h -1.697992 l 0.697349,-2.666667 c 0.383542,-1.466666 1.26278,-2.666666 1.953863,-2.666666 H 37.49071 L 36.541344,45.13056 35.591978,43.594453 33.229069,48.13056 c -1.2996,2.494859 -3.725425,7.236107 -5.390721,10.536107 l -3.027812,6 -0.274922,14.24975 c -0.151207,7.837363 -0.665985,14.882503 -1.143951,15.655868 -0.477965,0.773364 0.112798,4.905318 1.312808,9.182125 l 2.181835,7.776 3.865175,4.13573 3.865176,4.13573 7.69167,0.84881 c 4.230419,0.46684 9.225342,1.13355 11.09983,1.48156 l 3.408158,0.63275 5.104714,-3.46415 5.104713,-3.46415 3.709125,0.38906 3.709125,0.38907 2.444669,-2.05743 c 1.344567,-1.13158 4.186619,-3.21992 6.31567,-4.64074 2.12905,-1.42082 6.02905,-3.90729 8.666666,-5.52549 2.637616,-1.61819 5.845665,-2.96819 7.128998,-3 1.283335,-0.0318 2.333335,0.55227 2.333335,1.29794 0,0.74567 -2.807342,4.04567 -6.238536,7.33333 C 91.663601,113.31009 88.084288,116 87.140766,116 c -0.943522,0 -3.556869,1.8 -5.807437,4 -2.250568,2.2 -4.956753,4 -6.013744,4 -1.056992,0 -3.886305,1.19776 -6.287362,2.66168 -2.401058,1.46393 -5.595559,2.66393 -7.098893,2.66667 -1.503333,0.003 -3.330611,0.60226 -4.060618,1.33227 -0.730007,0.73001 -5.800007,1.62012 -11.266667,1.97803 l -9.93938,0.65074 z"
       id="path1" />
  </g>
</svg>
