<?xml version="1.0" encoding="UTF-8" standalone="no"?>
<!-- Created with Inkscape (http://www.inkscape.org/) -->

<svg
   version="1.1"
   id="svg1"
   width="112"
   height="156"
   viewBox="0 0 112 156"
   xmlns="http://www.w3.org/2000/svg"
   xmlns:svg="http://www.w3.org/2000/svg">
  <defs
     id="defs1" />
  <g
     id="g1">
    <path
       style="fill:#000000"
       d="m 31.333333,145.82972 c -7.898498,-1.10764 -10,-1.91059 -10,-3.82088 0,-1.0672 -1.65,-2.79858 -3.666666,-3.84752 C 10.383433,134.37306 8,130.10138 8,120.83634 c 0,-10.27116 3.182407,-15.50301 9.430107,-15.50301 2.146774,0 3.903226,-0.6 3.903226,-1.33333 0,-0.73333 1.512864,-1.33333 3.361919,-1.33333 2.286793,0 3.844727,1.05965 4.871661,3.31352 1.328326,2.91536 1.084564,3.64797 -2.028585,6.09677 -5.54005,4.35781 -4.534247,10.98013 2.874042,18.92304 4.298907,4.60914 10.191321,4.81946 16.401568,0.58543 C 65.205407,119.04648 75.255352,108.50281 79.769531,97.010827 80.852101,94.254872 82.181678,92 82.724147,92 c 1.62551,0 4.960441,-9.618467 5.316399,-15.333333 1.03766,-16.65952 0.564544,-18.272589 -8.914038,-30.39209 C 72.341953,37.599712 68.733196,34.21691 63.797052,31.904944 c -3.550779,-1.663096 -6.844696,-2.635077 -7.319815,-2.159959 -0.475119,0.475119 -0.06239,6.426864 0.91717,13.226101 0.979563,6.799236 1.981081,14.462247 2.225597,17.028914 0.244516,2.566667 1.107343,11.266667 1.917392,19.333333 2.220694,22.114197 2.105939,25.387387 -1.038237,29.614087 -1.521683,2.04558 -3.939604,3.89566 -5.37316,4.11127 -5.024483,0.75571 -6.787363,-3.53518 -8.377894,-20.392023 -0.830326,-8.8 -2.485711,-22.9 -3.678633,-31.333334 C 41.87655,52.9 40.832067,41.650829 40.748399,36.335175 40.617607,28.025563 40.154817,26.249428 37.447973,23.668508 c -1.731567,-1.651013 -2.730319,-2.251841 -2.219449,-1.335175 1.471528,2.640399 -2.910832,1.984611 -4.455059,-0.666666 -0.902033,-1.548698 -1.372676,-1.72491 -1.399587,-0.524015 -0.02488,1.110433 -0.870379,1.490881 -2.188872,0.984928 -3.275851,-1.257062 -1.14551,5.787012 2.901228,9.593045 1.785904,1.679678 3.247099,3.674897 3.247099,4.433822 0,1.717012 -7.982271,1.15037 -10.589278,-0.751706 -1.433456,-1.045853 -1.670259,-0.98259 -0.930749,0.248653 0.672971,1.12046 0.329046,1.397048 -1.069731,0.860287 -1.133876,-0.435109 -1.666611,-1.430199 -1.183857,-2.211312 0.570951,-0.923819 -5e-5,-1.083368 -1.633684,-0.456484 -1.38128,0.530047 -2.131423,0.583727 -1.666984,0.119288 0.464439,-0.464439 -1.555545,-3.012672 -4.488854,-5.66274 C 7.2629512,24.228408 6.5551914,22.89071 7.2005968,19.663683 8.1886607,14.723363 10.022879,12.99133 19.29369,8.2443048 26.058364,4.7805216 27.49266,4.4931563 31.800646,5.7385019 c 2.676311,0.7736637 5.813265,2.1989996 6.971008,3.167413 1.157743,0.9684135 3.870729,1.7607521 6.028857,1.7607521 6.779457,0 21.374343,4.739749 28.320857,9.197315 7.08905,4.549031 12.627706,10.191309 23.93639,24.384211 0.948433,1.190326 2.797701,5.971435 4.109482,10.624685 4.71638,16.730264 0.0114,37.398669 -12.639636,55.524332 -3.223515,4.61847 -5.86857,8.81847 -5.877899,9.33334 -0.04244,2.34205 -17.270079,16.09598 -25.799765,20.5976 -9.358635,4.93911 -17.306983,6.65283 -25.516607,5.50157 z"
       id="path1" />
  </g>
</svg>
