<?xml version="1.0" encoding="UTF-8" standalone="no"?>
<!-- Created with Inkscape (http://www.inkscape.org/) -->

<svg
   version="1.1"
   id="svg1"
   width="121.33333"
   height="134.66667"
   viewBox="0 0 121.33333 134.66667"
   xmlns="http://www.w3.org/2000/svg"
   xmlns:svg="http://www.w3.org/2000/svg">
  <defs
     id="defs1" />
  <g
     id="g1">
    <path
       style="fill:#000000"
       d="m 40.937752,128.62477 c -1.826841,-2.51001 -3.60824,-3.29143 -7.503407,-3.29143 -7.142208,0 -8.37867,-2.13758 -8.268304,-14.29414 0.05179,-5.70489 -0.55501,-15.17253 -1.348453,-21.039197 -0.793442,-5.866666 -1.452332,-13.066667 -1.464199,-16 C 22.341522,71.066669 21.255372,66.266669 19.939722,63.333336 16.870882,56.49114 10.585179,35.440359 9.7379108,29.167531 9.2201337,25.334118 9.7141216,23.749123 12.127344,21.500864 c 1.673184,-1.558808 3.979016,-2.838624 5.124071,-2.844034 1.895659,-0.009 19.389266,-4.414931 39.191001,-9.8707196 4.276663,-1.1783094 8.887218,-2.7372199 10.245677,-3.4642455 1.35846,-0.7270256 3.973962,-1.3218647 5.812226,-1.3218647 1.838265,0 3.71312,-0.6000001 4.166344,-1.3333334 1.457962,-2.3590323 12.125393,-1.5324103 15.501254,1.2011961 2.96821,2.4035112 3.034994,2.7972958 1.291911,7.6177061 -1.010955,2.795747 -2.668409,5.913485 -3.683231,6.928307 -2.021317,2.021317 -6.453458,1.093325 -5.115754,-1.071125 0.472596,-0.764676 -0.605186,-1.34275 -2.503468,-1.34275 -1.833333,0 -3.704153,0.6 -4.157378,1.333333 -0.453225,0.733333 -2.907466,1.333333 -5.453869,1.333333 -3.166414,0 -4.910776,0.73215 -5.518679,2.31632 -1.364936,3.556967 -8.64773,9.683681 -11.510943,9.683681 -1.405724,0 -3.235343,0.929247 -4.065821,2.064993 -0.909544,1.243876 -4.555462,2.379316 -9.168974,2.855472 -6.34477,0.654839 -7.780843,1.275884 -8.368994,3.619262 -0.679649,2.707939 2.544744,17.695514 4.152961,19.303731 0.425226,0.425226 2.467421,-0.199246 4.53821,-1.387716 3.535603,-2.029157 3.920626,-2.005299 6.317391,0.391466 2.215494,2.215494 5.182433,2.642299 22.482185,3.234141 27.360077,0.936018 28.596532,1.053279 28.596532,2.712002 0,2.402292 -4.574858,5.79703 -8.754156,6.495955 -8.325711,1.39235 -14.944784,2.195773 -24.319398,2.951887 -6.776434,0.546556 -9.55363,1.27185 -9.127006,2.383614 0.342798,0.893319 -1.32909,2.300358 -3.791296,3.190703 -4.776564,1.727228 -5.464813,3.27764 -7.386546,16.639581 -1.541731,10.719761 0.279029,14.714601 6.200296,13.603761 3.422385,-0.64204 4.705116,-0.23312 6.267965,1.99816 1.910416,2.7275 2.574586,2.77908 23.918672,1.85766 26.046123,-1.1244 32.013383,-0.40649 31.407583,3.77857 -0.29842,2.06162 -1.73602,3.16924 -5.08278,3.91612 -7.90746,1.76466 -29.511774,5.31211 -39.333333,6.45857 -17.453447,2.03733 -18.944832,2.297 -21.718373,3.78135 -3.847486,2.05911 -4.612065,1.86222 -7.343872,-1.89118 z M 53.666664,75.116962 c -0.916666,-0.369883 -2.416666,-0.369883 -3.333333,0 -0.916666,0.369883 -0.166666,0.672515 1.666667,0.672515 1.833333,0 2.583333,-0.302632 1.666666,-0.672515 z M 48.526627,29.106749 c -0.656505,-1.062248 -0.224622,-1.27616 1.353713,-0.670497 1.392843,0.534485 3.204865,0.0024 4.540664,-1.333448 2.074937,-2.074937 1.879883,-2.16721 -2.930939,-1.386521 -2.834594,0.459991 -5.439547,1.122087 -5.788785,1.471325 -0.919272,0.919272 0.88785,3.47906 2.456097,3.47906 0.733333,0 0.899496,-0.701963 0.36925,-1.559919 z"
       id="path1" />
  </g>
</svg>
