<?xml version="1.0" encoding="UTF-8" standalone="no"?>
<!-- Created with Inkscape (http://www.inkscape.org/) -->

<svg
   version="1.1"
   id="svg1"
   width="124"
   height="158.66667"
   viewBox="0 0 124 158.66667"
   xmlns="http://www.w3.org/2000/svg"
   xmlns:svg="http://www.w3.org/2000/svg">
  <defs
     id="defs1" />
  <g
     id="g1">
    <path
       style="fill:#000000"
       d="m 39.001957,151 c -2.571077,-2.28383 -5.644306,-15.15394 -5.688028,-23.82039 -0.01067,-2.11545 -0.894084,-6.35669 -1.963136,-9.42499 -1.069052,-3.06829 -2.252525,-9.81395 -2.62994,-14.99035 -0.377415,-5.176406 -1.247992,-10.465984 -1.934615,-11.754622 -0.686622,-1.288638 -2.553707,-9.542979 -4.149077,-18.342979 -1.59537,-8.8 -3.148646,-17.333394 -3.451724,-18.963098 -0.303079,-1.629703 -1.635088,-4.029703 -2.960022,-5.333333 -2.749374,-2.705166 -3.736235,-14.413193 -1.447343,-17.171139 0.773404,-0.931895 3.108933,-2.06834 5.190065,-2.525433 2.081131,-0.457093 6.687754,-2.895661 10.236939,-5.419039 3.549185,-2.523378 7.612384,-4.58796 9.02933,-4.58796 3.358481,0 10.313023,-2.273338 19.432261,-6.352123 C 62.7,10.510545 69.467048,8.7168935 73.704551,8.3286526 77.942054,7.9404116 81.727464,7.107639 82.116574,6.4780467 82.505683,5.8484545 87.455131,5.3333335 93.115348,5.3333335 c 13.258962,0 16.824192,2.0981799 15.854152,9.3303605 -1.05614,7.874079 -4.45453,12.002974 -9.879363,12.002974 -4.833004,0 -4.894266,-0.239192 -2.017339,-7.876471 1.454241,-3.860523 -23.064451,0.930273 -36.692808,7.169541 -4.052898,1.855478 -8.235844,3.373596 -9.295436,3.373596 -1.059592,0 -3.081016,0.617862 -4.492053,1.373026 -2.158877,1.155396 -2.308779,1.784136 -0.945732,3.966721 1.210665,1.938583 1.236601,2.976883 0.102687,4.110798 -1.920436,1.920436 -4.834626,0.229903 -3.882201,-2.252079 0.393646,-1.025823 -0.06545,-1.865132 -1.020213,-1.865132 -3.090016,0 -3.569783,1.715825 -1.404,5.021228 1.981825,3.024648 1.938953,3.401895 -0.66199,5.825042 C 37.251473,46.937957 36,48.332049 36,48.610919 c 0,0.582518 3.40957,14.771395 5.489801,22.845726 l 1.405822,5.456643 6.218855,-0.28605 c 3.420371,-0.157327 7.718855,-0.87644 9.552189,-1.598029 1.833333,-0.721588 9.174491,-1.709844 16.313684,-2.196124 7.139194,-0.486279 14.339194,-1.380086 16,-1.986237 3.262714,-1.190805 11.686319,0.511278 11.686319,2.361351 0,1.811933 -2.936873,3.662037 -8.66667,5.459635 -2.933333,0.920269 -6.833333,2.27577 -8.666667,3.012224 -1.833333,0.736454 -5.433333,1.589806 -8,1.896338 -2.566666,0.306532 -5.995556,1.427243 -7.619755,2.490469 -1.624199,1.063226 -5.040741,1.933138 -7.592315,1.933138 -5.263201,0 -13.310088,5.828426 -10.565601,7.652751 1.164191,0.773865 1.190454,2.630046 0.104368,7.376256 -1.300806,5.68453 -1.185603,6.53635 1.111004,8.21488 2.111473,1.54322 2.521223,3.358 2.328841,10.31442 -0.128402,4.64293 -0.288696,11.44169 -0.356208,15.10836 -0.169784,9.22117 -2.24477,14.8878 -5.800667,15.84119 -4.850801,1.30058 -7.176525,0.94781 -9.941043,-1.50786 z M 73.333333,89.333336 c 0,-0.733333 0.6,-1.333333 1.333334,-1.333333 0.733333,0 1.333333,0.6 1.333333,1.333333 0,0.733334 -0.6,1.333334 -1.333333,1.333334 -0.733334,0 -1.333334,-0.6 -1.333334,-1.333334 z M 58.666667,30.666668 c 0,-0.733334 0.9,-1.333334 2,-1.333334 1.1,0 2,0.6 2,1.333334 0,0.733333 -0.9,1.333333 -2,1.333333 -1.1,0 -2,-0.6 -2,-1.333333 z"
       id="path1" />
  </g>
</svg>
