<?xml version="1.0" encoding="UTF-8" standalone="no"?>
<!-- Created with Inkscape (http://www.inkscape.org/) -->

<svg
   version="1.1"
   id="svg1"
   width="113.33333"
   height="141.33333"
   viewBox="0 0 113.33333 141.33333"
   xmlns="http://www.w3.org/2000/svg"
   xmlns:svg="http://www.w3.org/2000/svg">
  <defs
     id="defs1" />
  <g
     id="g1">
    <path
       style="fill:#000000"
       d="m 99.979558,124.42484 c -3.960264,-2.44936 -12.005843,-18.21855 -11.990461,-23.50108 0.0217,-7.450873 -2.772602,-15.215623 -6.005776,-16.688756 -2.386227,-1.087237 -3.476322,-0.982525 -4.663528,0.447971 -0.852153,1.026781 -1.180911,2.463054 -0.730572,3.191718 0.450339,0.728663 -0.479067,2.019438 -2.065346,2.868389 -1.856217,0.993417 -2.351527,1.872722 -1.389734,2.467143 0.92988,0.574697 -0.71217,2.768069 -4.346793,5.806237 -3.278873,2.740798 -5.756281,5.928318 -5.64761,7.266418 0.120656,1.48568 -0.599411,2.25595 -1.911237,2.04447 -1.157656,-0.18662 -2.848157,1.04962 -3.75667,2.74719 -2.362689,4.41472 -18.731754,10.61118 -28.138499,10.65174 -4.033333,0.0174 -9.133333,-0.7608 -11.333333,-1.72931 -2.2,-0.96851 -4.494597,-1.64917 -5.099106,-1.51258 -0.604508,0.13659 -0.743926,-0.32635 -0.309817,-1.02875 0.434108,-0.70241 -0.967518,-2.31487 -3.1147269,-3.58326 C 4.6468225,111.01951 3.6504772,107.12907 3.5333375,90.666663 3.4590334,80.224218 4.0095108,76.595226 6.6682391,69.999997 c 1.7737678,-4.399999 3.9483159,-8.599999 4.8323289,-9.333333 0.884014,-0.733333 2.548298,-4.175644 3.69841,-7.64958 1.150113,-3.473937 4.222472,-9.348556 6.827467,-13.05471 2.604994,-3.706154 6.556335,-10.319952 8.780758,-14.69733 3.977257,-7.826729 8.82013,-11.931711 14.076496,-11.931711 1.292203,0 3.677215,-1.65 5.300027,-3.6666667 2.328958,-2.8941934 3.299597,-3.3245581 4.607291,-2.0427947 2.424582,2.3765034 -0.282237,10.2883884 -6.795126,19.8617894 -2.936372,4.316219 -5.043563,8.628834 -4.682648,9.583588 0.360916,0.954754 0.100214,1.392292 -0.579338,0.972307 -1.729864,-1.069116 -11.748754,14.98533 -18.279738,29.291775 -8.452533,18.515694 -8.948583,32.161643 -1.415473,38.938579 4.718781,4.24511 7.324542,4.60894 10.281061,1.43549 1.469697,-1.57753 3.723991,-3.01636 5.009543,-3.1974 5.945722,-0.83731 7.570177,-1.82038 14.752606,-8.927866 4.214147,-4.170176 8.330495,-7.582137 9.147438,-7.582137 1.608369,0 3.103988,-3.00501 3.103988,-6.236556 0,-1.110151 -1.218998,-3.730381 -2.708885,-5.822734 -2.281685,-3.204332 -3.78486,-3.867605 -9.53167,-4.205828 -5.600718,-0.329625 -7.300174,-1.043095 -9.488048,-3.983297 -2.317907,-3.114949 -2.4516,-4.09758 -1.025825,-7.539707 1.964153,-4.741885 3.593774,-5.266691 14.578831,-4.694994 6.52015,0.339329 10.155563,1.412535 15.975003,4.715962 4.14366,2.352164 7.739274,4.778064 7.990254,5.39089 0.25098,0.612825 2.95098,2.368093 6,3.900595 10.592615,5.324073 14.25981,10.86083 16.65268,25.142335 4.39608,26.237317 3.38071,34.196937 -3.796112,29.758177 z M 69.33333,99.921307 c 0,-0.776612 0.6,-1.041202 1.333333,-0.587977 0.733334,0.453225 1.333334,1.08863 1.333334,1.41202 0,0.32339 -0.6,0.58798 -1.333334,0.58798 -0.733333,0 -1.333333,-0.63541 -1.333333,-1.412023 z M 57.083331,73.755845 c 0.9625,-0.385161 2.1125,-0.337792 2.555555,0.105263 0.443056,0.443056 -0.344444,0.758188 -1.75,0.700293 -1.553257,-0.06398 -1.869199,-0.379921 -0.805555,-0.805556 z M 43.999998,7.9999997 c 0,-1.4666666 0.86459,-2.6666666 1.921311,-2.6666666 2.783636,0 4.067419,2.7660793 1.916176,4.1286541 -2.853797,1.8075648 -3.837487,1.4328038 -3.837487,-1.4619875 z"
       id="path1" />
  </g>
</svg>
