<?xml version="1.0" encoding="UTF-8" standalone="no"?>
<!-- Created with Inkscape (http://www.inkscape.org/) -->

<svg
   version="1.1"
   id="svg1"
   width="96"
   height="132"
   viewBox="0 0 96 132"
   xmlns="http://www.w3.org/2000/svg"
   xmlns:svg="http://www.w3.org/2000/svg">
  <defs
     id="defs1" />
  <g
     id="g1">
    <path
       style="fill:#000000"
       d="m 36,126 c 0,-1.1 0.581169,-2 1.291487,-2 0.710318,0 0.946124,0.9 0.524015,2 -0.42211,1.1 -1.003279,2 -1.291487,2 C 36.235807,128 36,127.1 36,126 Z m -14.288747,-3.66667 c -0.705064,-0.91666 -2.028276,-6.16666 -2.940472,-11.66666 -0.912197,-5.5 -2.208794,-11.041862 -2.881327,-12.315245 -0.672533,-1.273383 -1.222787,-4.303383 -1.222787,-6.733333 0,-2.429951 -0.734976,-5.153068 -1.63328,-6.051371 C 11.785139,84.318472 11.763564,83.351456 12.941869,81.46469 14.114925,79.58633 14.08476,77.060382 12.815735,70.90232 11.743422,65.698822 11.593895,62.011646 12.396993,60.57659 13.783948,58.09824 12.624659,42.341021 10.441703,34 9.6740109,31.066667 7.9105716,26.484974 6.5229495,23.818461 3.2417988,17.513263 3.1450832,10.724518 6.3333333,10.508772 7.6166667,10.42193 9.2666667,10.517548 10,10.721257 c 0.733333,0.203709 2.812186,0.476252 4.619672,0.605652 6.327368,0.452984 10.644994,12.3862 13.381326,36.98381 0.630853,5.670896 1.535492,10.939306 2.010311,11.707579 0.952715,1.541525 9.838791,0.413548 11.922024,-1.513353 C 42.63,57.860559 44.13,57.332344 45.266667,57.331136 c 1.136666,-0.0012 5.366666,-2.287036 9.4,-5.079616 6.458799,-4.471913 7.383932,-5.685151 7.757628,-10.173507 0.233363,-2.802849 -0.216637,-5.737022 -1,-6.520384 C 60.640933,34.774266 60,32.573333 60,30.666667 60,28.76 59.298018,26.498018 58.44004,25.64004 c -1.191059,-1.191059 -1.134211,-2.849995 0.240389,-7.015075 1.974663,-5.983285 4.516283,-7.959544 10.231916,-7.955914 3.027009,0.0019 4.529229,1.228858 7.754322,6.333333 C 80.6038,23.233832 80.668121,23.62671 80.7592,42 c 0.09536,19.236119 0.954091,25.584901 7.290437,53.899589 4.250105,18.992081 3.82484,22.767081 -2.564778,22.767081 -4.285499,0 -10.3499,-5.9017 -11.408861,-11.10277 -2.092369,-10.276621 -3.351074,-16.865049 -4.056056,-21.230567 -0.444094,-2.75 -1.297053,-5 -1.895464,-5 -0.598411,0 -0.814721,-1.429669 -0.480689,-3.177044 0.334031,-1.747374 -0.04917,-3.582784 -0.851563,-4.078689 -0.802391,-0.495905 -1.458893,-2.902042 -1.458893,-5.346971 0,-6.147749 -2.753617,-6.677004 -9.460742,-1.818388 -3.105722,2.249774 -8.072362,5.364881 -11.036978,6.922462 -5.888318,3.093665 -7.157903,5.80622 -7.369373,15.745164 -0.0731,3.435594 -0.771515,7.926202 -1.552037,9.97913 -1.02671,2.700453 -0.982984,5.290363 0.158128,9.366013 2.309987,8.25046 0.997278,11.66576 -5.197215,13.52168 -6.531245,1.9568 -7.581571,1.94381 -9.163863,-0.11336 z"
       id="path1" />
  </g>
</svg>
