<?xml version="1.0" encoding="UTF-8" standalone="no"?>
<!-- Created with Inkscape (http://www.inkscape.org/) -->

<svg
   version="1.1"
   id="svg1"
   width="93.333336"
   height="133.33333"
   viewBox="0 0 93.333336 133.33333"
   xmlns="http://www.w3.org/2000/svg"
   xmlns:svg="http://www.w3.org/2000/svg">
  <defs
     id="defs1" />
  <g
     id="g1">
    <path
       style="fill:#000000"
       d="M 35.333334,122.02923 C 23.70314,113.38984 16,105.24284 16,101.58189 c 0,-1.716197 1.753847,-4.874201 3.897436,-7.017791 3.03306,-3.033059 5.103015,-3.897436 9.333334,-3.897436 5.201896,0 5.435898,0.179765 5.435898,4.175955 0,5.601612 4.352651,12.315362 10.234019,15.785452 5.703614,3.36521 10.230766,3.10298 10.842941,-0.62807 0.240644,-1.46667 1.408904,-4.76667 2.596135,-7.33334 2.735314,-5.913457 4.11541,-35.041696 1.792868,-37.840188 C 59.29152,63.812996 57.762844,59.756911 56.735572,55.81295 54.419494,46.920926 46.557218,32.677006 43.942904,32.636743 c -1.068596,-0.01646 -1.777042,-1.020991 -1.574323,-2.232296 0.447549,-2.674233 -3.088748,-3.950232 -9.940034,-3.586657 -2.802367,0.148713 -6.969138,-0.155418 -9.25949,-0.675845 -3.149249,-0.715591 -4.357782,-0.441966 -4.958154,1.122578 -0.436632,1.137845 -1.642728,2.068809 -2.680214,2.068809 -1.037486,0 -2.200793,1.202476 -2.585126,2.672169 -0.466162,1.782607 -1.405661,2.400915 -2.822175,1.857348 C 7.6540156,32.915262 7.0812463,22.058532 9.4242318,20.610488 10.207559,20.126365 10.497207,18.814906 10.067894,17.696134 8.226131,12.896576 16.15175,9.874408 19.297647,14.176679 c 1.374743,1.880073 2.269525,1.952952 6.566466,0.534834 4.939167,-1.630072 12.726505,-1.392116 17.064916,0.521449 1.619732,0.714424 3.620722,-0.36049 7.044444,-3.784212 5.282167,-5.2821664 6.945653,-5.7183559 10.771689,-2.8244882 1.423495,1.0766775 4.509941,1.9766772 6.858769,2.0000002 4.365055,0.04334 10.589357,2.267598 13.17118,4.706723 0.792976,0.749149 1.854814,3.007767 2.359639,5.019151 0.790836,3.150939 0.315054,4.023654 -3.437819,6.305913 -2.979577,1.811988 -6.33734,2.562626 -10.628064,2.375934 -3.449808,-0.150103 -6.628887,0.08359 -7.064618,0.519324 -0.435732,0.435732 0.968327,3.778168 3.12013,7.427635 2.151804,3.649467 4.321063,8.672169 4.820577,11.161559 0.499513,2.48939 2.143921,8.36258 3.654239,13.051533 2.346761,7.285786 2.653964,10.872303 2.112818,24.666666 -0.715578,18.24083 -3.786799,29.05598 -10.597485,37.31852 -3.84672,4.66674 -4.263378,4.82232 -12.878265,4.80876 -8.444056,-0.0133 -9.315263,-0.32031 -16.902929,-5.95675 z"
       id="path1" />
  </g>
</svg>
