<?xml version="1.0" encoding="UTF-8" standalone="no"?>
<!-- Created with Inkscape (http://www.inkscape.org/) -->

<svg
   version="1.1"
   id="svg1"
   width="115.89429"
   height="119.24677"
   viewBox="0 0 115.89429 119.24677"
   xml:space="preserve"
   xmlns:xlink="http://www.w3.org/1999/xlink"
   xmlns="http://www.w3.org/2000/svg"
   xmlns:svg="http://www.w3.org/2000/svg"><defs
     id="defs1" /><g
     id="g1"
     transform="translate(1662.9243,643.50759)"><path
       d="m -1578.918,-643.50391 c -1.4525,0.0542 -3.0955,0.70591 -4.8965,1.98829 -2.2593,1.60877 -4.1074,4.04841 -4.1074,5.42187 0,1.37345 -0.6006,2.86708 -1.334,3.32031 -0.7333,0.45322 -1.3425,3.64002 -1.3535,7.08008 -0.02,6.54687 -2.9994,16.83869 -5.8633,20.25391 -0.9225,1.1 -2.4043,3.8 -3.2929,6 -2.523,6.24633 -6.1188,9.83894 -12.8145,12.80078 -5.7347,2.53672 -6.407,2.57959 -9.4258,0.60156 -1.7878,-1.17138 -3.25,-2.64809 -3.25,-3.28125 0,-0.63316 -2.6898,-1.55566 -5.9785,-2.04883 -3.9163,-0.58728 -6.6767,-1.89188 -8,-3.78125 -2.2527,-3.21609 -2.7968,-16.32051 -0.7304,-17.59765 1.411,-0.872 0.9277,-7.76144 -1.1114,-15.8418 -2.6644,-10.55819 -12.5354,-16.02507 -19.4687,-10.7832 -2.0974,1.58565 -2.5618,3.35903 -2.3223,8.86328 0.1846,4.24343 1.1649,7.83882 2.5586,9.3789 2.4473,2.7042 4.1428,11.96503 5.0508,27.60547 0.3167,5.45403 0.9554,10.85404 1.4199,12 0.4644,1.14597 1.4079,5.98334 2.0977,10.75 0.6898,4.76667 1.8401,12.56732 2.5547,17.33399 0.7146,4.76666 1.7691,12.08409 2.3437,16.26172 0.5867,4.26551 2.1302,8.7966 3.5215,10.33398 3.1035,3.42938 5.5604,3.44067 11.1172,0.0527 3.7057,-2.25934 4.3869,-3.44707 4.3769,-7.66015 -0.01,-2.74297 0.2253,-7.08763 0.5117,-9.6543 0.2863,-2.56667 0.5671,-6.61667 0.6231,-9 0.159,-6.71578 3.9687,-9.61703 11.9199,-9.07617 6.9669,0.47392 12.3903,4.06658 36.0996,23.91211 10.4259,8.72687 18.3251,10.56439 25.9883,6.04297 4.4702,-2.63749 6.8632,-5.95957 5.0371,-6.99414 -0.518,-0.29345 -4.1664,-1.29031 -8.1055,-2.21485 -6.3322,-1.48626 -8.7656,-3.20495 -21.0175,-14.84179 -7.6214,-7.23883 -14.6569,-13.16211 -15.6328,-13.16211 -0.9759,0 -2.8896,-1.23255 -4.254,-2.74024 -2.1697,-2.39755 -2.2528,-3.10935 -0.6582,-5.66797 3.9229,-6.29461 14.0431,-16.96109 15.545,-16.38476 1.7545,0.67325 3.1341,-3.21846 3.1621,-8.91602 0.01,-2.03969 0.829,-4.02 1.8203,-4.40039 1.0852,-0.41643 1.5602,-1.95806 1.1933,-3.87695 -0.4241,-2.21893 0.4766,-4.27344 2.9668,-6.76367 2.5554,-2.55542 3.167,-3.98741 2.1407,-5.01367 -0.79,-0.79 -1.4356,-3.3416 -1.4356,-5.66993 0,-9.59129 -2.6384,-14.7935 -6.9961,-14.63086 z"
       id="path2" /><use
       x="0"
       y="0"
       xlink:href="#path2"
       id="use2" /></g></svg>
