<?xml version="1.0" encoding="UTF-8" standalone="no"?>
<!-- Created with Inkscape (http://www.inkscape.org/) -->

<svg
   version="1.1"
   id="svg1"
   width="100"
   height="121.33333"
   viewBox="0 0 100 121.33333"
   xmlns="http://www.w3.org/2000/svg"
   xmlns:svg="http://www.w3.org/2000/svg">
  <defs
     id="defs1" />
  <g
     id="g1">
    <path
       style="fill:#000000"
       d="m 22.397644,116.48632 c -0.338531,-0.63414 -0.728201,-3.29778 -0.865933,-5.91919 -0.137732,-2.62142 -0.838712,-6.81745 -1.557733,-9.32453 -0.719021,-2.507085 -1.307311,-6.476883 -1.307311,-8.821779 0,-2.344895 -0.652271,-4.666572 -1.449491,-5.159281 -0.79722,-0.492709 -1.159161,-2.006058 -0.804313,-3.362999 0.354848,-1.35694 -0.234595,-3.197311 -1.309873,-4.089712 -1.075278,-0.892402 -1.679642,-2.675712 -1.343032,-3.962913 0.336611,-1.287201 -0.175102,-2.642412 -1.137139,-3.01158 C 11.58009,72.434203 11.17168,71.023493 11.611574,69.341338 12.562599,65.704613 8.0658735,30.509449 6.3791457,28.387945 5.6742201,27.501315 5.5146935,24.876252 6.024642,22.554471 6.7148104,19.412156 6.538094,18.588749 5.3333333,19.333333 2.5015719,21.083457 5.3020289,11.5661 8.3190264,9.1864498 10.474026,7.4866988 11.814055,7.3313948 14.753113,8.440765 c 3.673856,1.3867258 4.948395,4.436518 5.945147,14.225901 0.18667,1.833333 1.346768,9.033333 2.577997,15.999999 1.231228,6.966666 2.750067,16.566666 3.375198,21.333332 0.625131,4.766667 1.749727,10.466667 2.499104,12.666667 1.308658,3.841926 3.295187,12.11863 5.280319,21.999999 0.923396,4.596377 1.057749,4.677834 8.919986,5.408107 4.390358,0.4078 17.732469,0.54668 29.649136,0.30863 17.914012,-0.35786 21.666667,-0.1087 21.666667,1.43854 0,5.2407 -18.444705,10.59014 -44.666667,12.95448 -7.333333,0.66122 -16.405374,1.57587 -20.160089,2.03256 -3.754716,0.45668 -7.103736,0.31149 -7.442267,-0.32266 z"
       id="path1" />
  </g>
</svg>
