<?xml version="1.0" encoding="UTF-8" standalone="no"?>
<!-- Created with Inkscape (http://www.inkscape.org/) -->

<svg
   version="1.1"
   id="svg1"
   width="165.33333"
   height="133.33333"
   viewBox="0 0 165.33333 133.33333"
   xmlns="http://www.w3.org/2000/svg"
   xmlns:svg="http://www.w3.org/2000/svg">
  <defs
     id="defs1" />
  <g
     id="g1">
    <path
       style="fill:#000000;stroke-width:0.925381"
       d="m 17.257862,130.14886 c -1.543816,-2.26393 -2.2013,-5.60254 -4.12919,-20.96744 C 12.152042,101.39788 11.655609,94.108566 12.02549,92.982958 12.39537,91.85735 12.231524,90.599732 11.661387,90.188251 11.09125,89.776769 10.513066,79.686248 10.376534,67.764871 10.240002,55.843493 9.6937311,45.469469 9.1625979,44.711485 7.4458252,42.261463 7.3881733,36.432597 9.0574817,34.083745 10.219153,32.44918 10.316377,31.532284 9.398288,30.869678 7.5311629,29.52213 7.2252053,13.365352 9.041982,12.054141 c 0.7967884,-0.575061 3.251046,-0.570872 5.453907,0.0093 2.202861,0.580179 5.728918,0.728222 7.835683,0.328982 3.194321,-0.605335 4.263906,-0.116537 6.440249,2.943177 1.435374,2.017986 3.801927,5.050898 5.259007,6.739804 2.616017,3.03223 8.914991,12.714256 14.355241,22.065147 3.406231,5.85475 14.564151,17.192772 16.919669,17.192772 3.140538,0 7.535036,-6.252294 11.705064,-16.653441 2.272582,-5.668414 5.592016,-12.490286 7.376521,-15.159716 1.784505,-2.669429 3.562419,-6.461552 3.950919,-8.426939 0.899567,-4.55085 3.936397,-8.131179 6.081514,-7.169916 0.912351,0.408841 2.377713,0.743347 3.25635,0.743347 0.878638,0 1.921563,1.507663 2.317607,3.350363 0.396037,1.842699 1.366577,3.792699 2.156747,4.333333 1.64474,1.125332 6.28817,11.349752 6.32626,13.929853 0.014,0.945881 1.03013,3.219783 2.25816,5.053117 1.22802,1.833333 2.24419,4.072989 2.25815,4.977012 0.0242,1.568364 5.8512,16.499918 14.57574,37.350211 2.22328,5.313307 4.76812,10.36396 5.65519,11.223674 C 137.58636,99.112122 137.1854,108 132.63226,108 c -2.78911,0 -8.49558,-3.35731 -10.74803,-6.32343 -2.35624,-3.10278 -20.28354,-44.178187 -20.28354,-46.474058 0,-0.984141 -1.55826,-3.134705 -3.462799,-4.77903 -2.917415,-2.518812 -3.348012,-3.59997 -2.733998,-6.864574 1.38163,-7.345928 -1.973456,-3.071684 -8.244364,10.502961 -3.37196,7.299304 -6.656826,14.809041 -7.299698,16.688305 -1.143155,3.341707 -1.388387,3.409491 -11.15204,3.082509 C 59.629058,73.528639 58.138146,73.085951 52.251317,68.946354 45.621049,64.283972 40.327164,57.23626 35.505188,46.652347 32.048052,39.064165 27.466235,33.689848 26.312564,35.869707 c -1.544927,2.919135 0.04621,29.928147 1.909039,32.405276 2.028003,2.696776 2.301888,14.035668 0.437296,18.104216 -1.993638,4.350127 -1.502971,9.267284 1.220409,12.230175 2.390884,2.601156 2.434887,3.085336 1.06502,11.718606 -0.785898,4.95294 -1.680388,10.59313 -1.987755,12.53376 -0.307368,1.94062 -1.514079,4.53791 -2.681581,5.77175 -2.564356,2.71007 -7.622756,3.56015 -9.01713,1.51537 z M 16.538529,26.666666 c 0.388111,-0.733334 0.161535,-1.333334 -0.503502,-1.333334 -0.665037,0 -1.209158,0.6 -1.209158,1.333334 0,0.733333 0.226576,1.333333 0.503503,1.333333 0.276926,0 0.821048,-0.6 1.209157,-1.333333 z"
       id="path1" />
  </g>
</svg>
