<?xml version="1.0" encoding="UTF-8" standalone="no"?>
<!-- Created with Inkscape (http://www.inkscape.org/) -->

<svg
   version="1.1"
   id="svg1"
   width="108"
   height="145.33333"
   viewBox="0 0 108 145.33333"
   xmlns="http://www.w3.org/2000/svg"
   xmlns:svg="http://www.w3.org/2000/svg">
  <defs
     id="defs1" />
  <g
     id="g1">
    <path
       style="fill:#000000"
       d="M 8.4915813,130.02452 C 7.6404632,127.80655 7.4372404,123.7354 7.8913429,118 8.2311093,113.70868 7.250816,103.35719 6.3696364,101.93141 5.3343083,100.25622 7.6962374,59.605035 9.2089213,53.064455 10.02172,49.550055 9.8200498,47.106665 8.5085322,44.578713 5.7817856,39.322904 6.1709803,37.936062 11.637125,33.430404 16.683025,29.271147 20.507195,28.251256 22,30.666666 c 0.453225,0.733333 1.867768,1.333333 3.143429,1.333333 5.173801,0 19.711519,18.796114 31.026476,40.11477 1.006552,1.896457 3.278109,6.202109 5.047903,9.568116 3.373836,6.416764 7.69196,8.972338 9.074182,5.370327 0.437542,-1.140218 0.100839,-3.185503 -0.748229,-4.545077 -3.276112,-5.245889 -0.162318,-11.687667 5.209618,-10.777593 1.289043,0.218381 2.732279,-0.231655 3.20719,-1.000078 0.474912,-0.768423 0.01614,-1.397133 -1.01949,-1.397133 -2.839756,0 -1.3909,-12.532248 2.389279,-20.666666 4.549561,-9.790021 7.087011,-18.919526 5.815641,-20.924125 -1.649004,-2.600025 -1.371897,-7.707524 0.520668,-9.596697 5.849188,-5.838707 12.866123,-1.979843 14.494093,7.970823 0.58939,3.6025 1.46511,8.518238 1.94604,10.923863 0.69901,3.496406 0.29691,4.874746 -2.00435,6.870613 -1.918474,1.663885 -2.328703,2.680106 -1.229777,3.046414 1.092797,0.364266 0.277484,2.319246 -2.417209,5.796054 -2.236413,2.885513 -4.107463,6.446388 -4.15789,7.913055 -0.404142,11.754511 -1.861655,19.571993 -4.474804,24.00095 -1.638669,2.777337 -3.183171,7.213306 -3.432226,9.857709 -0.249056,2.644403 -0.836995,5.708006 -1.306531,6.808006 -0.469536,1.1 -0.905522,2.49427 -0.968858,3.09838 -0.197201,1.88096 -10.619959,7.55427 -13.891568,7.56145 C 64.493305,112.00136 52,100.11935 52,96.563396 c 0,-1.315341 -1.102897,-3.6302 -2.450882,-5.144131 -1.347985,-1.513931 -3.257515,-4.852601 -4.243399,-7.419268 -0.985884,-2.566667 -2.882987,-6.097582 -4.215784,-7.846478 -1.332798,-1.748896 -2.423268,-3.998896 -2.423268,-5 0,-1.001103 -0.630616,-1.820188 -1.401369,-1.820188 -0.770753,0 -2.338187,-2.25 -3.483188,-5 -1.996287,-4.794575 -3.892675,-6.935751 -6.181652,-6.979583 -0.586415,-0.01123 -0.659399,3.575307 -0.162187,7.97008 0.624255,5.517683 0.401161,8.596407 -0.720891,9.948397 -1.164925,1.403649 -1.261513,3.199208 -0.341196,6.342836 0.706044,2.411715 1.404964,8.564596 1.553154,13.67307 0.14819,5.108469 0.560123,9.758469 0.915406,10.333329 0.355282,0.57486 0.06925,1.0452 -0.635621,1.0452 -1.966616,0 -4.20679,7.69703 -4.22954,14.5323 -0.02722,8.17711 -1.205393,9.63286 -8.457671,10.4503 -5.005487,0.56419 -6.3056645,0.26371 -7.0303307,-1.62474 z M 12.666667,73.333331 c 1.435812,-2.323193 -0.692384,-4.305176 -2.7706899,-2.580335 -1.0266387,0.852034 -1.5378119,2.081169 -1.1359405,2.731411 0.9726376,1.57376 2.8863614,1.499753 3.9066304,-0.151076 z m 54,11.92131 c 0,-0.776612 0.6,-1.041202 1.333333,-0.587977 0.733333,0.453225 1.333333,1.088635 1.333333,1.412022 0,0.323388 -0.6,0.587978 -1.333333,0.587978 -0.733333,0 -1.333333,-0.635411 -1.333333,-1.412023 z"
       id="path1" />
  </g>
</svg>
