<?xml version="1.0" encoding="UTF-8" standalone="no"?>
<!-- Created with Inkscape (http://www.inkscape.org/) -->

<svg
   version="1.1"
   id="svg1"
   width="96"
   height="122.66667"
   viewBox="0 0 96 122.66667"
   xmlns="http://www.w3.org/2000/svg"
   xmlns:svg="http://www.w3.org/2000/svg">
  <defs
     id="defs1" />
  <g
     id="g1">
    <path
       style="fill:#000000"
       d="m 40.435286,111.34646 c -2.32726,-0.77841 -5.32726,-2.33379 -6.666667,-3.45639 -1.339407,-1.12261 -4.02345,-2.71608 -5.96454,-3.54106 -1.94109,-0.82497 -5.237676,-3.79099 -7.325748,-6.591145 C 18.39026,94.957708 16.378424,92.36667 16.007586,92.000004 15.636747,91.633337 14.133333,88.977451 12.666667,86.098035 11.2,83.218619 9.1634739,80.02495 8.1410532,79.000993 7.0062998,77.864534 6.125219,73.536628 5.879389,67.891602 5.6578945,62.805394 5.1273775,58.078781 4.7004623,57.388018 4.0169408,56.282057 5.4470543,52.410716 11.123776,40.000002 13.577321,34.635947 25.41907,25.333334 29.793693,25.333334 c 3.003259,0 8.872974,-5.321877 8.872974,-8.044833 0,-4.38814 5.236244,-7.9551673 11.677848,-7.9551673 11.157216,0 25.89209,13.6401813 32.40765,30.0000013 3.980873,9.995511 4.269679,16.840026 1.501797,35.591599 -3.020665,20.464098 -28.41681,41.573046 -43.818676,36.421526 z M 55.028353,97.653487 c 2.033417,-1.948138 5.589499,-6.867137 7.902403,-10.93111 3.893149,-6.8406 4.926545,-10.261405 7.468416,-24.722374 C 72.350883,50.896516 64.187621,30.859463 56.525408,27.946295 51.987139,26.220848 52,26.215235 52,29.921312 c 0,4.436326 -1.827338,5.216112 -4.723639,2.015735 -1.441653,-1.593008 -2.750944,-2.120522 -3.251784,-1.310146 -0.461131,0.746126 -3.791541,1.908295 -7.400912,2.582598 -8.692649,1.623963 -12.773522,6.166469 -12.188123,13.566855 0.48493,6.130284 -2.01489,10.556982 -5.961678,10.556982 -2.440341,0 -2.618047,0.56058 -1.796352,5.666667 1.026376,6.377991 5.568427,15.005189 10.003982,19.001623 1.626831,1.465774 3.496241,4.073105 4.154244,5.794069 0.658003,1.720963 2.316006,3.421816 3.684451,3.779672 C 37.090053,92.247402 40,97.19897 40,100.89982 c 0,3.35999 10.500352,1.09177 15.028353,-3.246333 z m -3.69502,-60.320152 c 0.453225,-0.733333 1.088635,-1.333334 1.412023,-1.333334 0.323388,0 0.587977,0.600001 0.587977,1.333334 0,0.733333 -0.63541,1.333333 -1.412022,1.333333 -0.776613,0 -1.041203,-0.6 -0.587978,-1.333333 z M 40.701949,29.590839 c -0.410517,-0.410517 -1.486393,-8.46e-4 -2.390838,0.910379 -1.307023,1.316821 -1.153872,1.469972 0.746393,0.746393 1.314961,-0.500709 2.054961,-1.246256 1.644445,-1.656772 z"
       id="path1" />
  </g>
</svg>
