<?xml version="1.0" encoding="UTF-8" standalone="no"?>
<!-- Created with Inkscape (http://www.inkscape.org/) -->

<svg
   version="1.1"
   id="svg1"
   width="120"
   height="161.33333"
   viewBox="0 0 120 161.33333"
   xmlns="http://www.w3.org/2000/svg"
   xmlns:svg="http://www.w3.org/2000/svg">
  <defs
     id="defs1" />
  <g
     id="g1">
    <path
       style="fill:#000000"
       d="m 36.660991,157 c -0.436248,-2.38334 -1.648864,-11.53334 -2.694702,-20.33334 -2.614407,-21.9984 -2.768633,-23.19447 -3.868333,-30 -1.495797,-9.256783 -7.613778,-32.514973 -8.926038,-33.933329 -1.965348,-2.124245 -1.315089,-5.923496 1.494749,-8.733333 3.563378,-3.563379 7.476407,-3.410753 8.546042,0.333333 0.841158,2.94434 0.895985,2.928772 2.955127,-0.839142 1.433233,-2.622596 1.643492,-4.120084 0.663531,-4.725734 -1.425949,-0.881285 -0.241137,-7.791053 2.418022,-14.10179 0.618011,-1.466666 1.855414,-5.355545 2.749787,-8.641952 0.894372,-3.286408 2.760437,-7.417323 4.146811,-9.179812 1.386374,-1.762489 2.52068,-3.966842 2.52068,-4.898562 0,-3.080951 9.432937,-13.2292391 15.09721,-16.2421129 8.531459,-4.5379544 13.083445,-3.9780006 21.372577,2.629107 3.910101,3.1166669 8.54863,7.7666659 10.307843,10.3333329 1.759212,2.566667 3.705169,5.033749 4.324349,5.482404 0.61918,0.448656 1.075534,1.348656 1.01412,2 -0.06141,0.651345 1.081645,4.784262 2.540134,9.184262 3.65036,11.012495 4.55471,28.683463 1.97484,38.588248 -4.116115,15.802823 -19.638748,34.10421 -30.683468,36.17622 -8.906879,1.67094 -12.122166,-2.9603 -4.075355,-5.87006 C 75.224443,101.81022 82.046934,92.507948 87.454023,78.43753 91.932384,66.783861 92.186656,65.312503 91.488545,55.091541 90.866529,45.984686 89.951372,42.681557 85.947392,35.091542 81.20468,26.101174 71.50507,14.666666 68.621475,14.666666 c -3.003888,0 -7.574678,6.330058 -6.657478,9.219899 0.693528,2.185112 0.311859,2.780101 -1.783354,2.780101 -3.928477,0 -8.164235,6.902465 -10.464254,17.052236 -3.10912,13.72026 -3.520826,17.614429 -1.862264,17.614429 2.059243,0 1.851316,3.818369 -0.326519,5.996203 -2.378231,2.378231 -3.944914,18.065928 -2.249519,22.525154 1.576967,4.147737 3.478358,4.495335 4.441578,0.811976 0.537083,-2.053806 1.818688,-2.666667 5.576497,-2.666667 6.923344,0 9.788324,1.984301 10.822239,7.495544 1.037204,5.528769 -0.494043,7.118879 -6.885982,7.150709 -2.65537,0.0132 -5.191141,-1.14008 -7.193813,-3.271826 -4.017732,-4.276679 -5.482995,-3.221801 -3.831738,2.758566 0.725705,2.62828 0.919794,7.14432 0.43131,10.03563 -0.566287,3.35182 -0.31186,5.95133 0.702057,7.17303 2.353759,2.8361 3.807433,10.65493 2.436435,13.10477 -0.741308,1.32464 -0.419435,6.95866 0.847272,14.83051 1.123498,6.9819 2.042725,13.00082 2.042725,13.37538 0,0.37456 -3.872812,0.68102 -8.60625,0.68102 h -8.606249 z"
       id="path1" />
  </g>
</svg>
