<?xml version="1.0" encoding="UTF-8" standalone="no"?>
<!-- Created with Inkscape (http://www.inkscape.org/) -->

<svg
   version="1.1"
   id="svg1"
   width="109.33333"
   height="149.33333"
   viewBox="0 0 109.33333 149.33333"
   xmlns="http://www.w3.org/2000/svg"
   xmlns:svg="http://www.w3.org/2000/svg">
  <defs
     id="defs1" />
  <g
     id="g1">
    <path
       style="fill:#000000"
       d="m 57.865005,142.80038 c -0.659088,-0.58464 -5.098341,-2.00204 -9.865007,-3.14979 -4.766667,-1.14776 -10.466666,-2.83087 -12.666666,-3.74025 -10.81201,-4.46922 -19.391692,-3.36125 -21.332884,2.75491 -1.002748,3.15938 -2.743031,3.46406 -3.81595,0.66808 -0.4221099,-1.1 -1.6047488,-2 -2.6280866,-2 -2.0405574,0 -4.0665305,-10.45255 -2.7107701,-13.98561 0.4323148,-1.12659 0.065831,-2.91613 -0.8144092,-3.97676 -1.8755803,-2.25993 -0.587091,-10.03763 1.6628808,-10.03763 0.8152279,0 0.3766604,-0.80841 -0.9745943,-1.79648 -1.7023298,-1.24477 -1.9853264,-2.08787 -0.9215061,-2.74535 0.8444263,-0.52189 1.5425478,-2.86347 1.5513811,-5.203526 0.00883,-2.340054 1.4210519,-6.711346 3.1382638,-9.713983 1.7172116,-3.002636 3.4491856,-6.902636 3.8488306,-8.666666 0.399645,-1.76403 1.350475,-5.007328 2.112956,-7.207328 0.762481,-2.199999 2.131356,-6.699999 3.041944,-9.999999 0.910589,-3.3 2.142335,-6.655206 2.737212,-7.456012 0.594878,-0.800807 0.731293,-1.806316 0.303144,-2.234465 -0.995561,-0.995561 3.222227,-15.641973 4.505501,-15.645505 0.529515,-0.0015 1.09593,-1.894879 1.2587,-4.207602 0.162771,-2.312724 1.434027,-5.461531 2.825015,-6.99735 1.390988,-1.535819 2.91124,-4.292398 3.378339,-6.125731 0.467098,-1.833334 2.368187,-5.04277 4.224641,-7.132081 4.373904,-4.9225275 7.205078,-4.190681 16.384291,4.235267 6.597951,6.05651 17.544469,20.671847 17.554189,23.437625 0.0023,0.664113 1.565127,3.253902 3.472873,5.755087 2.941289,3.856229 6.055718,13.150907 9.506378,28.370766 0.415655,1.833334 1.377133,3.737231 2.136618,4.230883 0.781432,0.507917 1.564941,7.743021 1.804878,16.666666 0.435352,16.191364 0.405256,16.096654 6.416829,20.193734 2.966334,2.02166 7.333334,9.67665 7.333334,12.85473 0,3.75044 -2.209585,4.33158 -7.018093,1.84582 C 87.954501,128.50363 86.623696,128 84.295699,128 c -1.323932,0 -5.056998,2.7 -8.295703,6 -3.238704,3.3 -6.693425,6 -7.677156,6 -0.983732,0 -3.469553,0.86925 -5.524049,1.93167 -2.054495,1.06242 -4.274699,1.45334 -4.933786,0.86871 z m 7.17165,-16.87599 c 2.97106,-2.08101 4.197483,-8.59106 1.618463,-8.59106 -0.739683,0 -3.84109,-1.80825 -6.892017,-4.01833 -3.459107,-2.50576 -6.462931,-3.72766 -7.980065,-3.24614 -1.646437,0.52256 -2.235278,0.20521 -1.821522,-0.98168 0.958397,-2.74922 -15.463444,-10.511676 -18.56544,-8.77571 -1.827478,1.02271 -2.179185,0.95562 -1.421063,-0.27104 0.683552,-1.106013 0.208488,-1.476248 -1.477587,-1.15154 -1.962119,0.37787 -2.39998,1.46602 -2.080775,5.17103 0.22482,2.60949 -0.789316,7.47699 -2.284621,10.9654 -2.628875,6.13291 -2.632554,6.3031 -0.164786,7.62381 1.388262,0.74298 6.913558,1.40846 12.278434,1.47886 5.364877,0.0704 12.754322,0.89912 16.420988,1.84161 9.009474,2.31581 8.999109,2.31585 12.369991,-0.0452 z m 6.605188,-25.5809 C 73.011339,96.774637 72.701764,89.830557 71.020701,86.410613 70.188755,84.718108 68.869729,79.433331 68.089533,74.666664 65.894387,61.25525 64.160594,56.23067 61.428786,55.363628 c -1.665975,-0.52876 -2.265838,-1.640086 -1.815275,-3.363042 0.455264,-1.740929 -1.291423,-4.872622 -5.399874,-9.681615 -3.340046,-3.909565 -6.68529,-8.719241 -7.433875,-10.688169 -2.222303,-5.845101 -7.388012,-1.512785 -8.389326,7.035863 -0.214741,1.833334 -0.976801,3.753021 -1.693468,4.265973 -0.716667,0.512951 -1.30303,3.40386 -1.30303,6.424242 0,3.020382 -0.239876,4.771975 -0.533058,3.89243 -0.609562,-1.828687 -6.123725,8.934876 -8.426238,16.447891 -1.444441,4.713157 -1.301776,5.280971 2.261279,8.999999 2.091643,2.183205 4.615028,3.969464 5.607522,3.969464 0.992495,0 3.43024,1.095185 5.417212,2.433745 10.346222,6.969918 16.002062,10.509411 19.612676,12.273849 2.199999,1.075097 4.479813,2.705702 5.066253,3.623562 1.566507,2.45181 6.211357,2.03215 7.242259,-0.65433 z"
       id="path1" />
  </g>
</svg>
