<?xml version="1.0" encoding="UTF-8" standalone="no"?>
<!-- Created with Inkscape (http://www.inkscape.org/) -->

<svg
   version="1.1"
   id="svg1"
   width="80"
   height="154.66667"
   viewBox="0 0 80 154.66667"
   xmlns="http://www.w3.org/2000/svg"
   xmlns:svg="http://www.w3.org/2000/svg">
  <defs
     id="defs1" />
  <g
     id="g1">
    <path
       style="fill:#000000"
       d="m 15.508867,147.36189 c -1.848327,-1.39981 -2.847969,-4.82937 -3.874016,-13.29093 -0.760586,-6.27236 -1.7809492,-11.40429 -2.2674746,-11.40429 -0.4865253,0 -0.758885,-5.91853 -0.6052436,-13.15229 C 8.9157742,102.28062 8.4310478,93.730619 7.6849631,90.514379 6.1690748,83.979651 5.5154088,54.713305 6.8666667,53.877093 c 0.4766666,-0.29498 0.8666666,-2.654226 0.8666666,-5.242768 0,-2.588543 0.5756817,-5.440215 1.2792925,-6.337049 0.7036109,-0.896835 2.3709462,-4.630608 3.7051902,-8.297275 1.334244,-3.666667 3.518562,-8.259289 4.854041,-10.205828 C 18.907336,21.847635 20,19.682109 20,18.981893 20,18.281678 22.512798,14.854084 25.583996,11.36502 31.072533,5.1297122 31.276448,5.0341105 37.512311,5.7726563 45.677996,6.7397609 51.476647,9.7313133 57.482959,16.075611 62.812248,21.704788 64,25.68685 64,37.924666 c 0,14.07779 -3.558766,22.23032 -19.236619,44.067839 -0.851417,1.185929 0.602232,4.710622 4.666666,11.315357 3.246808,5.276086 7.152202,11.650738 8.678654,14.165898 1.526452,2.51515 4.676452,6.72032 7,9.34481 2.323548,2.62449 4.224632,5.52394 4.224632,6.44323 0,0.91929 1.8,4.15626 4,7.19327 4.814435,6.64614 4.874994,7.29271 0.883143,9.42908 -5.57092,2.98147 -10.357192,1.33978 -15.211368,-5.21748 -2.442908,-3.3 -7.073565,-9.3233 -10.290348,-13.38511 -3.216783,-4.06182 -6.619654,-9.16182 -7.561936,-11.33334 -0.942282,-2.17152 -3.387146,-5.91909 -5.433032,-8.32794 C 33.673906,99.211424 32,96.396834 32,95.365631 c 0,-2.270898 -1.591837,-3.347313 -6.180672,-4.179427 -3.357228,-0.608782 -3.439475,-0.466431 -2.530365,4.379542 1.000172,5.331374 3.919057,11.787404 5.876151,12.996964 0.677074,0.41845 0.526823,4.30832 -0.350902,9.08455 -0.929667,5.05887 -1.14894,11.75672 -0.556042,16.98469 0.8781,7.74279 0.685265,8.94455 -1.872035,11.66667 -3.233021,3.44139 -7.222276,3.83135 -10.877268,1.06327 z M 40.926254,65.666669 C 50.470871,54.449364 51.543389,52.232526 51.853967,43.079666 52.086302,36.232647 51.55452,33.907991 48.733683,29.439495 c -1.870192,-2.962576 -3.40035,-5.905433 -3.40035,-6.539682 0,-0.634248 -1.2,-2.239164 -2.666666,-3.566479 C 41.2,18.006019 40,17.54636 40,18.311869 c 0,0.765509 -1.046502,1.308502 -2.32556,1.20665 -1.357985,-0.108137 -3.164736,1.47906 -4.342512,3.814815 -1.109323,2.2 -3.448434,6.309346 -5.198024,9.13188 -3.36666,5.431276 -4.970139,12.868121 -2.774532,12.868121 1.997182,0 1.556116,3.941655 -0.692705,6.190476 -1.272113,1.272113 -2,4.55905 -2,9.031446 0,8.517349 2.206411,11.080125 10.868074,12.62341 0.477441,0.08507 3.803621,-3.295331 7.391513,-7.511998 z M 77.333333,132 c 0,-0.73333 0.635411,-1.33333 1.412023,-1.33333 0.776612,0 1.041202,0.6 0.587977,1.33333 -0.453225,0.73334 -1.088635,1.33334 -1.412022,1.33334 -0.323388,0 -0.587978,-0.6 -0.587978,-1.33334 z"
       id="path1" />
  </g>
</svg>
