<?xml version="1.0" encoding="UTF-8" standalone="no"?>
<!-- Created with Inkscape (http://www.inkscape.org/) -->

<svg
   version="1.1"
   id="svg1"
   width="85.333336"
   height="146.66667"
   viewBox="0 0 85.333336 146.66667"
   xmlns="http://www.w3.org/2000/svg"
   xmlns:svg="http://www.w3.org/2000/svg">
  <defs
     id="defs1" />
  <g
     id="g1">
    <path
       style="fill:#000000"
       d="m 21.740392,143.10924 c -1.609451,-0.33479 -2.671743,-1.32133 -2.360649,-2.19231 0.311095,-0.87097 -2.324611,-3.54091 -5.857125,-5.93319 -7.8615848,-5.32401 -10.1487035,-9.22836 -8.9982266,-15.36093 1.2324194,-6.56936 4.5945353,-9.30464 8.8451476,-7.19604 2.591139,1.28538 3.384328,2.83022 3.704373,7.21475 0.528088,7.23468 6.124866,12.38659 13.361723,12.29964 6.321609,-0.076 16.128882,-2.6901 20.29419,-5.40945 1.798597,-1.17423 5.558135,-2.95849 8.354528,-3.96502 6.37566,-2.29485 7.911899,-4.12261 6.889363,-8.19672 -1.258539,-5.01442 -14.368157,-18.104598 -21.124635,-21.09331 -3.335537,-1.475467 -6.841119,-3.440891 -7.79018,-4.367608 -0.949062,-0.926718 -4.425567,-2.944507 -7.725567,-4.483976 -3.3,-1.539468 -7.142993,-4.064893 -8.539983,-5.612054 -1.396991,-1.54716 -3.226458,-2.813019 -4.065483,-2.813019 -3.384494,0 -5.964506,-18.698417 -3.219538,-23.333335 0.434306,-0.733333 1.163009,-2.89956 1.619338,-4.813837 C 17.54783,37.700384 38.987445,12.18647 50.000001,6.3534979 c 7.568842,-4.0089547 18.658436,-3.720763 22.654427,0.5887338 5.611167,6.0513913 5.314585,9.3456213 -1.579624,17.5453993 -7.03298,8.364826 -9.168532,8.231578 -10.59048,-0.660793 -0.969455,-6.062638 -3.233769,-6.594767 -10.306087,-2.421997 -7.460307,4.401688 -21.281202,23.130374 -24.688966,33.456 -2.745424,8.318718 1.253178,13.6918 15.982684,21.476569 3.376241,1.784395 7.768607,4.388458 9.760813,5.786807 5.171216,3.629728 19.916355,14.935815 21.087839,16.169461 5.049502,5.317442 7.819085,10.353282 8.524493,15.499792 0.749892,5.47106 0.399952,6.60092 -3.614177,11.66917 -2.444454,3.08638 -8.451394,8.20367 -13.348757,11.37175 l -8.904296,5.76016 -15.155601,0.56171 c -8.335581,0.30894 -16.472426,0.28778 -18.081877,-0.047 z"
       id="path1" />
  </g>
</svg>
