<?xml version="1.0" encoding="UTF-8" standalone="no"?>
<!-- Created with Inkscape (http://www.inkscape.org/) -->

<svg
   version="1.1"
   id="svg1"
   width="121.33333"
   height="148"
   viewBox="0 0 121.33333 148"
   xmlns="http://www.w3.org/2000/svg"
   xmlns:svg="http://www.w3.org/2000/svg">
  <defs
     id="defs1" />
  <g
     id="g1">
    <path
       style="fill:#000000"
       d="m 68.266664,142.4 c -1.969423,-1.96942 -2.115729,-12.0176 -0.202834,-13.9305 0.973998,-0.974 0.897245,-2.49437 -0.253415,-5.01979 -1.287358,-2.82545 -1.305065,-4.91448 -0.08047,-9.49312 1.117653,-4.17878 1.170224,-6.92228 0.182427,-9.52038 -0.763229,-2.00745 -1.003005,-5.926819 -0.532837,-8.709721 0.520183,-3.078939 0.328219,-5.059822 -0.49034,-5.059822 -0.739856,0 -1.647303,-4.35 -2.01655,-9.666667 C 64.503404,75.683333 63.805758,69.233333 63.322327,66.666667 62.838896,64.1 62.487791,58.816813 62.542092,54.926252 c 0.0543,-3.890561 -0.738498,-9.077518 -1.761777,-11.526571 -1.288945,-3.084879 -1.434191,-4.879141 -0.472794,-5.840538 0.961397,-0.961397 0.717708,-2.057721 -0.793238,-3.568667 -1.199524,-1.199524 -2.180952,-2.738095 -2.180952,-3.419047 0,-1.367796 -13.600947,-1.666001 -18.318336,-0.401636 -1.641752,0.440026 -2.695198,1.268962 -2.340991,1.842081 1.123643,1.818094 -3.739431,2.822632 -5.002247,1.033286 C 30.714358,31.688575 30.323308,31.679203 29.78738,33 c -0.371949,0.916667 -1.457686,1.666667 -2.41275,1.666667 -0.955063,0 -3.431903,0.879596 -5.504088,1.954658 -4.42024,2.293249 -9.33201,1.455505 -13.4680453,-2.297086 C 1.9912855,28.507398 3.7146195,17.628191 11.333333,15.82221 c 2.2,-0.521499 7.148412,-1.840111 10.996472,-2.930248 4.012491,-1.13672 7.315869,-1.465272 7.745355,-0.770348 1.220651,1.975054 29.02594,1.496323 31.821555,-0.547881 C 64.801449,9.4497395 110.2773,10.104964 113,12.310039 c 2.742,2.220713 1.9667,6.244414 -1.33334,6.919832 -6.84319,1.400596 -24.163766,3.438208 -29.387794,3.457213 -9.936171,0.03615 -9.78172,-0.518085 -7.116137,25.535636 1.298203,12.688785 2.95264,23.436561 3.676527,23.883948 0.723886,0.447387 1.560423,6.456408 1.85897,13.353381 0.298547,6.896973 0.943032,17.339951 1.43219,23.206621 0.489158,5.86666 0.823758,12.16666 0.743555,14 -0.0802,1.83333 -0.152507,6.43332 -0.160676,10.2222 -0.0097,4.49046 -0.749859,7.62388 -2.12598,9 -2.486677,2.48668 -10.032078,2.7997 -12.320651,0.51113 z"
       id="path1" />
  </g>
</svg>
