<?xml version="1.0" encoding="UTF-8" standalone="no"?>
<!-- Created with Inkscape (http://www.inkscape.org/) -->

<svg
   version="1.1"
   id="svg1"
   width="104"
   height="134.66667"
   viewBox="0 0 104 134.66667"
   xmlns="http://www.w3.org/2000/svg"
   xmlns:svg="http://www.w3.org/2000/svg">
  <defs
     id="defs1" />
  <g
     id="g1">
    <path
       style="fill:#000000"
       d="m 30.666667,125.83026 c -2.792754,-1.0991 -11.797281,-11.2741 -12.829281,-14.49692 -0.469649,-1.46667 -1.892085,-4.16667 -3.160969,-6 C 13.407534,103.5 11.580221,97.800004 10.615722,92.66667 9.6512224,87.533337 8.2181171,82.491176 7.4310433,81.461868 6.5310386,80.284873 5.9032885,68.657544 5.7393818,50.128533 5.5165631,24.939755 5.8254196,19.603056 7.8688694,13.333334 L 10.258975,6.0000002 16.309109,5.5998897 c 5.687985,-0.3761608 6.134993,-0.1566819 7.467819,3.6666668 0.779728,2.2367275 2.048898,4.0667775 2.820379,4.0667775 2.166086,0 1.657654,4.950192 -0.597307,5.815502 -1.1,0.42211 -2,1.721713 -2,2.888008 0,1.166294 0.544045,1.784297 1.208988,1.37334 0.664944,-0.410958 0.914593,0.378573 0.554777,1.754514 -0.359817,1.37594 -1.614875,2.426768 -2.789019,2.335173 -1.400425,-0.109247 -2.511667,1.438816 -3.230315,4.50013 -1.552567,6.613665 -1.301823,34.584307 0.378648,42.238343 0.776249,3.535579 1.703318,8.528326 2.060154,11.094993 0.356835,2.566666 1.136879,5.866666 1.73343,7.333333 0.596551,1.466667 1.725173,4.269897 2.508048,6.229401 2.172071,5.436599 9.84189,14.437269 12.302562,14.437269 0.766666,0 2.936471,-1.65 4.821788,-3.66667 13.543981,-14.487589 15.871745,-16.469356 18.722416,-15.939527 2.175823,0.404401 3.320524,-0.354213 4.411919,-2.92386 2.907141,-6.844747 4.658578,-9.504581 6.681269,-10.146558 1.4058,-0.446183 2.140386,-2.609971 2.324834,-6.847999 0.195672,-4.495944 1.006841,-6.712058 2.956742,-8.077821 2.619407,-1.834704 3.733673,-5.730903 1.638969,-5.730903 -1.302261,0 -1.114503,-8.246152 0.23757,-10.433853 1.08823,-1.760794 -1.587512,-15.967396 -3.474484,-18.447444 -0.704272,-0.925626 -0.615706,-1.895347 0.220293,-2.412023 0.768943,-0.475233 1.398078,-1.76406 1.398078,-2.86406 0,-1.1 -0.650458,-1.597995 -1.445461,-1.106656 -0.920201,0.568716 -1.283587,-0.25059 -1,-2.254644 0.365647,-2.583962 1.350616,-3.222687 5.497389,-3.564904 3.960854,-0.326874 5.607059,0.249051 7.622308,2.666667 1.413708,1.69597 2.59034,4.090725 2.614738,5.321678 0.0244,1.230952 0.903158,3.096895 1.952802,4.146538 2.215459,2.21546 4.204549,18.921269 2.09785,17.619257 -0.835256,-0.516217 -1.339626,1.933068 -1.339626,6.505399 0,4.033333 -0.601623,7.705157 -1.336939,8.159607 -0.850437,0.525599 -0.884291,1.672056 -0.09303,3.150532 0.755093,1.410905 0.764533,3.081958 0.02402,4.252416 -0.670935,1.060487 -1.22907,3.88403 -1.240299,6.274541 -0.01257,2.677057 -1.04461,5.223325 -2.687084,6.629655 -1.466666,1.255799 -2.666666,3.284882 -2.666666,4.509072 0,1.262203 -1.443075,2.587991 -3.333334,3.062415 C 81.5,91.674333 80,92.893343 80,93.923106 c 0,1.029763 -1.5,3.654946 -3.333333,5.833739 -1.833334,2.178795 -3.333334,4.884395 -3.333334,6.012445 0,1.12806 -1.101213,2.40053 -2.44714,2.82771 -1.345927,0.42718 -4.795927,2.91599 -7.666667,5.53068 -9.167547,8.34989 -14.669384,11.20228 -22.893249,11.86885 -4.212786,0.34146 -8.55961,0.26664 -9.65961,-0.16627 z M 76.765608,43.110378 c -0.469165,-1.222626 -0.233359,-2.842626 0.524015,-3.6 0.947169,-0.947169 1.377044,-0.253224 1.377044,2.222957 0,4.113134 -0.666,4.595555 -1.901059,1.377043 z"
       id="path1" />
  </g>
</svg>
