<?xml version="1.0" encoding="UTF-8" standalone="no"?>
<!-- Created with Inkscape (http://www.inkscape.org/) -->

<svg
   version="1.1"
   id="svg1"
   width="112"
   height="124"
   viewBox="0 0 112 124"
   sodipodi:docname="v.png"
   xmlns:inkscape="http://www.inkscape.org/namespaces/inkscape"
   xmlns:sodipodi="http://sodipodi.sourceforge.net/DTD/sodipodi-0.dtd"
   xmlns="http://www.w3.org/2000/svg"
   xmlns:svg="http://www.w3.org/2000/svg">
  <defs
     id="defs1" />
  <sodipodi:namedview
     id="namedview1"
     pagecolor="#ffffff"
     bordercolor="#000000"
     borderopacity="0.25"
     inkscape:showpageshadow="2"
     inkscape:pageopacity="0.0"
     inkscape:pagecheckerboard="0"
     inkscape:deskcolor="#d1d1d1">
    <inkscape:page
       x="0"
       y="0"
       width="112"
       height="124"
       id="page2"
       margin="0"
       bleed="0" />
  </sodipodi:namedview>
  <g
     inkscape:groupmode="layer"
     inkscape:label="Image"
     id="g1">
    <path
       style="fill:#000000"
       d="m 49.22363,120.50839 c -0.391204,-1.01946 -1.630111,-1.85357 -2.753127,-1.85357 -1.123015,0 -2.066231,-0.75 -2.096034,-1.66666 -0.0298,-0.91667 -1.829803,-3.74401 -4,-6.28297 -2.170197,-2.53897 -3.945812,-5.42438 -3.945812,-6.41202 0,-1.01784 -0.666825,-1.3836 -1.539345,-0.84436 -0.891588,0.55103 -1.179693,0.36944 -0.68466,-0.43154 0.470077,-0.7606 -0.396581,-4.903303 -1.925907,-9.206009 -1.529326,-4.302706 -3.25436,-9.623102 -3.83341,-11.823102 -0.57905,-2.2 -3.819651,-11.8 -7.201335,-21.333334 -3.381684,-9.533333 -6.148553,-18.563333 -6.148597,-20.066666 -4.4e-5,-1.503334 -0.495751,-3.303334 -1.101573,-4 -0.605821,-0.696667 -1.929491,-3.966667 -2.941491,-7.266667 -1.011998,-3.3 -2.9688962,-8.605371 -4.3486622,-11.789714 -2.495493,-5.759315 -2.493789,-5.805548 0.324602,-8.8055881 2.026454,-2.1570615 3.8632282,-2.8355336 6.4501562,-2.3825748 6.827847,1.1955235 8.884199,5.1064389 12.790937,24.3267109 2.010554,9.891475 4.518892,19.313389 5.574085,20.937588 1.055193,1.624199 1.918533,4.138789 1.918533,5.587978 0,1.449188 0.6,3.005708 1.333333,3.458933 0.733334,0.453225 1.333334,2.288635 1.333334,4.07869 0,1.790054 0.476234,3.254644 1.058298,3.254644 0.582064,0 1.859752,3.612603 2.839306,8.028008 0.979555,4.415404 2.221016,8.299947 2.758804,8.632318 0.537787,0.332371 1.738076,3.319768 2.667308,6.638659 0.929232,3.318891 2.211537,6.034348 2.849565,6.034348 0.638029,0 1.173394,0.75 1.1897,1.666667 0.01631,0.916666 1.108833,3.069621 2.427837,4.784351 2.346411,3.05037 2.510243,3.07086 7.588221,0.94915 7.209905,-3.0125 9.592289,-5.486469 14.169524,-14.714279 2.18776,-4.410572 4.83432,-8.966467 5.88126,-10.12421 1.04693,-1.157743 1.90351,-3.431646 1.90351,-5.053117 0,-1.621472 1.22258,-5.344587 2.71685,-8.273589 2.241,-4.392727 2.48415,-6.168212 1.38826,-10.137181 -0.8807,-3.189656 -0.88181,-5.646523 -0.003,-7.28809 0.72892,-1.362003 0.91121,-2.476369 0.40509,-2.476369 -0.50613,0 0.14311,-1.174984 1.44276,-2.611077 1.70766,-1.88694 2.50596,-5.464736 2.8785,-12.900743 0.55851,-11.147844 2.63103,-15.154846 7.83847,-15.154846 4.59795,0 7.33334,4.112897 7.33334,11.026298 0,3.382311 -0.5177,6.46961 -1.15044,6.860664 -1.82944,1.13066 -4.18269,11.353305 -4.78347,20.779704 -0.50232,7.881974 -3.52307,21.931422 -6.16354,28.666667 -0.57499,1.466667 -2.07063,5.919406 -3.32363,9.894976 -1.40471,4.456885 -4.36019,9.486992 -7.70835,13.119322 -5.24026,5.68501 -16.045255,12.31903 -20.06431,12.31903 -1.071998,0 -2.741944,0.75354 -3.710992,1.67453 -2.4349,2.31415 -8.769105,2.43187 -9.633598,0.17904 z"
       id="path1" />
  </g>
</svg>
