<?xml version="1.0" encoding="UTF-8" standalone="no"?>
<!-- Created with Inkscape (http://www.inkscape.org/) -->

<svg
   version="1.1"
   id="svg1"
   width="97.399811"
   height="96.138283"
   viewBox="0 0 97.399811 96.138283"
   xmlns="http://www.w3.org/2000/svg"
   xmlns:svg="http://www.w3.org/2000/svg">
  <defs
     id="defs1" />
  <g
     id="g1"
     transform="translate(-28.347927,-10.42458)">
    <path
       style="fill:#000000;stroke-width:0.813623"
       d="m 87.948014,106.51669 c -2.618001,-0.32582 -4.136324,-1.65598 -6.840492,-5.99276 -1.911591,-3.065693 -3.47562,-6.096861 -3.47562,-6.735925 0,-0.639064 -1.390164,-4.022708 -3.089254,-7.519207 -1.69909,-3.4965 -3.089255,-7.577814 -3.089255,-9.069586 0,-3.725826 -0.896538,-6.930414 -1.9389,-6.930414 -1.267536,0 -3.978713,5.126389 -6.41293,12.125795 -2.439233,7.013824 -5.718469,10.779038 -9.608127,11.032037 -2.336989,0.152007 -3.283916,-0.984704 -7.073493,-8.491166 -2.406413,-4.766666 -4.738674,-8.5018 -5.182802,-8.300298 -0.444128,0.201503 -0.540478,-0.286305 -0.214111,-1.084017 0.704245,-1.721333 -2.12701,-6.866853 -3.217965,-5.848326 -0.415015,0.387462 -0.533448,-0.165997 -0.263187,-1.229907 0.270262,-1.063911 0.06712,-2.330484 -0.451432,-2.814607 -0.518549,-0.484123 -0.942817,-2.051352 -0.942817,-3.482732 0,-1.43138 -0.781906,-5.145969 -1.73757,-8.254644 -2.488357,-8.094368 -4.500129,-20.83164 -3.879865,-24.564859 0.350739,-2.111015 -0.01607,-4.107564 -1.08134,-5.885717 -1.228786,-2.0511 -1.389905,-3.22727 -0.67757,-4.946274 1.046452,-2.525291 5.611057,-3.889682 5.611057,-1.677182 0,0.782043 0.571448,1.421897 1.269884,1.421897 0.841362,0 1.474629,2.137178 1.876628,6.333333 0.33371,3.483333 0.918289,6.933333 1.299065,7.666667 0.380775,0.733333 0.97954,3.733333 1.330589,6.666666 0.351048,2.933334 1.191171,6.983334 1.866939,9 0.675768,2.016667 0.97124,3.666667 0.656605,3.666667 -0.314635,0 -0.04435,0.960529 0.60063,2.134509 0.644981,1.17398 1.245264,2.881443 1.333962,3.794363 0.0887,0.91292 1.496272,4.365362 3.127941,7.672095 1.63167,3.306732 3.38418,7.094258 3.894467,8.416724 1.62771,4.218394 5.45383,1.603598 6.535875,-4.466661 0.535396,-3.003562 1.739076,-5.761432 2.93744,-6.730255 1.116686,-0.902791 3.076378,-4.257503 4.354871,-7.454914 1.401127,-3.504111 3.592439,-6.722352 5.516295,-8.101435 3.05818,-2.192203 3.245361,-2.182837 4.472413,0.223807 0.704358,1.381472 1.493405,4.011767 1.753437,5.8451 0.260032,1.833334 0.904084,5.133334 1.431225,7.333334 0.527142,2.2 1.156698,5.65 1.399014,7.666666 0.242315,2.016667 0.792682,3.666667 1.223037,3.666667 0.430356,0 0.791297,1.95 0.802091,4.333333 0.0108,2.383334 0.796343,5.833334 1.745662,7.666667 0.94932,1.833333 1.734867,4.009867 1.745662,4.83674 0.0108,0.826874 0.534098,2.148399 1.162897,2.936722 1.582826,1.984386 8.110297,-1.450865 8.11846,-4.272548 0.0033,-1.147638 2.289872,-5.404225 5.081236,-9.459082 3.123134,-4.536804 5.075204,-8.486492 5.075204,-10.268829 0,-1.592999 0.52521,-3.843606 1.16713,-5.001349 1.31276,-2.367621 2.73675,-9.278349 4.12743,-20.030683 1.12546,-8.701716 5.14529,-22.732807 6.52102,-22.761388 0.54052,-0.01123 0.38698,-0.594149 -0.3412,-1.295378 -1.78502,-1.718949 -0.20583,-5.570817 2.98886,-7.290252 1.99287,-1.0725936 2.67243,-0.758115 4.3218,2 2.06933,3.460388 2.63016,10.96523 1.09151,14.606047 -0.46488,1.1 -0.72477,3.407589 -0.57753,5.127976 0.14857,1.736037 -0.50795,4.406018 -1.47534,6 -0.95867,1.579613 -2.16252,5.90263 -2.67522,9.606704 -1.37695,9.947936 -13.20379,38.928253 -20.372478,49.92041 -3.686451,5.652649 -8.083524,8.724719 -11.821838,8.259469 z"
       id="path1" />
  </g>
</svg>
