<?xml version="1.0" encoding="UTF-8" standalone="no"?>
<!-- Created with Inkscape (http://www.inkscape.org/) -->

<svg
   version="1.1"
   id="svg1"
   width="84"
   height="112"
   viewBox="0 0 84 112"
   xmlns="http://www.w3.org/2000/svg"
   xmlns:svg="http://www.w3.org/2000/svg">
  <defs
     id="defs1" />
  <g
     id="g1">
    <path
       style="fill:#000000"
       d="m 12.992306,105.30275 c -2.73787,-1.59446 -2.444163,-3.46562 3.017221,-19.222229 3.926986,-11.329729 6.836536,-18.36636 10.788487,-26.091529 2.043571,-3.994719 2.193253,-5.543082 0.932857,-9.649826 -0.825706,-2.690397 -2.602941,-6.074121 -3.949411,-7.519387 -1.34647,-1.445266 -2.448127,-3.204491 -2.448127,-3.909391 0,-0.704899 -3.117836,-4.779987 -6.928525,-9.055751 -3.81069,-4.275764 -8.1606898,-9.213009 -9.6666668,-10.971655 l -2.738141,-3.197539 3.065569,0.756526 c 2.559493,0.631636 2.999716,0.279051 2.666666,-2.135795 -0.312351,-2.264762 0.370127,-2.981299 3.1454388,-3.302413 2.847366,-0.32945 5.165425,1.243707 11.78807,8 4.534051,4.625551 8.774247,9.760093 9.422658,11.410093 1.734898,4.414765 4.627918,3.659956 7.264029,-1.895235 3.574361,-7.532408 13.835478,-20.8988807 17.566688,-22.8829526 1.839215,-0.9780034 4.731232,-1.4300219 6.426703,-1.0044856 3.689494,0.9260041 12.65418,9.3280862 12.65418,11.8600322 0,2.475192 -4.88487,6.788977 -11.871943,10.484004 -4.713014,2.49242 -6.868458,4.947394 -10.921003,12.438637 -2.776985,5.133333 -5.084611,10.123625 -5.12806,11.089536 -0.04345,0.965912 1.871004,3.669785 4.254337,6.008607 9.960849,9.774821 16.424363,19.200523 19.775009,28.83777 1.5168,4.362696 2.91965,6.183628 5,6.490155 3.1425,0.463028 3.67881,2.945104 1.51141,6.994918 -0.94818,1.77169 -2.79609,2.57901 -5.90322,2.57901 -4.627107,0 -6.504082,-1.6397 -11.678338,-10.202016 -4.650686,-7.695922 -5.785663,-9.207149 -9.611672,-12.79798 -2.258187,-2.11938 -3.130294,-3.666667 -2.066667,-3.666667 2.87786,0 -0.349449,-2.625194 -4.119997,-3.351335 -1.777078,-0.342234 -3.433032,-1.228188 -3.679899,-1.968787 -0.246866,-0.7406 -0.939582,-1.346544 -1.539369,-1.346544 -1.611057,0 -6.59338,8.930948 -8.875362,15.909323 -2.981405,9.117239 -5.500193,14.18231 -9.295886,18.693226 -3.649184,4.33681 -5.147537,4.77998 -8.857036,2.61968 z M 22,53.413854 c 0.453225,-0.733333 1.088635,-1.333333 1.412023,-1.333333 0.323387,0 0.587977,0.6 0.587977,1.333333 0,0.733333 -0.63541,1.333333 -1.412023,1.333333 -0.776612,0 -1.041202,-0.6 -0.587977,-1.333333 z M 10.861637,32.642641 C 10.02107,30.797797 9.3333332,28.643144 9.3333332,27.854524 c 0,-2.266538 3.6030658,1.230782 4.3974068,4.268347 1.034541,3.956089 -1.125145,4.34734 -2.869103,0.51977 z m 67.360585,1.215657 c -0.48889,-0.488888 -0.88889,-2.168888 -0.88889,-3.733333 0,-1.564444 -0.71,-3.554444 -1.57778,-4.422222 -2.49457,-2.494573 -0.0883,-3.584266 3.57979,-1.621147 2.52933,1.353655 3.33132,2.852102 3.33132,6.224231 0,4.178232 -2.1223,5.874607 -4.44444,3.552471 z M 4.0000002,25.413854 c -1.133072,-2.117165 -1.013987,-2.666667 0.577908,-2.666667 1.322341,0 1.715162,0.755477 1.15366,2.218727 -0.618198,1.611001 -0.367703,1.919783 0.914525,1.127322 1.174982,-0.726179 1.447565,-0.576281 0.814562,0.44794 -1.308295,2.116866 -1.812283,1.95269 -3.460655,-1.127322 z"
       id="path1" />
  </g>
</svg>
