<?xml version="1.0" encoding="UTF-8" standalone="no"?>
<!-- Created with Inkscape (http://www.inkscape.org/) -->

<svg
   version="1.1"
   id="svg1"
   width="82.839729"
   height="126.64633"
   viewBox="0 0 82.839731 126.64633"
   xmlns="http://www.w3.org/2000/svg"
   xmlns:svg="http://www.w3.org/2000/svg">
  <defs
     id="defs1" />
  <g
     id="g1"
     transform="translate(-7.8435982,-4.0094734)">
    <path
       style="fill:#000000"
       d="m 40.547012,128.05914 c -1.302597,-1.43936 -2.01442,-3.53936 -1.58183,-4.66667 0.432591,-1.12731 1.341888,-2.04966 2.020659,-2.04966 0.678772,0 1.300447,-1.35 1.381499,-3 0.08105,-1.65 0.446811,-5.4 0.812798,-8.33333 0.365986,-2.93334 1.157041,-8.03334 1.757899,-11.333344 0.600858,-3.299997 1.90482,-8.210496 2.897694,-10.912217 1.482815,-4.034908 1.495768,-5.285095 0.07252,-7 -0.952986,-1.148279 -3.193066,-2.08778 -4.977956,-2.08778 -2.153157,0 -5.396276,-2.243474 -9.637192,-6.666666 -3.515565,-3.666667 -7.016689,-6.666667 -7.780274,-6.666667 -0.763585,0 -1.772126,-1.529137 -2.241201,-3.398082 -0.469075,-1.868945 -2.63412,-7.075273 -4.81121,-11.569618 -2.177091,-4.494345 -3.958347,-8.965208 -3.958347,-9.935251 0,-0.970044 -0.6,-1.763716 -1.333333,-1.763716 -0.733333,0 -1.333333,-0.831416 -1.333333,-1.84759 0,-1.016175 -0.896304,-3.566175 -1.991786,-5.666667 -1.095482,-2.100492 -1.9954824,-5.695609 -2.0000004,-7.98915 -0.0045,-2.29354 0.7417864,-4.770107 1.6584534,-5.503481 0.916666,-0.733375 2.866666,-1.698216 4.333333,-2.144092 2.181126,-0.663076 3.091514,0.22015 5,4.850825 1.283333,3.113829 2.333333,6.331737 2.333333,7.150905 0,0.819169 0.827691,2.17632 1.839313,3.015893 1.011623,0.839572 2.170467,3.182259 2.575209,5.205972 0.404743,2.023713 2.532879,7.561868 4.729192,12.307013 2.196313,4.745144 5.91382,10.875923 8.261128,13.623954 2.47124,2.89312 5.459291,4.987824 7.098161,4.976001 1.556681,-0.01123 3.442541,-0.461229 4.190801,-1 0.74826,-0.53877 2.24826,-2.733123 3.333333,-4.87634 1.085074,-2.143217 2.565138,-4.993217 3.289032,-6.333333 0.723894,-1.340117 1.953414,-2.436576 2.732266,-2.436576 0.809283,0 1.206094,-1.856878 0.926024,-4.333334 -0.279323,-2.469839 0.666318,-6.913556 2.198974,-10.333333 1.478975,-3.3 3.919985,-6.755084 5.424475,-7.677965 1.86686,-1.145169 2.73542,-3.075245 2.73542,-6.078494 0,-2.420291 0.88092,-5.565206 1.9576,-6.988701 1.07668,-1.423496 1.97668,-3.525338 2,-4.670762 0.0233,-1.145424 1.81811,-3.3954236 3.98841,-4.9999996 2.17031,-1.6045762 4.59758,-2.9174113 5.39394,-2.9174113 0.79636,0 2.82104,1.3731125 4.49929,3.0513611 2.15848,2.1584742 2.76343,3.8166488 2.06737,5.6666658 -0.5412,1.438419 -2.24159,6.677905 -3.77864,11.643305 -1.53705,4.965399 -2.79463,10.095399 -2.79463,11.4 0,1.3046 -0.59175,2.963746 -1.31499,3.686989 -0.72325,0.723244 -2.50784,5.978987 -3.96577,11.679429 -1.45793,5.700442 -3.86618,12.071319 -5.35168,14.157505 -1.48549,2.086186 -2.7009,4.945855 -2.7009,6.35482 0,1.408965 -1.46887,3.941692 -3.26417,5.628282 -1.79529,1.68659 -3.632805,4.941179 -4.083363,7.232419 -0.450559,2.29124 -1.376443,5.66589 -2.05752,7.499224 -0.681078,1.833333 -1.453424,4.533333 -1.716324,6.000003 -0.262901,1.46666 -0.784518,3.566664 -1.15915,4.666664 -0.374631,1.1 -1.726932,5.1553 -3.005113,9.01177 -1.278181,3.85647 -1.963955,7.94993 -1.523942,9.09659 0.440012,1.14665 0.112352,3.39136 -0.728135,4.98823 -0.840486,1.59688 -2.188334,3.34423 -2.995218,3.883 -0.806884,0.53877 -2.724069,0.98877 -4.260411,1 -1.536342,0.0112 -3.859111,-1.15724 -5.161708,-2.59659 z M 42.50207,88.088162 c 0,-0.690054 0.593127,-1.621217 1.318061,-2.06925 0.755813,-0.467119 0.979343,0.06808 0.524015,1.254644 -0.436726,1.138087 -1.029853,2.06925 -1.318061,2.06925 -0.288208,0 -0.524015,-0.56459 -0.524015,-1.254644 z m 0.676106,-5.39675 c -0.467119,-0.755814 0.06808,-0.979343 1.254644,-0.524015 1.138087,0.436725 2.06925,1.029853 2.06925,1.318061 0,0.288208 -0.56459,0.524015 -1.254644,0.524015 -0.690054,0 -1.621217,-0.593128 -2.06925,-1.318061 z M 33.168737,78.009473 c 0,-0.366667 0.3,-0.666667 0.666667,-0.666667 0.366666,0 0.666666,0.3 0.666666,0.666667 0,0.366666 -0.3,0.666666 -0.666666,0.666666 -0.366667,0 -0.666667,-0.3 -0.666667,-0.666666 z m -11.999999,-12 c 0,-0.366667 0.3,-0.666667 0.666666,-0.666667 0.366667,0 0.666667,0.3 0.666667,0.666667 0,0.366666 -0.3,0.666666 -0.666667,0.666666 -0.366666,0 -0.666666,-0.3 -0.666666,-0.666666 z"
       id="path1" />
  </g>
</svg>
