<?xml version="1.0" encoding="UTF-8" standalone="no"?>
<!-- Created with Inkscape (http://www.inkscape.org/) -->

<svg
   version="1.1"
   id="svg1"
   width="168"
   height="133.33333"
   viewBox="0 0 168 133.33333"
   xmlns="http://www.w3.org/2000/svg"
   xmlns:svg="http://www.w3.org/2000/svg">
  <defs
     id="defs1" />
  <g
     id="g1">
    <path
       style="fill:#000000"
       d="m 163.22794,124.8248 c 0,-1.14328 0.60979,-1.70182 1.35509,-1.2412 0.74529,0.46062 1.00988,1.39603 0.58797,2.07869 -1.14298,1.84939 -1.94306,1.50455 -1.94306,-0.83749 z m -25.81336,-2.95265 c -0.46514,-0.75262 -3.69742,-1.37453 -7.18284,-1.38203 -3.48542,-0.008 -9.93713,-0.41574 -14.33713,-0.9072 -6.01033,-0.67133 -7.50258,-0.52526 -6,0.58734 1.61049,1.19249 1.35082,1.35833 -1.33333,0.85153 -9.54972,-1.80309 -20.58347,-2.13254 -24.801287,-0.74054 -3.87224,1.27796 -5.199815,1.15806 -8.081065,-0.7298 -2.78484,-1.8247 -4.085424,-1.96838 -6.765206,-0.74739 -2.378027,1.0835 -3.808097,1.10448 -5.049637,0.0741 -1.078215,-0.89484 -2.03054,-0.95455 -2.52273,-0.15817 -0.434866,0.70363 -1.838283,1.10982 -3.118704,0.90265 -1.280421,-0.20718 -2.928039,0.0522 -3.661372,0.57631 -0.733334,0.52414 -3.89358,0.68309 -7.022771,0.35321 -5.488067,-0.57854 -5.672745,-0.74811 -5.217817,-4.79089 0.259391,-2.30511 1.619637,-6.3628 3.02277,-9.01709 6.966664,-13.178767 9.04309,-16.720564 11.241022,-19.174023 1.313915,-1.466667 4.016165,-5.666666 6.005,-9.333333 1.988836,-3.666667 6.200018,-9.366666 9.358184,-12.666666 3.158165,-3.3 7.286959,-8.937022 9.175098,-12.526715 1.888139,-3.589693 3.951492,-7.189693 4.58523,-8 0.633738,-0.810306 1.513073,-2.990441 1.954078,-4.844744 0.618705,-2.601482 0.127803,-3.726502 -2.149484,-4.926063 -11.772354,-6.201088 -13.534092,-6.620114 -29.95131,-7.123862 -4.583334,-0.140635 -8.333334,-0.778356 -8.333334,-1.417158 0,-0.638801 -0.63541,-1.161457 -1.412022,-1.161457 -0.776613,0 -0.983908,0.692705 -0.460656,1.539345 0.590719,0.955802 0.365618,1.177332 -0.593799,0.584379 -0.849842,-0.525231 -3.893829,0.732064 -6.764415,2.793989 -3.830976,2.751766 -5.351825,4.881593 -5.717671,8.007142 -0.416808,3.560924 0.01453,4.38693 2.634157,5.044415 2.501594,0.62786 2.954212,1.381562 2.247062,3.741812 -0.487035,1.625571 -1.721124,3.834155 -2.74242,4.907965 -1.610953,1.693785 -1.856902,1.483455 -1.856902,-1.587977 0,-1.947197 -0.652271,-3.943484 -1.449491,-4.436193 -0.79722,-0.492709 -1.170761,-1.9617 -0.830091,-3.264425 0.340671,-1.302725 0.111249,-3.185009 -0.509825,-4.182855 -0.950655,-1.527362 -1.600494,-1.521977 -4.109359,0.03406 -2.540313,1.575538 -3.064335,1.575538 -3.550679,0 -0.3138,-1.016577 -3.641048,-4.841019 -7.393884,-8.498761 C 7.9819465,23.687733 4.0972715,16.330776 5.4732442,12.745049 c 0.3886692,-1.012856 1.2424781,-1.841556 1.897353,-1.841556 0.6548748,0 1.1906816,-0.63541 1.1906816,-1.4120228 0,-0.7766125 -0.6,-1.0412023 -1.3333334,-0.5879774 C 6.4946121,9.3567177 5.8946121,8.521942 5.8946121,7.0484357 c 0,-5.7764396 8.9146069,-6.21437328 15.2735249,-0.7503181 3.377266,2.901998 12.259516,5.2842094 16.814964,4.5097584 1.051331,-0.178732 2.811511,0.02026 3.911511,0.442212 3.911003,1.500222 12.924167,1.988392 15.023247,0.813687 1.314987,-0.735903 2.452072,-0.6759 2.966551,0.156544 0.458836,0.742413 3.648837,1.360123 7.088891,1.372691 7.678514,0.02805 24.025958,4.152744 29.781902,7.514396 9.405697,5.493226 11.117297,16.544594 4.152017,26.808515 -1.807308,2.663219 -4.574499,7.354484 -6.149312,10.425032 -4.588428,8.946454 -14.075229,21.856537 -23.228846,31.6109 -4.670103,4.9766 -8.252356,9.764586 -7.960561,10.639977 0.291794,0.87538 3.48454,2.66994 7.09499,3.98791 5.633934,2.05662 8.265471,2.22049 18.564454,1.15604 6.6,-0.68214 12.600005,-0.86588 13.333335,-0.4083 1.60806,1.00338 5.05795,1.14596 36.25137,1.49813 26.21701,0.29598 26.40269,0.34818 27.90173,7.84341 0.72236,3.61177 0.37857,4.3518 -2.53652,5.46011 -5.27263,2.00465 -25.77629,3.34 -26.76328,1.74302 z M 41.999875,99.459045 c 0.06398,-1.553257 0.379921,-1.869199 0.805556,-0.805555 0.385161,0.9625 0.337792,2.1125 -0.105263,2.55556 -0.443056,0.44305 -0.758188,-0.34445 -0.700293,-1.750005 z m 1.704261,-5.222222 c 1.1,-1.1 2.324026,-2 2.720058,-2 0.396032,0 0.374696,0.9 -0.04741,2 -0.42211,1.1 -1.646136,2 -2.720059,2 -1.693487,0 -1.687195,-0.265391 0.04741,-2 z"
       id="path1" />
  </g>
</svg>
