<?xml version="1.0" encoding="UTF-8" standalone="no"?>
<!-- Created with Inkscape (http://www.inkscape.org/) -->

<svg
   width="21.502014mm"
   height="22.201052mm"
   viewBox="0 0 21.502014 22.201052"
   version="1.1"
   id="svg1"
   xml:space="preserve"
   xmlns="http://www.w3.org/2000/svg"
   xmlns:svg="http://www.w3.org/2000/svg"><defs
     id="defs1" /><g
     id="layer1"
     transform="translate(-142.09365,-102.25881)"><path
       style="fill:#000000"
       d="m 159.83565,123.9896 c -0.14548,-0.27182 -0.59615,-0.56208 -1.0015,-0.64503 -1.50584,-0.30815 -1.69077,-0.6552 -1.93776,-3.6364 -0.12599,-1.52074 -0.35427,-3.93851 -0.50729,-5.37282 -0.21588,-2.02349 -0.2039,-2.74148 0.0535,-3.20427 0.86095,-1.54823 1.85038,-2.81284 2.51358,-3.21267 0.40068,-0.24156 1.23801,-0.78035 1.86072,-1.19731 0.62272,-0.41697 1.22213,-0.75812 1.33202,-0.75812 0.31288,0 1.15806,1.56396 1.38217,2.55761 0.12145,0.53852 0.0684,1.478 -0.13232,2.34129 -0.18434,0.79303 -0.27723,1.74498 -0.20641,2.11546 0.18816,0.98427 -0.45269,3.00094 -1.09782,3.45475 -0.50951,0.3584 -0.55879,0.64928 -0.56957,3.36214 -0.0146,3.67463 -0.0257,3.76328 -0.53626,4.27381 -0.54418,0.54418 -0.83022,0.52472 -1.15302,-0.0784 z m -17.45488,-2.6316 c -0.40241,-0.7519 -0.37447,-4.09313 0.0377,-4.50527 0.22108,-0.22108 0.33241,-1.2988 0.34029,-3.29406 0.013,-3.28689 0.14901,-3.70345 2.03517,-6.23158 0.60647,-0.81289 1.43428,-1.57252 1.94725,-1.78685 0.49077,-0.20506 1.06947,-0.71542 1.28601,-1.13415 0.48883,-0.9453 1.88697,-2.14728 2.49772,-2.14728 0.77567,0 3.21157,1.34905 3.65336,2.02331 0.55091,0.84079 0.32352,2.83474 -0.51504,4.51624 -0.46703,0.93651 -1.04822,1.53067 -2.32758,2.37953 -0.93783,0.62225 -1.97303,1.31635 -2.30045,1.54245 -0.9321,0.64366 -0.80428,1.85427 0.26458,2.50589 0.47295,0.28833 0.97896,0.56439 1.12448,0.61348 0.14552,0.0491 0.26459,0.49604 0.26459,0.99323 0,0.79419 0.0903,0.91435 0.74329,0.98923 0.98647,0.11312 0.81342,0.49946 -0.76322,1.70391 -2.15442,1.64583 -3.4153,2.135 -5.82979,2.26173 -1.9783,0.10384 -2.19281,0.0663 -2.45833,-0.42981 z"
       id="path4" /></g></svg>
