<?xml version="1.0" encoding="UTF-8" standalone="no"?>
<!-- Created with Inkscape (http://www.inkscape.org/) -->

<svg
   width="21.308203mm"
   height="17.699179mm"
   viewBox="0 0 21.308203 17.699179"
   version="1.1"
   id="svg1"
   xml:space="preserve"
   xmlns="http://www.w3.org/2000/svg"
   xmlns:svg="http://www.w3.org/2000/svg"><defs
     id="defs1" /><g
     id="layer1"
     transform="translate(-130.07813,-88.052387)"><path
       style="fill:#000000"
       d="m 144.78257,104.97094 c -0.59195,-1.1447 -0.50641,-1.48775 0.52237,-2.09474 l 0.92604,-0.54638 -0.0264,-2.32403 c -0.0331,-2.91486 -0.21248,-3.560027 -1.11019,-3.992537 -0.89423,-0.430833 -1.50927,-1.583509 -1.50927,-2.828573 0,-0.788247 0.13957,-1.028812 0.81356,-1.402202 1.7552,-0.972387 1.77878,-1.016021 0.83844,-1.55144 -1.00624,-0.572941 -1.06662,-0.933494 -0.2792,-1.667093 1.00474,-0.936054 2.51863,-0.570727 3.97097,0.95826 1.03928,1.094116 1.44689,2.278904 1.79794,5.226 0.17183,1.442481 0.42119,2.908792 0.55414,3.25847 0.15884,0.417771 0.13782,0.829921 -0.0613,1.201965 -0.16666,0.311403 -0.40491,1.57146 -0.52945,2.80013 -0.12453,1.22867 -0.37515,2.41328 -0.55692,2.63247 -0.55098,0.66443 -1.95259,1.11032 -3.49019,1.11032 -1.34574,0 -1.48772,-0.0596 -1.86058,-0.78062 z m -14.60252,-1.51529 c 0.10079,-0.62107 0.52532,-1.36271 1.17378,-2.05052 1.436,-1.523158 1.57807,-1.750576 1.78483,-2.856976 0.17563,-0.939889 0.1088,-1.064201 -1.43817,-2.675211 l -1.62236,-1.68952 0.17171,-1.558121 c 0.15233,-1.382375 0.50601,-2.555906 1.14737,-3.80708 0.46859,-0.914144 2.22195,-0.635605 3.59661,0.571355 1.47271,1.293062 2.51296,4.352133 3.04958,8.967901 0.2613,2.247632 0.2487,2.726572 -0.0851,3.236082 -0.80615,1.23035 -4.7859,2.83508 -7.03102,2.83508 -0.89492,0 -0.9033,-0.0109 -0.74718,-0.97299 z"
       id="path4" /></g></svg>
