<?xml version="1.0" encoding="UTF-8" standalone="no"?>
<!-- Created with Inkscape (http://www.inkscape.org/) -->

<svg
   width="9.4904089mm"
   height="19.012308mm"
   viewBox="0 0 9.4904089 19.012308"
   version="1.1"
   id="svg1"
   xml:space="preserve"
   xmlns="http://www.w3.org/2000/svg"
   xmlns:svg="http://www.w3.org/2000/svg"><defs
     id="defs1" /><g
     id="layer1"
     transform="translate(-146.85073,-107.43301)"><path
       style="fill:#000000"
       d="m 152.80385,126.20793 c -1.19073,-0.48625 -3.31953,-3.18159 -4.63108,-5.86357 -1.13956,-2.33028 -1.32204,-2.9228 -1.32204,-4.29272 0,-2.31166 0.49995,-4.81831 1.15483,-5.7901 0.72509,-1.07595 3.26572,-2.59389 4.65293,-2.77995 0.97368,-0.1306 1.15576,-0.0519 2.12646,0.91877 1.0391,1.0391 1.06118,1.10013 1.04148,2.87867 -0.0111,0.99939 -0.16997,2.23379 -0.3531,2.74311 -0.31586,0.87843 -0.40795,0.93284 -1.79132,1.05833 -1.56962,0.14239 -2.33337,0.57815 -2.33337,1.33132 0,0.89896 2.20138,3.7981 3.50945,4.62181 1.44989,0.91301 1.88282,1.86841 1.09363,2.41339 -1.01319,0.69966 -1.16349,0.93247 -1.16349,1.80206 0,1.13667 -0.70947,1.47949 -1.98438,0.95888 z"
       id="path4" /></g></svg>
