<?xml version="1.0" encoding="UTF-8" standalone="no"?>
<!-- Created with Inkscape (http://www.inkscape.org/) -->

<svg
   width="15.918521mm"
   height="35.662704mm"
   viewBox="0 0 15.918521 35.662704"
   version="1.1"
   id="svg1"
   xml:space="preserve"
   xmlns="http://www.w3.org/2000/svg"
   xmlns:svg="http://www.w3.org/2000/svg"><defs
     id="defs1" /><g
     id="layer1"
     transform="translate(-129.60686,-87.097942)"><path
       style="fill:#000000"
       d="m 136.44876,122.52658 c -0.29104,-0.12529 -0.84223,-0.29449 -1.22485,-0.376 -0.38263,-0.0815 -1.29256,-0.68483 -2.02207,-1.34072 -1.19571,-1.07505 -1.35445,-1.35192 -1.61136,-2.81043 -0.15674,-0.88984 -0.40302,-1.76012 -0.54729,-1.93396 -0.38684,-0.46611 -1.07672,-4.73065 -1.07672,-6.65578 0,-0.91823 -0.11774,-1.74228 -0.26165,-1.83122 -0.1631,-0.10081 -0.12056,-0.38071 0.11298,-0.74322 0.20604,-0.31983 0.56691,-2.01026 0.80195,-3.75651 0.59253,-4.402349 1.18304,-7.528808 1.59913,-8.466671 0.19369,-0.436562 0.40841,-1.210468 0.47715,-1.719791 0.18497,-1.370425 1.45803,-4.542244 2.09734,-5.225521 1.11737,-1.194213 4.11564,-0.395085 5.05381,1.346989 0.47331,0.878893 0.47202,0.92258 -0.0581,1.961686 -0.2982,0.584527 -1.00723,1.431096 -1.57562,1.881267 -1.3539,1.07231 -1.96548,2.560128 -2.78802,6.782586 -1.20233,6.172065 -1.18122,13.665065 0.0461,16.365365 0.27423,0.60335 0.63129,1.41957 0.79347,1.81383 0.50505,1.2278 2.04201,1.7878 5.41106,1.97157 1.63612,0.0893 3.20575,0.28131 3.48807,0.4268 0.4979,0.2566 0.49503,0.27933 -0.0955,0.75748 -0.33482,0.27112 -0.83789,0.49295 -1.11793,0.49295 -0.28004,0 -0.77286,0.16675 -1.09517,0.37056 -1.25599,0.79425 -5.18148,1.21624 -6.40683,0.68874 z"
       id="path4" /></g></svg>
