<?xml version="1.0" encoding="UTF-8" standalone="no"?>
<!-- Created with Inkscape (http://www.inkscape.org/) -->

<svg
   width="17.679605mm"
   height="41.151787mm"
   viewBox="0 0 17.679605 41.151787"
   version="1.1"
   id="svg1"
   xml:space="preserve"
   xmlns="http://www.w3.org/2000/svg"
   xmlns:svg="http://www.w3.org/2000/svg"><defs
     id="defs1" /><g
     id="layer1"
     transform="translate(-124.96559,-84.899554)"><path
       style="fill:#000000"
       d="m 125.37956,125.81348 c -0.82156,-0.32896 -0.57178,-0.62485 2.1416,-2.53703 5.11302,-3.60324 8.42999,-7.82477 9.84143,-12.52524 0.59651,-1.98656 1.01961,-8.19948 0.68015,-9.98758 -0.14504,-0.763989 -0.37254,-1.954614 -0.50555,-2.645838 -0.27309,-1.419166 -1.66784,-4.500617 -3.40942,-7.532475 -1.00878,-1.756152 -1.14807,-2.176278 -0.99393,-2.997898 0.23817,-1.269553 1.71124,-2.892045 2.42113,-2.666732 0.73363,0.232845 3.01781,3.02098 3.01781,3.683625 0,0.30217 0.40324,1.331045 0.89608,2.286388 2.52027,4.885381 3.7025,11.88021 2.95433,17.4797 -0.22361,1.67349 -0.40752,3.41508 -0.40869,3.8702 -0.001,0.45513 -0.19635,0.98869 -0.43373,1.1857 -0.23738,0.197 -1.16835,1.4915 -2.06883,2.87666 -2.83711,4.36418 -7.55143,8.1168 -11.76895,9.36814 -1.6296,0.4835 -1.52694,0.47731 -2.36343,0.14238 z"
       id="path4" /></g></svg>
