<?xml version="1.0" encoding="UTF-8" standalone="no"?>
<!-- Created with Inkscape (http://www.inkscape.org/) -->

<svg
   width="2.8603876mm"
   height="5.7206941mm"
   viewBox="0 0 2.8603875 5.7206941"
   version="1.1"
   id="svg1"
   xml:space="preserve"
   xmlns="http://www.w3.org/2000/svg"
   xmlns:svg="http://www.w3.org/2000/svg"><defs
     id="defs1" /><g
     id="layer1"
     transform="translate(-86.913372,-162.94859)"><path
       style="fill:#000000;stroke-width:0.309631"
       d="m 87.704987,168.56526 c -0.229159,-0.17486 -0.230665,-0.35881 -0.0057,-0.6967 0.254597,-0.38241 0.479717,-1.11102 0.479717,-1.55264 0,-0.32846 -0.04395,-0.42119 -0.318566,-0.67199 -0.345806,-0.31583 -0.620431,-0.71539 -0.848575,-1.2346 -0.130774,-0.29762 -0.131033,-0.36262 -0.0025,-0.64051 0.186804,-0.404 0.336888,-0.52213 0.897005,-0.70599 0.442478,-0.14525 0.479541,-0.14684 0.791567,-0.0339 0.427336,0.15474 0.793829,0.49264 0.795105,0.7331 7.13e-4,0.10522 0.06387,0.34939 0.140678,0.5426 0.18977,0.47733 0.185836,2.06647 -0.0067,2.68969 -0.07895,0.25562 -0.219126,0.5625 -0.311506,0.68198 -0.09238,0.11946 -0.196069,0.30267 -0.230427,0.40713 -0.07001,0.21283 -0.479948,0.46398 -0.911541,0.55842 -0.229916,0.0503 -0.321877,0.0352 -0.468542,-0.0766 z"
       id="path4" /></g></svg>
