<?xml version="1.0" encoding="UTF-8" standalone="no"?>
<!-- Created with Inkscape (http://www.inkscape.org/) -->

<svg
   width="24.649858mm"
   height="35.309345mm"
   viewBox="0 0 24.649858 35.309345"
   version="1.1"
   id="svg1"
   xml:space="preserve"
   xmlns="http://www.w3.org/2000/svg"
   xmlns:svg="http://www.w3.org/2000/svg"><defs
     id="defs1" /><g
     id="layer1"
     transform="translate(-110.65861,-89.384808)"><path
       style="fill:#000000"
       d="m 119.55631,124.21443 c -0.65485,-0.30827 -1.48829,-0.70073 -1.85209,-0.87214 -0.3638,-0.1714 -0.82039,-0.64227 -1.01464,-1.04636 -0.19425,-0.4041 -1.2809,-1.71962 -2.41477,-2.92338 -2.50481,-2.65921 -2.6543,-2.92599 -2.94733,-5.25967 -0.12776,-1.01751 -0.36607,-2.01121 -0.52957,-2.20822 -0.22343,-0.26922 -0.18369,-0.63829 0.15998,-1.48566 0.83627,-2.06197 2.50984,-9.28693 2.51144,-10.842097 0.001,-1.32196 0.17659,-1.834844 1.39062,-4.070337 1.55907,-2.870837 3.43703,-5.116095 4.83336,-5.778697 0.76997,-0.365376 1.38685,-0.412077 3.5075,-0.265532 1.49828,0.103538 3.01531,0.37126 3.63154,0.640888 2.52504,1.104817 5.69484,4.530994 6.71531,7.258436 0.29383,0.785341 0.66494,2.481151 0.82469,3.768469 0.15974,1.28731 0.42895,2.63823 0.59823,3.00203 0.34427,0.73989 0.47842,7.67292 0.14846,7.67292 -0.26453,0 -1.21807,1.93022 -1.66838,3.37725 -0.46969,1.50934 -3.53504,6.07507 -4.91679,7.32341 -1.59877,1.44438 -3.06249,2.00508 -5.60547,2.14723 -1.8367,0.10268 -2.36964,0.0334 -3.37209,-0.43854 z m 6.77551,-5.3855 c 1.95829,-2.05457 3.11841,-4.02822 3.42882,-5.83323 0.1001,-0.58208 0.23075,-3.64795 0.29034,-6.81305 l 0.10834,-5.75471 -1.07596,-1.58442 c -1.37822,-2.029513 -2.05455,-2.648465 -2.89622,-2.650489 -0.37274,-8.96e-4 -1.01874,-0.17949 -1.43556,-0.396875 -0.87581,-0.456766 -1.49111,-0.510683 -1.49111,-0.130662 0,0.145521 -0.22948,0.264584 -0.50996,0.264584 -0.54535,0 -1.6067,1.15828 -1.6067,1.753432 0,0.197534 -0.35719,0.677408 -0.79375,1.066387 -0.53681,0.478299 -0.79375,0.955552 -0.79375,1.474343 0,0.42191 -0.25177,1.35237 -0.55949,2.06768 -0.30772,0.71532 -0.4903,1.48087 -0.40574,1.70125 0.0958,0.24977 -0.24148,0.79198 -0.89572,1.43971 -1.08667,1.07586 -1.26141,1.5565 -0.75134,2.06658 0.22112,0.22112 0.15278,0.53332 -0.26458,1.20863 -0.3095,0.50077 -0.56272,1.22386 -0.56272,1.60686 0,0.38301 -0.13275,0.69638 -0.29501,0.69638 -0.17865,0 -0.12095,0.26566 0.14629,0.67352 0.26043,0.39745 0.3715,0.89346 0.271,1.21013 -0.22331,0.70358 0.33652,2.0271 0.93821,2.21807 0.26092,0.0828 0.5525,0.46171 0.64794,0.84199 0.27046,1.07758 3.25434,3.89645 4.64157,4.38488 0.65485,0.23057 1.36922,0.42889 1.5875,0.44071 0.21828,0.0118 1.2432,-0.86644 2.2776,-1.9517 z"
       id="path4" /></g></svg>
