<?xml version="1.0" encoding="UTF-8" standalone="no"?>
<!-- Created with Inkscape (http://www.inkscape.org/) -->

<svg
   width="21.121588mm"
   height="37.136234mm"
   viewBox="0 0 21.121588 37.136234"
   version="1.1"
   id="svg1"
   xml:space="preserve"
   xmlns="http://www.w3.org/2000/svg"
   xmlns:svg="http://www.w3.org/2000/svg"><defs
     id="defs1" /><g
     id="layer1"
     transform="translate(-111.01142,-72.549752)"><path
       style="fill:#000000"
       d="m 120.05195,109.24515 c -1.56193,-0.98895 -1.6494,-2.80843 -0.20608,-4.28653 l 0.97525,-0.99875 -0.40516,-3.95891 c -0.39534,-3.862988 -1.5716,-8.953596 -2.1659,-9.373587 -0.57775,-0.408293 -2.78579,0.503634 -2.78579,1.150539 0,0.63657 -0.35968,0.626319 -1.75692,-0.05007 -1.40164,-0.678521 -2.79987,-2.219772 -2.68982,-2.964944 0.0714,-0.483365 1.33841,-1.287915 3.63838,-2.31035 0.36993,-0.164452 1.4094,-3.607765 1.38179,-4.577287 -0.007,-0.262815 0.25633,-0.985546 0.58627,-1.606068 0.32993,-0.620522 0.73741,-1.834241 0.9055,-2.697154 0.16809,-0.862912 0.43686,-2.260225 0.59726,-3.105139 0.2399,-1.263655 0.40969,-1.581091 0.95704,-1.789192 1.03189,-0.392324 2.55443,0.14459 3.51617,1.239955 0.76467,0.870914 0.79963,0.987875 0.42047,1.406844 -0.22745,0.251328 -0.35165,0.518854 -0.276,0.594503 0.0756,0.07565 0.256,3.042549 0.40077,6.593112 0.30393,7.453545 0.87533,13.575431 1.44667,15.499329 0.21899,0.737422 0.50476,2.392429 0.63505,3.677789 0.29832,2.94326 0.51431,3.15285 3.45677,3.35454 2.31404,0.1586 3.44935,0.65711 3.44935,1.5146 0,0.37036 -0.2757,0.58461 -0.99219,0.77107 -0.5457,0.142 -1.67819,0.43331 -2.51663,0.64734 -0.83845,0.21403 -1.94625,0.63802 -2.46178,0.94219 -0.65402,0.38588 -1.59273,0.59877 -3.10576,0.70435 -1.87618,0.13092 -2.28114,0.08 -3.00471,-0.37818 z"
       id="path4" /></g></svg>
