<?xml version="1.0" encoding="UTF-8" standalone="no"?>
<!-- Created with Inkscape (http://www.inkscape.org/) -->

<svg
   width="27.121262mm"
   height="29.934471mm"
   viewBox="0 0 27.121262 29.934471"
   version="1.1"
   id="svg1"
   xml:space="preserve"
   xmlns="http://www.w3.org/2000/svg"
   xmlns:svg="http://www.w3.org/2000/svg"><defs
     id="defs1" /><g
     id="layer1"
     transform="translate(-125.98706,-95.332194)"><path
       style="fill:#000000"
       d="m 148.07979,125.15773 c -0.14552,-0.0479 -1.68752,-0.53216 -3.42666,-1.07618 l -3.16209,-0.98912 -3.61116,0.16427 c -3.52402,0.1603 -3.6249,0.14965 -4.18011,-0.44134 -0.31291,-0.33309 -0.56894,-0.79887 -0.56894,-1.03507 0,-0.2362 0.69753,-1.68377 1.55005,-3.21681 1.52935,-2.75012 2.58539,-5.06261 4.2767,-9.365 0.82476,-2.09805 0.85692,-2.31334 0.711,-4.75916 -0.13581,-2.27637 -0.22108,-2.61237 -0.7656,-3.0167 -0.33703,-0.25026 -0.92926,-0.69825 -1.31608,-0.99553 -0.38682,-0.29729 -0.9936,-0.540527 -1.34841,-0.540527 -0.35481,0 -1.01784,-0.185944 -1.47341,-0.41321 -0.45556,-0.227266 -1.27753,-0.376094 -1.82658,-0.330729 -0.94118,0.07776 -1.00292,0.138088 -1.07921,1.054526 -0.0445,0.53463 -0.25286,1.11476 -0.46302,1.28917 -0.21016,0.17442 -0.3821,0.4765 -0.3821,0.67129 0,0.55014 -1.09035,1.43312 -1.76969,1.43312 -0.33636,0 -0.61156,-0.0989 -0.61156,-0.21987 0,-0.12094 -0.30291,-0.38199 -0.67313,-0.58013 -0.70425,-0.3769 -1.97271,-2.59052 -1.97271,-3.442623 0,-1.081038 0.65729,-1.899698 2.10343,-2.619853 3.10156,-1.544531 6.70934,-1.838307 8.92673,-0.726889 0.70013,0.350925 1.71656,0.718663 2.25872,0.817196 1.66993,0.303491 3.09214,1.633389 3.81059,3.563229 0.52391,1.4073 0.62762,2.17976 0.62762,4.67499 0,3.05631 -0.51642,5.96166 -1.19731,6.73603 -0.19193,0.21828 -0.43682,0.74875 -0.54419,1.17882 -0.10738,0.43006 -0.5929,1.64265 -1.07895,2.69464 -0.48605,1.05198 -0.88372,2.08616 -0.88372,2.29818 0,0.48231 1.83503,1.2367 3.00825,1.2367 0.54085,0 1.33029,0.30453 2.04516,0.78893 0.64037,0.43392 1.28458,0.7911 1.4316,0.79375 0.14701,0.003 1.21858,0.42008 2.38125,0.92763 1.16267,0.50754 2.32772,0.92426 2.589,0.92604 0.6399,0.004 1.80442,1.20335 1.62439,1.67249 -0.24097,0.62797 -1.37679,0.97767 -3.10408,0.95569 -0.90266,-0.0115 -1.76026,-0.0601 -1.90578,-0.10795 z"
       id="path4" /></g></svg>
