<?xml version="1.0" encoding="UTF-8" standalone="no"?>
<!-- Created with Inkscape (http://www.inkscape.org/) -->

<svg
   width="24.921741mm"
   height="34.369942mm"
   viewBox="0 0 24.921741 34.369942"
   version="1.1"
   id="svg1"
   xml:space="preserve"
   xmlns="http://www.w3.org/2000/svg"
   xmlns:svg="http://www.w3.org/2000/svg"><defs
     id="defs1" /><g
     id="layer1"
     transform="translate(-127.10247,-75.736864)"><path
       style="fill:#000000"
       d="m 139.34948,109.92812 c -0.40583,-0.15902 -2.70167,-1.66813 -5.28244,-3.47226 -1.41357,-0.98819 -2.0901,-1.9829 -2.11408,-3.10837 -0.0124,-0.58282 0.98308,-1.37041 3.0923,-2.44645 1.37685,-0.70241 1.65827,-0.70743 1.65827,-0.0296 0,0.32797 0.25649,0.63323 0.66146,0.7872 0.66964,0.2546 0.88175,0.89095 0.39687,1.19062 -0.40471,0.25013 -0.31459,0.92604 0.12347,0.92604 0.21343,0 0.78545,0.39739 1.27115,0.88309 0.8302,0.8302 1.02484,0.89371 3.24996,1.06046 l 2.36688,0.17736 1.48113,-1.55386 c 1.84849,-1.93927 2.06618,-2.77551 1.20831,-4.641482 -0.78873,-1.715553 -3.70879,-5.398544 -4.52684,-5.709566 -0.84644,-0.321814 -1.47089,-1.279639 -1.4651,-2.247265 0.003,-0.440563 0.37972,-1.455868 0.83796,-2.256232 2.56123,-4.473473 2.77778,-5.334639 1.73666,-6.906185 -0.94253,-1.422729 -3.0604,-2.355082 -5.33884,-2.350331 -2.02284,0.0042 -3.21454,0.429829 -3.1583,1.127982 0.0195,0.24171 -0.18901,0.5107 -0.4633,0.597756 -0.27428,0.08706 -0.62844,0.400704 -0.78701,0.696998 -0.2412,0.450679 -0.0929,0.858514 0.90744,2.495623 0.72325,1.183641 1.05858,1.956907 0.84862,1.956907 -0.19093,0 -0.40941,0.238125 -0.48552,0.529166 -0.11482,0.439087 -0.35654,0.527571 -1.41992,0.519791 -1.39819,-0.01023 -1.81847,-0.198167 -3.48331,-1.557644 -1.34369,-1.09723 -2.47161,-2.833377 -3.09718,-4.76731 l -0.46565,-1.439538 1.03022,-0.897224 c 1.72369,-1.501176 4.09345,-2.95617 5.49041,-3.371023 1.51097,-0.448709 5.50731,-0.521482 7.53368,-0.137188 1.0342,0.196132 1.93243,0.685913 3.83532,2.091312 3.1715,2.34233 3.63304,3.064324 3.64683,5.704698 0.0121,2.309332 -0.3165,3.518063 -1.39657,5.137887 -0.53837,0.807421 -0.71393,1.321278 -0.58757,1.719792 0.25459,0.802888 1.25787,2.344046 2.27685,3.497497 0.8174,0.925282 1.44123,1.954198 2.45648,4.051598 0.23836,0.492445 0.50026,1.692949 0.58198,2.667781 0.13015,1.55238 0.0581,1.97411 -0.58038,3.39682 -0.84247,1.87728 -2.9555,4.04113 -4.69956,4.81262 -1.8673,0.82599 -6.14969,1.32914 -7.34068,0.86248 z"
       id="path4" /></g></svg>
