<?xml version="1.0" encoding="UTF-8" standalone="no"?>
<!-- Created with Inkscape (http://www.inkscape.org/) -->

<svg
   width="18.067389mm"
   height="32.209721mm"
   viewBox="0 0 18.067389 32.209721"
   version="1.1"
   id="svg1"
   xml:space="preserve"
   xmlns="http://www.w3.org/2000/svg"
   xmlns:svg="http://www.w3.org/2000/svg"><defs
     id="defs1" /><g
     id="layer1"
     transform="translate(-118.78482,-77.518714)"><path
       style="fill:#000000"
       d="m 133.18463,105.82588 c -0.67332,-2.14644 -1.35137,-4.2598 -1.50676,-4.69636 -0.1554,-0.43656 -0.40725,-1.248323 -0.55966,-1.803914 -0.36085,-1.315395 -1.21847,-1.884646 -2.4822,-1.64757 -0.52689,0.09885 -1.71969,0.09815 -2.65067,-0.0016 -1.5506,-0.166054 -1.86002,-0.313215 -3.68614,-1.753087 -2.11594,-1.668396 -2.13088,-1.691113 -3.04868,-4.634612 -0.54677,-1.753527 -0.56943,-2.073094 -0.28807,-4.062633 0.21868,-1.546301 0.59413,-2.7363 1.32239,-4.191313 0.55935,-1.117554 1.09119,-2.489058 1.18185,-3.047787 0.21104,-1.300487 0.80088,-1.939614 2.11711,-2.294038 1.39966,-0.376889 2.05655,-0.167408 2.74081,0.874041 0.75022,1.141828 0.56564,2.337177 -0.61061,3.954248 -1.04939,1.442667 -1.94717,3.867116 -1.93374,5.222034 0.0153,1.546146 0.69894,3.970705 1.43179,5.078116 0.67279,1.016668 0.70751,1.032004 2.33285,1.030551 0.90744,-8.12e-4 2.09638,-0.125471 2.64208,-0.27702 0.94627,-0.262792 1.29467,-0.826245 0.7276,-1.176713 -0.5672,-0.350552 -0.24719,-1.415656 0.66631,-2.217727 1.64803,-1.446985 3.29944,-1.444097 3.80517,0.0067 0.16083,0.461357 0.29102,2.583284 0.29102,4.743204 0,3.129006 0.11525,4.374199 0.57795,6.24438 0.40396,1.63277 0.58318,3.19488 0.59531,5.18908 0.0191,3.14325 -0.0813,3.35313 -1.60894,3.36057 l -0.83255,0.004 z"
       id="path4" /></g></svg>
