<?xml version="1.0" encoding="UTF-8" standalone="no"?>
<!-- Created with Inkscape (http://www.inkscape.org/) -->

<svg
   width="19.847908mm"
   height="34.997219mm"
   viewBox="0 0 19.847908 34.997219"
   version="1.1"
   id="svg1"
   xml:space="preserve"
   xmlns="http://www.w3.org/2000/svg"
   xmlns:svg="http://www.w3.org/2000/svg"><defs
     id="defs1" /><g
     id="layer1"
     transform="translate(-124.80581,-67.975386)"><path
       style="fill:#000000"
       d="m 132.58956,102.9331 c -0.42595,-0.0523 -0.80484,-0.33362 -0.98652,-0.73235 -0.16222,-0.35605 -0.44634,-0.65491 -0.63136,-0.66414 -0.18502,-0.009 -0.0609,-0.12727 0.27591,-0.26234 0.81609,-0.3273 0.54074,-0.68331 -1.09966,-1.421793 -2.97198,-1.337947 -4.89715,-3.336334 -4.35674,-4.522417 0.39602,-0.869161 1.34019,-1.283167 2.51332,-1.102047 0.67745,0.104592 1.17622,0.02976 1.52145,-0.228262 0.83073,-0.6209 0.94156,-0.471599 0.94262,1.269781 l 0.001,1.653645 1.45599,1.124479 c 1.56714,1.210317 2.12593,1.337063 3.27502,0.742843 1.7664,-0.91344 5.3129,-5.563525 5.31866,-6.97369 0.005,-1.297036 -1.8199,-3.470393 -4.09856,-4.880395 -1.30534,-0.807726 -4.97534,-3.785689 -8.56085,-6.946569 -2.37055,-2.089805 -2.74922,-2.5428 -3.09392,-3.70119 -0.36486,-1.226159 -0.35794,-1.367146 0.0975,-1.984374 0.54476,-0.738276 6.23946,-5.006184 7.77642,-5.828054 1.20577,-0.644774 2.13807,-0.665643 3.1457,-0.07042 0.67279,0.397427 0.87729,0.40986 1.62833,0.099 1.4353,-0.594078 2.12797,-0.514278 2.41097,0.277758 0.21376,0.598279 0.0891,0.941332 -0.86533,2.381249 -0.9293,1.402006 -1.34387,1.777474 -2.48841,2.253706 -1.52087,0.632826 -1.89308,0.404268 -0.95967,-0.589303 0.8308,-0.884343 0.5064,-1.050853 -0.77435,-0.397463 -0.59039,0.301194 -1.22701,0.547719 -1.41471,0.547833 -0.49945,3.06e-4 -3.55353,1.484059 -3.76757,1.830391 -0.56377,0.912198 4.43947,5.887365 9.03907,8.988359 4.77567,3.219688 5.75215,4.592722 5.75974,8.098749 0.004,1.85693 -0.0928,2.295236 -0.78917,3.571875 -0.43656,0.800365 -1.80578,2.473326 -3.04271,3.717692 -2.09987,2.112497 -2.38928,2.308397 -4.36563,2.955097 -2.48194,0.81215 -2.94061,0.90614 -3.86655,0.79234 z"
       id="path4" /></g></svg>
