<?xml version="1.0" encoding="UTF-8" standalone="no"?>
<!-- Created with Inkscape (http://www.inkscape.org/) -->

<svg
   width="21.339436mm"
   height="36.478733mm"
   viewBox="0 0 21.339436 36.478733"
   version="1.1"
   id="svg1"
   xml:space="preserve"
   xmlns="http://www.w3.org/2000/svg"
   xmlns:svg="http://www.w3.org/2000/svg"><defs
     id="defs1" /><g
     id="layer1"
     transform="translate(-109.9031,-81.951812)"><path
       style="fill:#000000"
       d="m 113.29222,117.77167 c -2.01926,-1.05143 -3.38911,-3.27872 -3.38911,-5.51046 0,-1.62658 0.86557,-4.25993 1.96871,-5.98949 0.51049,-0.80036 0.93121,-1.65654 0.93493,-1.90261 0.004,-0.24608 0.12754,-0.52204 0.27514,-0.61327 0.1476,-0.0912 0.50907,-0.63768 0.80326,-1.21435 0.2942,-0.57667 1.28824,-2.0271 2.20898,-3.22319 0.92075,-1.196087 2.7186,-3.662984 3.99523,-5.481995 1.27663,-1.81901 2.65564,-3.69099 3.06447,-4.159955 0.40883,-0.468965 0.85592,-1.260446 0.99354,-1.758846 0.55835,-2.022168 3.32831,-5.169685 4.98687,-5.666603 1.82391,-0.546456 1.84355,-0.53043 2.04259,1.665971 0.23205,2.560827 -0.0167,3.084172 -2.97626,6.260844 -1.26459,1.357381 -3.07112,3.452612 -4.0145,4.656069 -0.94339,1.203458 -2.27998,2.905886 -2.97021,3.783174 -1.33629,1.698441 -1.75349,2.732571 -1.35638,3.362121 0.1346,0.21337 0.9892,0.65752 1.89913,0.987 3.00571,1.08834 5.34774,3.15296 5.33595,4.70391 -0.016,2.09775 -0.82681,4.46278 -1.65462,4.82605 -0.37058,0.16262 -0.59559,0.50246 -0.60876,0.91943 -0.0907,2.8714 -0.0378,2.7267 -0.9315,2.54796 -0.60856,-0.12171 -1.35091,0.0694 -2.87807,0.74082 -2.52793,1.11147 -4.60254,1.74228 -5.67642,1.72599 -0.44653,-0.007 -1.37037,-0.30313 -2.05297,-0.65857 z m 5.05741,-3.97785 c 1.00015,-0.29702 1.7302,-0.75638 2.56157,-1.61178 0.63951,-0.65801 1.16274,-1.34532 1.16274,-1.52736 0,-0.91736 -1.28894,-2.69573 -2.36679,-3.26549 -0.62669,-0.33128 -1.4297,-0.83064 -1.78446,-1.10969 -0.35476,-0.27906 -0.82109,-0.43981 -1.03628,-0.35724 -0.56039,0.21504 -1.36619,1.91716 -1.82114,3.84686 -0.96102,4.07616 -0.16668,5.04955 3.28436,4.0247 z m 4.37528,0.0589 c 0.7536,-0.55104 0.034,-0.79598 -0.90778,-0.30898 -0.44084,0.22796 -0.80152,0.47095 -0.80152,0.53997 0,0.27344 1.25058,0.10444 1.7093,-0.23099 z"
       id="path4" /></g></svg>
