<?xml version="1.0" encoding="UTF-8" standalone="no"?>
<!-- Created with Inkscape (http://www.inkscape.org/) -->

<svg
   width="20.489609mm"
   height="33.575825mm"
   viewBox="0 0 20.489609 33.575825"
   version="1.1"
   id="svg1"
   xml:space="preserve"
   xmlns="http://www.w3.org/2000/svg"
   xmlns:svg="http://www.w3.org/2000/svg"><defs
     id="defs1" /><g
     id="layer1"
     transform="translate(-134.94521,-103.18863)"><path
       style="fill:#000000"
       d="m 150.23264,136.11252 c -0.49478,-0.41633 -0.98074,-1.26066 -1.34321,-2.33376 -0.51274,-1.51795 -0.56781,-2.24549 -0.56642,-7.48359 8.4e-4,-3.1912 0.1214,-6.51656 0.26791,-7.38968 0.14651,-0.87313 0.39125,-2.77657 0.54387,-4.22988 0.1899,-1.80829 0.5131,-3.20313 1.02387,-4.41881 0.41051,-0.97703 0.68102,-1.84179 0.60112,-1.92168 -0.41963,-0.41964 -5.75165,0.0748 -7.20081,0.66767 -1.06582,0.43608 -1.71172,1.545 -1.76108,3.02353 -0.0243,0.7276 -0.0547,1.39016 -0.0676,1.47235 -0.0129,0.0822 -0.46443,0.35974 -1.00345,0.61678 -0.9373,0.44697 -0.99499,0.4469 -1.32292,-0.002 -0.18858,-0.25791 -0.34287,-0.80232 -0.34287,-1.20981 0,-0.4459 -0.38422,-1.24218 -0.96501,-1.99995 -0.53076,-0.69248 -1.35417,-2.06822 -1.8298,-3.05719 -0.47564,-0.98897 -1.00137,-1.96268 -1.16829,-2.1638 -0.23138,-0.2788 -0.20459,-0.55692 0.11275,-1.17059 0.76117,-1.47193 1.8833,-1.70383 3.66245,-0.75687 1.05798,0.56311 1.46619,0.59762 8.1254,0.68687 l 7.01146,0.094 0.7276,0.94324 c 0.83695,1.08498 0.89989,1.84561 0.29873,3.60993 -0.30656,0.8997 -0.34754,1.34001 -0.1437,1.54385 0.20384,0.20384 0.0958,0.51028 -0.37897,1.07446 -0.36528,0.43411 -0.59911,0.95875 -0.51963,1.16588 0.0795,0.20712 -0.0267,0.70773 -0.23602,1.11246 -0.6041,1.1682 -0.93296,6.40629 -0.93591,14.90717 l -0.003,7.87135 h -0.90574 c -0.57673,0 -1.18736,-0.23696 -1.68101,-0.65234 z"
       id="path4" /></g></svg>
