<?xml version="1.0" encoding="UTF-8" standalone="no"?>
<!-- Created with Inkscape (http://www.inkscape.org/) -->

<svg
   width="24.808943mm"
   height="35.24931mm"
   viewBox="0 0 24.808943 35.24931"
   version="1.1"
   id="svg1"
   xml:space="preserve"
   xmlns="http://www.w3.org/2000/svg"
   xmlns:svg="http://www.w3.org/2000/svg"><defs
     id="defs1" /><g
     id="layer1"
     transform="translate(-118.21131,-81.318229)"><path
       style="fill:#000000"
       d="m 121.64429,116.08174 c -0.80445,-0.25325 -1.77781,-0.66696 -2.16302,-0.91936 -1.34636,-0.88217 -1.69003,-3.58637 -0.70251,-5.52776 0.85714,-1.68506 6.57945,-7.36846 10.7605,-10.687335 0.75958,-0.602945 0.54143,-1.406811 -0.38177,-1.406811 -0.44525,0 -0.7191,-0.208845 -0.90092,-0.687062 -0.14367,-0.377884 -0.48967,-0.746803 -0.76889,-0.819821 -0.30125,-0.07878 -0.44982,-0.283536 -0.36539,-0.503563 0.0791,-0.20602 -0.0176,-0.370804 -0.2176,-0.370804 -0.19794,0 -0.6682,-0.327422 -1.04502,-0.727605 -0.5711,-0.606511 -0.71661,-1.079874 -0.87436,-2.844271 -0.17388,-1.944923 -0.31767,-2.346516 -1.32862,-3.710779 -0.15758,-0.212645 -0.0598,-0.778078 0.27606,-1.596473 0.44104,-1.074685 0.75949,-1.400412 2.09607,-2.143941 1.60781,-0.894412 5.34428,-2.237374 7.58188,-2.725077 1.38849,-0.302633 4.60432,0.172253 5.94827,0.878388 0.87509,0.459788 2.7931,2.41062 3.25499,3.310692 0.47007,0.916004 0.10846,3.180935 -0.79722,4.99337 -0.42073,0.841949 -1.71714,2.588061 -2.88092,3.880249 -2.42443,2.691945 -2.41739,2.456663 -0.14735,4.925894 1.60432,1.745109 1.94492,2.649149 2.16281,5.740839 l 0.15336,2.17607 -0.96292,1.06584 c -0.53178,0.58861 -0.96292,1.34413 -0.96292,1.6874 0,1.68146 -2.48443,3.73219 -5.77872,4.76994 -2.09066,0.65859 -8.34035,1.76925 -9.71544,1.72658 -0.42774,-0.0133 -1.4359,-0.23134 -2.24035,-0.4846 z m 8.77554,-3.44542 c 4.37736,-0.46072 6.25182,-2.13886 6.51619,-5.83372 0.15998,-2.23592 -0.48959,-3.78903 -2.14619,-5.13151 -1.672,-1.35496 -2.03249,-1.38297 -3.51615,-0.27321 -1.76694,1.32165 -7.10572,6.60564 -8.07311,7.99026 -0.73909,1.05784 -1.06394,2.48378 -0.65826,2.88945 0.53965,0.53965 4.46165,0.71826 7.87752,0.35873 z m 5.54336,-19.79686 c 1.76399,-2.19129 3.15048,-4.79082 3.15082,-5.907459 2.7e-4,-0.899427 -0.74663,-1.546147 -2.01749,-1.746876 -0.56376,-0.08904 -1.10016,-0.27645 -1.19201,-0.41646 -0.42749,-0.65164 -5.31783,1.738287 -6.70992,3.279165 -1.39308,1.541976 -1.30855,2.610512 0.33096,4.183471 1.24525,1.194701 4.23734,2.996027 4.60209,2.770596 0.10375,-0.06412 0.92974,-1.037213 1.83555,-2.162437 z"
       id="path4" /></g></svg>
