<?xml version="1.0" encoding="UTF-8" standalone="no"?>
<!-- Created with Inkscape (http://www.inkscape.org/) -->

<svg
   width="20.10704mm"
   height="34.611469mm"
   viewBox="0 0 20.10704 34.611469"
   version="1.1"
   id="svg1"
   xml:space="preserve"
   xmlns="http://www.w3.org/2000/svg"
   xmlns:svg="http://www.w3.org/2000/svg"><defs
     id="defs1" /><g
     id="layer1"
     transform="translate(-157.11958,-87.484322)"><path
       style="fill:#000000"
       d="m 162.06361,121.85895 c -1.25866,-0.37781 -1.45178,-0.69346 -1.41049,-2.3054 0.036,-1.40692 0.0926,-1.52909 0.93709,-2.02209 l 0.89874,-0.52471 0.49023,0.64235 c 0.9943,1.30286 0.94954,1.2805 1.98907,0.99347 0.54152,-0.14952 1.60357,-0.62119 2.36011,-1.04815 0.80326,-0.45334 1.96536,-0.84355 2.79328,-0.93794 0.77976,-0.0889 1.76066,-0.40162 2.17978,-0.69493 l 0.76204,-0.53329 -0.1399,-5.44757 c -0.11181,-4.35336 -0.23308,-5.67343 -0.60374,-6.57204 -0.25511,-0.61847 -0.60923,-1.12448 -0.78694,-1.12448 -0.17771,0 -0.89616,0.25349 -1.59656,0.56331 -2.57961,1.14108 -9.38269,0.93426 -9.77351,-0.29713 -0.0837,-0.26384 -0.55782,-0.67216 -1.05351,-0.90738 -1.49454,-0.7092 -1.98971,-1.57105 -1.98971,-3.463129 0,-1.145411 0.12166,-1.752677 0.39688,-1.98109 0.25036,-0.207783 0.39687,-0.791136 0.39687,-1.580199 0,-0.970496 0.17826,-1.496906 0.79541,-2.348853 0.43748,-0.603917 0.90975,-1.098031 1.0495,-1.098031 0.13975,0 0.87632,-0.552622 1.63681,-1.228049 2.54001,-2.255888 5.6194,-3.039497 7.92924,-2.017744 3.0498,1.349069 4.11268,3.433577 6.47061,12.690075 1.42687,5.60143 1.43301,5.64291 1.43165,9.66617 -7.6e-4,2.22232 -0.077,5.18175 -0.16932,6.57651 -0.15872,2.39647 -0.19866,2.53008 -0.72624,2.42981 -0.30706,-0.0584 -2.1061,0.38763 -3.99787,0.9911 -5.30261,1.69153 -8.33985,2.15864 -10.26952,1.57941 z m 6.28994,-22.279666 c 1.13277,-1.323394 1.32027,-1.93056 1.08359,-3.5089 -0.22486,-1.499475 -1.02763,-2.159582 -2.91274,-2.395111 -1.36252,-0.170235 -1.47665,-0.133997 -3.03151,0.962519 -1.70633,1.203337 -2.7863,2.848905 -2.6225,3.995961 0.0766,0.536521 0.31136,0.631808 2.22421,0.902852 1.1762,0.166663 2.48588,0.491095 2.91041,0.720955 1.11935,0.60606 1.29183,0.55624 2.34854,-0.678276 z"
       id="path4" /></g></svg>
