<?xml version="1.0" encoding="UTF-8" standalone="no"?>
<!-- Created with Inkscape (http://www.inkscape.org/) -->

<svg
   width="31.158087mm"
   height="41.80447mm"
   viewBox="0 0 31.158087 41.80447"
   version="1.1"
   id="svg1"
   xml:space="preserve"
   xmlns="http://www.w3.org/2000/svg"
   xmlns:svg="http://www.w3.org/2000/svg"><defs
     id="defs1" /><g
     id="layer1"
     transform="translate(-55.166583,-50.992595)"><path
       style="fill:#000000"
       d="m 59.406837,92.163923 c -0.248765,-0.51509 -0.42221,-2.492609 -0.553144,-6.306631 -0.134902,-3.929606 -0.318774,-5.982276 -0.628063,-7.011458 -0.599253,-1.994056 -0.933452,-5.064257 -1.184067,-10.877729 -0.116763,-2.708532 -0.306067,-5.076328 -0.420676,-5.261768 -0.114608,-0.18544 -0.352134,-1.892521 -0.527835,-3.793512 -0.194578,-2.105228 -0.438287,-3.495958 -0.623441,-3.557676 -0.567233,-0.189078 -0.307358,-1.065687 0.52308,-1.764454 0.823007,-0.692515 0.842803,-0.695076 4.034896,-0.521922 2.382782,0.129253 4.19456,0.0516 7.044288,-0.301924 2.110052,-0.261762 4.491302,-0.488314 5.291667,-0.503449 1.027781,-0.01943 1.812237,-0.225799 2.670741,-0.702579 0.983401,-0.546144 1.438077,-0.645354 2.380858,-0.519503 0.995578,0.132899 1.238843,0.292762 1.670038,1.097472 0.605855,1.130666 0.495325,1.708061 -0.709436,3.705995 -0.68772,1.140492 -0.825809,1.571768 -0.611861,1.910947 0.196766,0.311939 0.18604,0.528305 -0.03726,0.751607 -0.439745,0.439744 -1.045299,-0.105951 -1.274232,-1.148275 l -0.1785,-0.812706 -2.153611,0.163269 c -1.184486,0.0898 -2.738081,0.34468 -3.452433,0.566405 -1.965883,0.610182 -2.9771,0.52719 -3.750988,-0.307849 l -0.658918,-0.710984 -2.514916,0.27266 c -1.383204,0.149963 -2.638171,0.395916 -2.788817,0.546561 -0.188812,0.188813 -0.181952,1.742828 0.02208,5.002387 0.476702,7.615581 0.767285,10.346904 1.47419,13.85661 0.563555,2.797993 0.7716,3.394012 1.350999,3.870438 l 0.684864,0.563146 -0.427025,1.702716 c -0.466181,1.858845 -0.557494,4.360384 -0.180887,4.955413 0.203885,0.322134 0.485872,0.309002 1.96557,-0.09153 1.408754,-0.381332 1.897963,-0.411377 2.651109,-0.162816 1.033689,0.341148 2.508473,0.06406 3.548075,-0.666614 0.48803,-0.34301 0.765524,-0.369981 1.428544,-0.138851 1.23589,0.430833 1.953703,0.353082 3.371048,-0.365141 1.36837,-0.693405 3.217565,-1.047878 6.963209,-1.334779 1.997872,-0.153029 2.336903,-0.118415 2.479485,0.253148 0.231352,0.602895 -0.565438,1.394927 -2.280262,2.266644 -0.800365,0.406859 -1.878435,1.029312 -2.395712,1.38323 -0.517277,0.353918 -1.47722,0.717053 -2.133207,0.806966 -1.430254,0.196038 -3.391078,1.001244 -4.055012,1.665178 -0.39392,0.39392 -1.13278,0.517583 -4.08443,0.683608 -1.981932,0.111481 -5.032263,0.459953 -6.778513,0.774383 -5.11024,0.920149 -4.739911,0.915594 -5.151497,0.06337 z"
       id="path5" /></g></svg>
