<?xml version="1.0" encoding="UTF-8" standalone="no"?>
<!-- Created with Inkscape (http://www.inkscape.org/) -->

<svg
   width="25.733391mm"
   height="32.778484mm"
   viewBox="0 0 25.733391 32.778484"
   version="1.1"
   id="svg1"
   xml:space="preserve"
   xmlns="http://www.w3.org/2000/svg"
   xmlns:svg="http://www.w3.org/2000/svg"><defs
     id="defs1" /><g
     id="layer1"
     transform="translate(-127.86697,-76.118545)"><path
       style="fill:#000000"
       d="m 148.34192,108.54955 c -0.39664,-0.27159 -2.11947,-0.39631 -6.87917,-0.49799 -3.4925,-0.0746 -6.79508,-0.26771 -7.33907,-0.42911 -1.13268,-0.33608 -1.52447,-0.90509 -1.52447,-2.21404 0,-1.0746 -0.0293,-1.06591 5.05303,-1.49592 1.68776,-0.14279 3.57796,-0.43932 4.20045,-0.65895 1.41123,-0.49791 2.37038,-0.49602 3.03407,0.006 0.70152,0.5306 2.0939,0.49044 2.58486,-0.0746 0.2213,-0.25466 0.48274,-0.80081 0.581,-1.21365 0.26887,-1.12974 -0.72596,-18.669255 -1.19175,-21.011352 l -0.27626,-1.389062 -1.89947,7.83e-4 c -1.96517,8.1e-4 -9.19321,0.640254 -10.68334,0.945124 -0.46551,0.09524 -1.04951,0.397622 -1.29778,0.671961 -0.53043,0.586118 -1.1355,0.617702 -2.72551,0.142269 -2.34737,-0.701888 -2.80857,-2.332144 -1.02524,-3.62398 0.91189,-0.660572 1.28775,-0.781067 2.05052,-0.657371 0.51368,0.0833 1.82693,-0.03737 2.91834,-0.26816 2.09612,-0.44325 14.6783,-0.875113 15.97972,-0.548479 0.37056,0.09301 0.79062,0.387477 0.93347,0.654381 0.36577,0.683455 0.74628,4.141536 1.06677,9.69493 0.15117,2.619375 0.39787,6.905625 0.54823,9.525 0.29951,5.217646 0.71492,9.170286 1.05885,10.074886 0.19114,0.50273 0.11582,0.60277 -0.55482,0.7369 -0.9209,0.18418 -1.01227,0.57408 -0.18522,0.79036 0.47071,0.12309 0.52394,0.22128 0.26198,0.48324 -0.26196,0.26196 -0.49283,0.23185 -1.13622,-0.14821 -0.94771,-0.55983 -1.95069,-0.40324 -2.36402,0.36907 -0.32703,0.61106 -0.47104,0.62753 -1.18895,0.13596 z"
       id="path4" /></g></svg>
