<?xml version="1.0" encoding="UTF-8" standalone="no"?>
<!-- Created with Inkscape (http://www.inkscape.org/) -->

<svg
   width="43.101456mm"
   height="37.015537mm"
   viewBox="0 0 43.101456 37.015537"
   version="1.1"
   id="svg1"
   xml:space="preserve"
   xmlns="http://www.w3.org/2000/svg"
   xmlns:svg="http://www.w3.org/2000/svg"><defs
     id="defs1" /><g
     id="layer1"
     transform="translate(-116.6238,-31.359668)"><path
       style="fill:#000000"
       d="m 124.56131,68.101366 c -2.12991,-0.348501 -3.09978,-0.707337 -5.1017,-1.887541 -1.82311,-1.074785 -2.8358,-2.06534 -2.8358,-2.77381 0,-0.275504 0.19662,-0.354452 0.66146,-0.265592 0.8492,0.162335 0.8492,-0.139446 0,-0.593924 -1.2351,-0.661006 -0.62323,-1.58893 1.04511,-1.584932 0.82131,0.002 1.34001,0.215979 2.2211,0.916408 1.49038,1.184797 3.69153,1.995543 5.92654,2.182919 1.76969,0.148364 1.79249,0.141787 2.64616,-0.763426 0.4736,-0.502194 1.23743,-1.614494 1.6974,-2.471776 l 0.83631,-1.558696 -1.20424,-2.395144 c -3.62314,-7.206163 -4.58338,-12.990527 -3.01101,-18.137853 0.28895,-0.945885 0.71244,-2.720931 0.94109,-3.944546 0.22866,-1.223615 0.53732,-2.371246 0.68591,-2.550292 0.38613,-0.465249 2.36553,-0.913495 4.03389,-0.913495 1.91669,0 3.46557,0.837796 4.60462,2.490666 1.33663,1.939585 1.75749,3.731646 1.77626,7.5635 0.0168,3.421814 -0.75326,8.353175 -1.96712,12.597808 -0.28631,1.001165 -0.52056,2.551856 -0.52056,3.445981 v 1.625681 l 2.50496,1.098589 c 2.62844,1.152744 4.48073,1.528091 6.06979,1.229981 0.78901,-0.14802 0.95025,-0.290258 0.95025,-0.838278 0,-0.363005 0.23497,-1.12059 0.52216,-1.683523 0.28718,-0.562932 0.5916,-1.540454 0.67648,-2.172272 0.0849,-0.631817 0.28133,-1.652063 0.43658,-2.267213 0.26724,-1.058952 0.2385,-1.168298 -0.54036,-2.055373 -1.51857,-1.729551 -1.37173,-2.795027 0.45513,-3.302459 1.61319,-0.448082 2.15904,-0.331789 3.06012,0.651955 1.1835,1.292081 2.0626,1.395911 4.57892,0.540812 1.17083,-0.397874 2.49027,-0.672332 2.99918,-0.62386 0.89559,0.0853 0.90981,0.106331 0.98816,1.46191 0.0762,1.318846 0.0436,1.394166 -0.79375,1.832932 -0.48028,0.251663 -2.12236,0.947396 -3.64905,1.546073 -3.15204,1.236041 -3.43182,1.547491 -3.438,3.8272 -0.007,2.614227 -1.33063,4.405022 -4.83117,6.53674 l -1.51997,0.925617 -2.0519,-0.30818 c -1.12855,-0.169498 -3.12347,-0.646418 -4.43315,-1.059821 -1.30969,-0.413404 -2.81871,-0.830303 -3.35337,-0.926443 -0.89988,-0.161811 -1.00476,-0.111663 -1.4115,0.674888 -0.65105,1.258996 -2.48157,3.144561 -3.61322,3.721889 -1.09026,0.556208 -3.41939,0.63597 -6.04171,0.2069 z m 9.64334,-16.081619 c 0.0823,-0.133101 0.46447,-1.413022 0.84935,-2.84427 0.62014,-2.306057 0.70277,-3.117091 0.72595,-7.125048 0.029,-5.013934 -0.0805,-5.399097 -1.53487,-5.399097 -1.2751,0 -2.01085,0.647848 -2.01085,1.770601 0,0.670107 -0.19333,1.126014 -0.66146,1.559863 -0.61538,0.570314 -0.66146,0.786686 -0.66146,3.105929 0,1.539592 0.15177,2.923072 0.39688,3.617774 0.21828,0.618675 0.39949,1.437316 0.40268,1.819203 0.0146,1.747995 1.92167,4.42073 2.49378,3.495045 z m 22.39747,11.250123 c -0.38081,-0.405352 -0.49272,-0.696873 -0.3107,-0.809365 0.41685,-0.257633 0.73337,0.02278 0.87765,0.777542 0.15525,0.812101 0.16554,0.811523 -0.56695,0.03182 z"
       id="path1" /></g></svg>
