<?xml version="1.0" encoding="UTF-8" standalone="no"?>
<!-- Created with Inkscape (http://www.inkscape.org/) -->

<svg
   width="44.005219mm"
   height="40.380142mm"
   viewBox="0 0 44.005219 40.380142"
   version="1.1"
   id="svg1"
   xml:space="preserve"
   xmlns="http://www.w3.org/2000/svg"
   xmlns:svg="http://www.w3.org/2000/svg"><defs
     id="defs1" /><g
     id="layer1"
     transform="translate(-115.47216,-86.834655)"><path
       style="fill:#000000"
       d="m 117.08874,126.7065 c -1.23563,-0.56088 -1.80936,-1.46861 -1.55892,-2.46644 0.17751,-0.70726 1.6055,-1.55112 2.2235,-1.31397 0.2094,0.0803 0.47198,-0.002 0.5835,-0.18199 0.15772,-0.2552 0.38401,-0.23437 1.01849,0.0937 0.44865,0.232 1.17018,0.42182 1.6034,0.42182 0.69384,0 0.86877,-0.17141 1.46835,-1.43882 0.37437,-0.79135 0.68067,-1.68907 0.68067,-1.99492 0,-0.30585 0.22123,-0.99783 0.49162,-1.53773 0.2704,-0.53991 0.57557,-1.32999 0.67817,-1.75573 0.28575,-1.18577 1.88638,-3.42984 3.49511,-4.90013 1.89212,-1.72929 10.98441,-6.29986 13.00951,-6.53971 l 1.32962,-0.15747 -0.13062,-2.01639 c -0.21347,-3.295324 -0.5463,-4.701765 -1.71827,-7.260995 -0.8435,-1.84195 -1.10073,-2.715808 -1.06529,-3.618935 0.0257,-0.654843 -0.0833,-1.682797 -0.24213,-2.284341 -0.35175,-1.331905 -0.0568,-2.019661 1.12896,-2.632865 0.77061,-0.398496 0.86378,-0.393135 1.50644,0.08669 0.88447,0.66035 2.48813,3.626957 3.32637,6.153438 0.36211,1.091406 1.07849,3.829844 1.59196,6.085417 1.15523,5.074641 1.57863,6.247671 2.32564,6.443011 0.55242,0.14446 0.55505,0.16454 0.089,0.67953 -0.48252,0.53318 -0.39168,1.52381 0.11123,1.21299 0.35907,-0.22192 0.33984,0.2165 -0.0255,0.58187 -0.42466,0.42466 0.14265,2.81138 1.05586,4.44212 0.40805,0.72867 0.81439,1.78394 0.90297,2.34503 0.20433,1.29436 0.78081,2.17402 1.85326,2.82793 0.90036,0.54898 2.42621,0.69206 2.6976,0.25294 0.0899,-0.14553 0.86412,-0.26458 1.7204,-0.26458 1.30409,0 1.62308,0.0945 1.96456,0.58203 0.3683,0.52582 0.36644,0.64719 -0.0192,1.25677 -0.74536,1.17803 -1.72664,2.09201 -2.84508,2.64996 -0.59687,0.29775 -1.29316,0.68864 -1.54732,0.86864 -0.36724,0.26009 -0.57019,0.25978 -0.9886,-0.002 -0.73385,-0.4583 -1.37305,-0.42134 -4.13365,0.23901 -2.53475,0.60633 -3.27918,0.55274 -3.27918,-0.23606 0,-0.26322 -0.18058,-0.73641 -0.40128,-1.0515 l -0.40128,-0.5729 -2.0052,0.95225 c -1.55624,0.73906 -2.43585,0.97992 -3.92864,1.07571 -1.26214,0.081 -1.98658,0.0213 -2.10706,-0.17364 -0.29173,-0.47202 -1.21811,-0.34536 -1.69747,0.23209 -0.30495,0.36736 -0.95775,0.59845 -2.13479,0.75569 -1.0584,0.14139 -1.81501,0.38993 -2.01354,0.66144 -0.4431,0.60597 -0.65658,0.54286 -0.65658,-0.19412 0,-0.60063 -0.57398,-1.35459 -0.8336,-1.09499 -0.0679,0.0679 -0.76725,-0.52845 -1.55411,-1.32521 -0.78687,-0.79676 -1.57511,-1.44866 -1.75164,-1.44866 -0.17654,0 -0.85957,0.86415 -1.51786,1.92032 -1.34911,2.16457 -2.58831,3.47022 -3.68658,3.88429 -1.16445,0.43902 -3.36813,0.32383 -4.6127,-0.24111 z m 23.74521,-6.72503 c 1.34389,-0.42912 1.68469,-1.62262 1.31435,-4.60289 -0.39467,-3.17609 -1.27656,-5.72086 -2.01922,-5.82664 -1.38024,-0.1966 -8.29956,4.36746 -9.27139,6.1155 -0.17758,0.31942 -0.32709,1.14217 -0.33225,1.82833 -0.008,1.02052 0.13723,1.41454 0.79619,2.16505 l 0.80556,0.91748 3.89079,-0.1507 c 2.13994,-0.0829 4.30712,-0.28364 4.81597,-0.44613 z"
       id="path3" /></g></svg>
