<?xml version="1.0" encoding="UTF-8" standalone="no"?>
<!-- Created with Inkscape (http://www.inkscape.org/) -->

<svg
   width="33.339676mm"
   height="23.102427mm"
   viewBox="0 0 33.339676 23.102427"
   version="1.1"
   id="svg1"
   xml:space="preserve"
   xmlns="http://www.w3.org/2000/svg"
   xmlns:svg="http://www.w3.org/2000/svg"><defs
     id="defs1" /><g
     id="layer1"
     transform="translate(-61.250214,-121.62948)"><path
       style="fill:#000000"
       d="m 78.86336,144.57822 c -0.570645,-0.13344 -1.523145,-0.63026 -2.116666,-1.10406 -0.593522,-0.4738 -1.562675,-1.17261 -2.153674,-1.55292 -0.590998,-0.38031 -1.638824,-1.17985 -2.328501,-1.77677 l -1.253959,-1.08529 -1.367218,0.69282 c -1.243084,0.62992 -1.567607,0.68032 -3.574308,0.55513 -1.827094,-0.11399 -2.420745,-0.26946 -3.448031,-0.90301 -1.372789,-0.84662 -1.665017,-1.65224 -1.096867,-3.02388 0.386191,-0.93235 0.50209,-0.93929 1.733183,-0.10385 1.461645,0.9919 2.752953,0.78092 2.752953,-0.44979 0,-0.37506 0.213626,-0.47625 1.005416,-0.47625 1.438615,0 1.640417,-0.33293 1.640417,-2.7063 0,-1.79692 0.106247,-2.27182 0.802078,-3.5851 2.279108,-4.3015 3.237812,-5.37679 6.065313,-6.80292 1.267298,-0.63919 1.636356,-0.70787 3.024452,-0.56278 1.890777,0.19762 2.722684,0.68791 3.230843,1.90411 0.302695,0.72445 0.319474,1.15744 0.08379,2.16223 -0.464382,1.97982 -2.546157,6.00008 -4.382198,8.46279 -0.924292,1.23976 -1.68053,2.46901 -1.68053,2.73166 0,0.54988 1.741958,2.04874 3.34831,2.88103 1.580885,0.81909 4.329965,1.19936 5.872261,0.81229 2.027171,-0.50876 5.46541,-2.25523 6.724313,-3.41565 1.450031,-1.33659 1.955875,-1.36981 2.460708,-0.16157 0.333396,0.79793 0.335892,1.04818 0.01804,1.80891 -0.30001,0.71803 -0.695437,1.02165 -2.117869,1.62619 -1.547637,0.65776 -1.69595,0.78211 -1.288312,1.08019 0.430396,0.31472 0.418505,0.38174 -0.18094,1.01983 l -0.641614,0.68297 -0.50364,-0.54059 c -0.573193,-0.61525 -0.633426,-0.60433 -3.769383,0.68351 -2.82981,1.16212 -5.140958,1.54866 -6.858369,1.14707 z m -3.656496,-14.09598 c 0.631986,-1.29501 1.050669,-2.45296 0.930405,-2.57323 -0.626646,-0.62664 -3.110604,2.12294 -3.256626,3.60488 -0.119359,1.21135 -5.45e-4,1.49337 0.592975,1.40747 0.442585,-0.0641 0.862691,-0.65526 1.733246,-2.43912 z m 18.320073,10.59766 c 0,-0.19573 0.258314,-0.58268 0.574031,-0.8599 0.542286,-0.47615 0.564234,-0.47722 0.396875,-0.0194 -0.09744,0.26656 -0.177156,0.65351 -0.177156,0.85989 0,0.20638 -0.178593,0.37524 -0.396875,0.37524 -0.218281,0 -0.396875,-0.16014 -0.396875,-0.35587 z m -28.889191,-0.35404 c 0.190996,-0.0764 0.419199,-0.067 0.507118,0.0209 0.08792,0.0879 -0.06835,0.15045 -0.347266,0.13896 -0.308225,-0.0127 -0.370919,-0.0754 -0.159852,-0.15985 z"
       id="path1" /></g></svg>
