<?xml version="1.0" encoding="UTF-8" standalone="no"?>
<!-- Created with Inkscape (http://www.inkscape.org/) -->

<svg
   width="33.159462mm"
   height="52.001785mm"
   viewBox="0 0 33.159462 52.001785"
   version="1.1"
   id="svg1"
   xml:space="preserve"
   xmlns="http://www.w3.org/2000/svg"
   xmlns:svg="http://www.w3.org/2000/svg"><defs
     id="defs1" /><g
     id="layer1"
     transform="translate(-44.36678,-183.43418)"><path
       style="fill:#000000"
       d="m 59.882199,234.2073 c -1.531238,-1.4323 -2.049491,-2.40183 -2.302208,-4.30691 -0.100747,-0.75946 -0.2872,-1.31655 -0.414341,-1.23797 -0.286698,0.17719 -0.282757,-0.01 0.0283,-1.34357 0.180433,-0.77362 0.137995,-1.47997 -0.157748,-2.62561 -0.628538,-2.43482 -1.149199,-6.89099 -1.154883,-9.88426 -0.0061,-3.23123 -0.186145,-3.42401 -2.046595,-2.1917 -1.513443,1.00247 -5.076519,2.13386 -6.720118,2.13386 -0.988304,0 -1.327285,-0.1401 -1.970722,-0.81447 l -0.777105,-0.81448 0.624624,-0.50844 c 0.343543,-0.27964 0.964155,-0.50844 1.379137,-0.50844 1.103595,0 3.489523,-0.96099 4.623657,-1.86229 0.542283,-0.43095 1.25667,-0.78355 1.587527,-0.78355 0.34684,0 0.891419,-0.34448 1.286117,-0.81355 0.985588,-1.17131 2.492122,-4.43131 2.801352,-6.06187 0.439041,-2.31505 0.336597,-10.48954 -0.152681,-12.18306 -0.580103,-2.0079 -0.772644,-4.80621 -0.381042,-5.53793 0.444932,-0.83136 2.426879,-1.66949 3.227805,-1.36498 1.164116,0.4426 3.361362,2.39918 4.089411,3.6415 0.67976,1.15993 0.723586,1.4229 0.695301,4.17215 -0.03063,2.97716 -0.662059,5.97219 -2.870034,13.61328 -0.6081,2.10444 -0.865511,5.06188 -0.440862,5.06516 0.109141,8.4e-4 0.905069,0.11725 1.76873,0.25868 l 1.570293,0.25714 5.888378,-2.96797 5.888379,-2.96797 0.743412,0.55452 c 0.408876,0.30499 0.77885,0.73439 0.822163,0.95422 0.124231,0.63053 -1.258761,2.07202 -2.49728,2.60291 -1.225934,0.5255 -4.655366,3.05088 -6.246575,4.59988 -1.268257,1.23461 -1.264978,1.8695 0.02117,4.1003 1.434542,2.48818 1.634849,3.21095 1.816048,6.55283 0.314631,5.8028 -0.596527,9.04393 -2.996827,10.66018 -0.858627,0.57816 -1.324672,0.67277 -3.700767,0.75128 l -2.718432,0.0898 z m 5.361123,-3.1347 c 0.758686,-0.75868 1.775618,-3.41286 1.793106,-4.67997 0.02108,-1.52741 -0.579699,-4.00683 -1.290998,-5.32797 -0.837718,-1.55595 -2.566656,-3.25687 -3.85599,-3.79351 -0.913256,-0.3801 -1.012135,-0.37905 -1.162333,0.0124 -0.369937,0.96404 0.577042,9.15824 1.382642,11.96399 0.672593,2.34251 1.900812,3.05787 3.133573,1.8251 z"
       id="path4" /></g></svg>
