<?xml version="1.0" encoding="UTF-8" standalone="no"?>
<!-- Created with Inkscape (http://www.inkscape.org/) -->

<svg
   width="36.250454mm"
   height="44.775135mm"
   viewBox="0 0 36.250454 44.775135"
   version="1.1"
   id="svg1"
   xml:space="preserve"
   xmlns="http://www.w3.org/2000/svg"
   xmlns:svg="http://www.w3.org/2000/svg"><defs
     id="defs1" /><g
     id="layer1"
     transform="translate(-134.70196,-87.863439)"><path
       style="fill:#000000"
       d="m 159.96969,132.4053 c -0.43657,-0.19445 -1.02057,-0.60793 -1.29778,-0.91885 -0.27722,-0.31093 -0.74409,-0.56532 -1.0375,-0.56532 -0.29341,0 -0.72144,-0.15805 -0.95118,-0.35123 -0.22974,-0.19317 -0.90479,-0.48994 -1.50012,-0.65947 -0.59532,-0.16954 -1.48829,-0.60666 -1.98437,-0.97139 -0.49608,-0.36474 -1.25916,-0.871 -1.69572,-1.12505 -0.43656,-0.25404 -1.79414,-1.47244 -3.01685,-2.70755 -2.56168,-2.58768 -3.72948,-4.67124 -3.72982,-6.65466 -1.9e-4,-1.14302 0.1168,-1.35094 1.75671,-3.1222 0.96631,-1.0437 2.63318,-2.61365 3.70417,-3.48879 1.07099,-0.87513 1.94725,-1.6921 1.94725,-1.81548 0,-0.12339 -0.50602,-0.30944 -1.12448,-0.41345 -0.61846,-0.10402 -1.46104,-0.47167 -1.87238,-0.81701 -0.41135,-0.34534 -0.94926,-0.62789 -1.19536,-0.62789 -0.69811,0 -2.42237,-1.28912 -2.42237,-1.81105 0,-0.25798 -0.16006,-0.68796 -0.3557,-0.95552 -0.5632,-0.77022 -1.53494,-0.32799 -2.82114,1.28386 -0.63194,0.79196 -1.4556,1.58064 -1.83034,1.75263 -0.37475,0.17199 -1.84222,0.37753 -3.26105,0.45675 -2.15941,0.12057 -2.57968,0.0806 -2.57968,-0.2452 0,-0.49751 0.86281,-1.26508 2.41837,-2.15144 0.67525,-0.38476 1.65605,-1.26774 2.17955,-1.96219 0.5235,-0.69445 1.43785,-1.84896 2.03188,-2.56558 1.02268,-1.23371 1.07089,-1.36971 0.90726,-2.559401 -0.22358,-1.625616 0.33873,-2.844202 1.91708,-4.154517 0.64857,-0.538431 1.79304,-1.580896 2.54327,-2.316589 2.1183,-2.077271 5.67116,-4.29217 7.68022,-4.787957 0.94386,-0.23292 2.01766,-0.347805 2.38623,-0.255301 0.36857,0.09251 1.25945,0.757516 1.97974,1.477803 1.41167,1.411677 2.36401,3.476178 3.48786,7.56111 0.31844,1.157458 0.68095,2.37236 0.80559,2.699782 0.339,0.8906 1.1726,0.74411 1.73751,-0.305332 1.91005,-3.54834 3.1249,-4.916429 4.36821,-4.9192 0.5224,-0.0012 1.4857,1.143525 1.70814,2.029765 0.32589,1.298457 -0.16762,3.007263 -1.1982,4.148877 -0.54439,0.60302 -1.26345,1.51313 -1.59791,2.02245 -0.33447,0.50933 -1.15702,1.42291 -1.8279,2.03019 -1.21218,1.09728 -1.22035,1.11622 -1.3124,3.04271 -0.0509,1.06621 0.0945,3.12919 0.32314,4.58439 0.95994,6.10886 1.06954,7.88621 0.73537,11.92481 -0.32475,3.92475 -0.70564,6.05529 -1.19375,6.67742 -0.41909,0.53416 -2.33979,1.56929 -3.22405,1.73757 -0.43657,0.0831 -1.15094,-0.008 -1.5875,-0.2025 z m 1.07287,-4.51194 c 0.72531,-1.10696 1.04349,-5.75648 0.67783,-9.90483 -0.37897,-4.29928 -1.02935,-8.80917 -1.31101,-9.09083 -0.25859,-0.25859 -2.28203,1.02127 -4.75487,3.00753 -1.06366,0.85437 -2.03523,1.5534 -2.15905,1.5534 -0.43282,0 -2.91848,2.13232 -2.91848,2.5036 0,0.20605 -0.47625,0.9249 -1.05834,1.59744 -0.58208,0.67255 -1.05833,1.50013 -1.05833,1.83907 0,0.96845 2.24718,3.82045 3.38476,4.29577 0.53701,0.22437 1.319,0.69625 1.73776,1.04861 0.41875,0.35236 1.28276,0.78011 1.92002,0.95055 0.7121,0.19046 1.21846,0.49836 1.31385,0.79891 0.23134,0.72887 2.19826,2.0473 3.05429,2.0473 0.50125,0 0.88768,-0.21325 1.17157,-0.64652 z m -5.78572,-22.37529 c 1.69394,-2.2764 2.46345,-4.18183 2.46368,-6.100481 2.3e-4,-1.896354 -0.60596,-4.343446 -1.25719,-5.075106 -0.46952,-0.52751 -1.6053,-0.603189 -2.50046,-0.166611 -0.92716,0.452178 -4.79335,4.826969 -5.20365,5.888198 -0.46936,1.21394 -0.19106,3.59894 0.52636,4.51099 0.28931,0.3678 0.9731,0.78912 1.51952,0.93625 0.7573,0.20392 1.10127,0.49351 1.44676,1.21801 l 0.45326,0.95049 0.83401,-0.48709 c 0.4587,-0.2679 1.23168,-1.02149 1.71771,-1.67465 z"
       id="path1" /></g></svg>
