<?xml version="1.0" encoding="UTF-8" standalone="no"?>
<!-- Created with Inkscape (http://www.inkscape.org/) -->

<svg
   width="34.245956mm"
   height="28.713915mm"
   viewBox="0 0 34.245956 28.713915"
   version="1.1"
   id="svg1"
   xml:space="preserve"
   xmlns="http://www.w3.org/2000/svg"
   xmlns:svg="http://www.w3.org/2000/svg"><defs
     id="defs1" /><g
     id="layer1"
     transform="translate(-60.058807,-40.084377)"><path
       style="fill:#000000"
       d="m 69.7026,67.802778 c -0.428252,-0.591184 -0.77864,-1.17189 -0.77864,-1.290457 0,-0.118567 -0.252993,-0.350975 -0.562207,-0.516461 -0.462035,-0.247274 -0.685963,-0.201992 -1.256771,0.25414 -1.550776,1.239222 -2.770419,1.70386 -4.531022,1.726147 -1.53721,0.01946 -1.710818,-0.03052 -1.635266,-0.470779 0.04649,-0.270902 -0.179706,-0.773811 -0.502655,-1.117574 -0.670409,-0.713618 -0.591222,-0.769524 1.432259,-1.011181 0.703291,-0.08399 1.390397,-0.221737 1.5269,-0.3061 0.136503,-0.08436 0.85301,-0.948491 1.592238,-1.920284 l 1.344051,-1.766895 -0.122158,-1.765161 c -0.06719,-0.970838 -0.459143,-2.733199 -0.871012,-3.916358 l -0.748854,-2.151197 0.722029,-4.605664 c 1.057345,-6.744567 1.857921,-8.860579 3.352324,-8.860579 2.113316,0 4.577456,6.697711 4.575086,12.435417 -10e-4,2.488006 -0.102055,3.081849 -0.96742,5.686524 -1.014941,3.054886 -1.185218,4.24504 -0.635543,4.442134 0.499456,0.179087 1.247601,-0.279373 2.745228,-1.682263 2.960866,-2.773568 8.065119,-5.369303 9.600159,-4.8821 0.350495,0.111243 1.158603,1.405655 2.378528,3.809884 1.016222,2.002769 2.073787,3.920634 2.350145,4.261922 0.467667,0.577544 0.58328,0.599964 1.669153,0.323677 0.979494,-0.249219 1.31408,-0.224263 2.085359,0.155542 0.845406,0.416308 2.09131,2.028514 1.795909,2.323915 -0.06974,0.06974 -0.79538,0.361792 -1.612524,0.648995 -1.835818,0.645239 -5.128925,0.710957 -6.262101,0.124969 -1.247347,-0.645028 -3.703502,-4.796192 -3.703502,-6.259313 0,-0.357864 -0.164951,-0.876247 -0.366559,-1.151962 -0.35792,-0.489485 -0.392132,-0.489767 -1.451792,-0.01193 -1.104531,0.498074 -4.002482,3.292355 -4.002482,3.859298 0,0.171323 -0.551524,0.924302 -1.225608,1.673288 -0.674084,0.748985 -1.34934,1.632537 -1.500568,1.963448 -0.284095,0.621644 -0.580516,0.733197 -2.514455,0.946276 -1.083667,0.119398 -1.1778,0.07281 -1.918229,-0.949322 z m 0.414828,-12.306423 c 0.28445,-0.686865 0.457255,-5.442981 0.210195,-5.785173 -0.117171,-0.162287 -0.466169,-0.373986 -0.775552,-0.47044 -0.722668,-0.225303 -0.884255,0.336976 -0.889082,3.093752 -0.0047,2.66258 0.871978,4.568338 1.454439,3.161861 z"
       id="path1" /></g></svg>
