<?xml version="1.0" encoding="UTF-8" standalone="no"?>
<!-- Created with Inkscape (http://www.inkscape.org/) -->

<svg
   width="15.935913mm"
   height="25.566753mm"
   viewBox="0 0 15.935913 25.566753"
   version="1.1"
   id="svg1"
   xml:space="preserve"
   xmlns="http://www.w3.org/2000/svg"
   xmlns:svg="http://www.w3.org/2000/svg"><defs
     id="defs1" /><g
     id="layer1"
     transform="translate(-127.9782,-163.60793)"><path
       style="fill:#000000"
       d="m 128.76211,188.92843 c -0.8525,-0.34397 -0.97673,-0.73363 -0.53198,-1.66872 0.30978,-0.65134 0.72338,-0.95997 1.79332,-1.33815 0.98206,-0.34712 1.85275,-0.95363 2.9633,-2.06418 l 1.57262,-1.57262 -0.2322,-1.5077 c -0.12771,-0.82923 -0.23268,-2.67825 -0.23326,-4.10893 -9.2e-4,-2.2733 0.0639,-2.64871 0.51423,-2.9778 1.04604,-0.76444 2.51535,0.30128 3.28333,2.38147 0.27321,0.74001 0.7014,2.27782 0.95154,3.41734 0.54031,2.46136 1.1712,3.28249 3.45286,4.49402 1.75443,0.93159 2.11304,1.73048 0.92511,2.06092 -1.08732,0.30245 -4.49437,0.25905 -5.59698,-0.0713 -0.97043,-0.29075 -1.091,-0.26039 -2.14736,0.54062 -1.52921,1.15956 -4.66189,2.68151 -5.47736,2.66107 -0.36791,-0.009 -0.92463,-0.11995 -1.23717,-0.24604 z m 5.06606,-20.46298 c -0.43662,-0.19789 -0.95605,-0.55522 -1.15428,-0.79408 -0.39502,-0.47597 -0.3579,-0.50449 1.0578,-0.81273 0.58675,-0.12775 0.72479,-0.33597 0.87154,-1.31454 0.31627,-2.10906 1.83548,-2.63234 2.56696,-0.88417 0.49368,1.17984 0.46059,2.98281 -0.0644,3.50778 -0.57969,0.57968 -2.30899,0.73677 -3.27765,0.29774 z"
       id="path1" /></g></svg>
