<?xml version="1.0" encoding="UTF-8" standalone="no"?>
<!-- Created with Inkscape (http://www.inkscape.org/) -->

<svg
   width="27.118179mm"
   height="42.565441mm"
   viewBox="0 0 27.118179 42.565441"
   version="1.1"
   id="svg1"
   xml:space="preserve"
   xmlns="http://www.w3.org/2000/svg"
   xmlns:svg="http://www.w3.org/2000/svg"><defs
     id="defs1" /><g
     id="layer1"
     transform="translate(-43.527908,-147.54227)"><path
       style="fill:#000000"
       d="m 57.722348,189.88098 c -2.098802,-0.27054 -4.912685,-1.82735 -6.711467,-3.71319 -2.010032,-2.10731 -1.999184,-2.65548 0.132879,-6.71474 1.475684,-2.80957 1.738807,-3.15052 3.239055,-4.19704 1.582439,-1.10385 2.079372,-1.845 1.575138,-2.34923 -0.148753,-0.14875 -1.009726,0.0773 -2.207626,0.57958 -3.785336,1.58725 -5.88926,2.19356 -6.932611,1.99782 -1.552366,-0.29122 -4.192189,-2.54192 -2.981398,-2.54192 0.235528,0 0.691934,-0.16442 1.014236,-0.36538 0.322302,-0.20095 1.181316,-0.43031 1.90892,-0.50968 0.898482,-0.098 2.341562,-0.66516 4.497917,-1.76773 1.74625,-0.89288 3.277417,-1.72439 3.402593,-1.8478 0.126782,-0.125 0.03996,-0.79159 -0.196011,-1.50492 -0.232982,-0.70429 -0.500724,-1.87584 -0.594982,-2.60345 -0.09426,-0.7276 -0.283433,-1.54118 -0.42039,-1.80795 -0.290148,-0.56515 0.394112,-1.49934 1.098218,-1.49934 0.236108,0 0.693085,-0.18477 1.015504,-0.4106 0.5351,-0.3748 0.643853,-0.36903 1.247238,0.0661 0.753736,0.54362 0.84884,0.83202 2.116955,6.41972 0.510629,2.24998 1.110669,4.27314 1.333422,4.49589 0.363619,0.36362 0.547781,0.33025 1.802175,-0.32651 1.708497,-0.89451 5.825764,-4.39504 5.954279,-5.06236 0.05136,-0.26671 -0.165894,-0.83563 -0.482794,-1.26426 -0.67241,-0.90948 -0.554293,-1.45506 0.364969,-1.68578 0.800144,-0.20083 1.793847,0.46407 2.43155,1.62697 0.388226,0.70796 0.404914,0.99506 0.125533,2.15965 -0.437249,1.82266 -1.192533,2.75927 -3.7949,4.70595 -2.172248,1.62494 -3.6294,3.07396 -3.6294,3.60915 0,0.14874 -0.194274,0.67984 -0.431719,1.18022 -0.452539,0.95366 -0.402771,2.91256 0.146969,5.78478 0.139263,0.7276 0.260303,2.46532 0.268978,3.86159 0.01854,2.98429 -0.158249,3.26044 -2.35384,3.67683 -0.77373,0.14673 -1.420296,0.25117 -1.436814,0.23209 -0.01652,-0.0191 -0.692677,-0.1201 -1.502576,-0.2245 z m 0.953889,-4.58328 c 0.212751,-0.84767 -0.608043,-5.73617 -1.085459,-6.4648 -0.436806,-0.66665 -1.220333,-0.78389 -1.664235,-0.24902 -0.462148,0.55685 -1.136777,3.52882 -1.046975,4.61228 0.07336,0.88505 0.233994,1.07986 1.525494,1.84995 1.71372,1.02186 2.068,1.0611 2.271175,0.25159 z m -3.846971,-32.19919 c -0.218281,-0.14106 -0.664765,-0.2583 -0.992187,-0.26053 -0.739393,-0.005 -1.653646,-0.88496 -1.653646,-1.59155 0,-0.29104 0.238125,-0.76729 0.529167,-1.05834 0.291041,-0.29104 0.529166,-0.82007 0.529166,-1.17562 0,-0.77499 0.893906,-1.47021 1.890386,-1.47021 1.413085,0 4.317747,2.86256 4.139999,4.07999 -0.0545,0.37324 -0.423563,0.6291 -1.252577,0.86834 -0.646425,0.18655 -1.295316,0.45918 -1.44198,0.60584 -0.336378,0.33638 -1.229392,0.33744 -1.748328,0.002 z"
       id="path1" /></g></svg>
