<?xml version="1.0" encoding="UTF-8" standalone="no"?>
<!-- Created with Inkscape (http://www.inkscape.org/) -->

<svg
   width="35.057251mm"
   height="39.586411mm"
   viewBox="0 0 35.057251 39.586411"
   version="1.1"
   id="svg1"
   xml:space="preserve"
   xmlns="http://www.w3.org/2000/svg"
   xmlns:svg="http://www.w3.org/2000/svg"><defs
     id="defs1" /><g
     id="layer1"
     transform="translate(-118.74702,-86.484843)"><path
       style="fill:#000000"
       d="m 131.35407,125.7078 c -0.13553,-0.25597 -0.44929,-1.46485 -0.69726,-2.6864 -0.24796,-1.22156 -0.61097,-2.67486 -0.80668,-3.22957 -0.19572,-0.55471 -0.48511,-2.16779 -0.64309,-3.58463 -0.15799,-1.41683 -0.3335,-2.62231 -0.39004,-2.67884 -0.24305,-0.24306 -1.23281,0.57268 -3.2719,2.69665 -1.19829,1.24816 -2.31494,2.56839 -2.48145,2.93384 -0.39899,0.87568 -1.98473,1.36799 -3.33324,1.03483 -0.80778,-0.19956 -0.98339,-0.36107 -0.98339,-0.90441 0,-0.49892 0.15776,-0.68373 0.64205,-0.75213 0.96192,-0.13584 1.76865,-0.75666 2.78835,-2.14578 0.92815,-1.26439 1.00885,-1.66372 0.95167,-4.709 -0.0245,-1.30486 0.7574,-1.94391 2.16191,-1.76692 0.86498,0.10901 1.33748,0.0115 2.02091,-0.41695 0.8401,-0.52668 0.87915,-0.61602 0.6714,-1.53578 -0.29432,-1.30297 -0.27467,-8.506481 0.0286,-10.501561 0.13274,-0.873125 0.21154,-2.644376 0.1751,-3.936113 -0.0364,-1.291737 0.0618,-2.736656 0.21835,-3.210931 0.30272,-0.917257 3.16057,-3.835828 3.74958,-3.829254 0.89974,0.01004 3.79747,0.85177 4.95955,1.440639 2.21164,1.120726 2.40228,1.545219 2.40228,5.349161 0,3.511622 -0.46734,6.452769 -1.3259,8.344429 -0.79896,1.76035 -0.73668,1.89129 0.80242,1.68712 1.56566,-0.20769 3.02848,0.32973 4.56167,1.67588 1.80677,1.58636 2.18304,2.49189 2.15208,5.17907 -0.0218,1.89126 -0.17689,2.78958 -0.75371,4.36562 -1.48815,4.06603 -1.49705,3.72637 0.13831,5.28071 1.79799,1.70892 3.64957,2.60477 6.49319,3.14162 1.22069,0.23045 2.21944,0.50828 2.21944,0.6174 0,0.10911 -0.51648,0.50106 -1.14772,0.871 -0.98084,0.5748 -1.46835,0.67261 -3.3527,0.67261 -2.07363,0 -2.38747,-0.0802 -5.26842,-1.34689 -1.6849,-0.74079 -3.65566,-1.604 -4.37948,-1.91823 -0.72382,-0.31424 -1.80682,-0.94352 -2.40667,-1.3984 -1.64454,-1.2471 -1.96584,-0.92187 -1.96584,1.98982 0,2.54737 -0.23389,3.01618 -1.65365,3.31454 -0.40018,0.0841 -1.0205,0.21351 -1.37848,0.28758 -0.44836,0.0928 -0.72754,-0.0101 -0.89728,-0.33073 z m 9.55923,-10.42923 c 0.35864,-0.48254 0.56438,-1.28474 0.65525,-2.55481 0.17567,-2.45519 -0.0812,-3.99287 -0.82227,-4.92226 -0.74648,-0.93617 -1.40551,-0.83756 -3.10098,0.46402 -0.95852,0.73583 -1.16836,1.05332 -1.18428,1.79183 -0.0106,0.49365 -0.18602,1.64806 -0.38972,2.56535 -0.45453,2.04673 -0.2461,2.47478 1.35576,2.7843 0.64004,0.12368 1.28193,0.33852 1.42643,0.47744 0.45506,0.43748 1.5164,0.1253 2.05981,-0.60587 z m -6.17817,-20.070446 c 0.44711,-0.838867 0.81293,-1.83178 0.81293,-2.206473 0,-0.854684 -0.72808,-1.271549 -1.74583,-0.999579 -0.83285,0.222561 -0.88966,0.4417 -1.24379,4.797618 l -0.13981,1.719792 0.75178,-0.893072 c 0.41349,-0.49119 1.11761,-1.579419 1.56472,-2.418286 z"
       id="path1" /></g></svg>
