<?xml version="1.0" encoding="UTF-8" standalone="no"?>
<!-- Created with Inkscape (http://www.inkscape.org/) -->

<svg
   width="24.561117mm"
   height="36.515888mm"
   viewBox="0 0 24.561117 36.515888"
   version="1.1"
   id="svg1"
   xml:space="preserve"
   xmlns="http://www.w3.org/2000/svg"
   xmlns:svg="http://www.w3.org/2000/svg"><defs
     id="defs1" /><g
     id="layer1"
     transform="translate(-22.270321,-14.478556)"><path
       style="fill:#000000"
       d="m 22.355596,50.459333 c -0.269143,-0.847995 0.09194,-1.96333 1.181243,-3.648693 0.555869,-0.860038 1.098881,-1.848093 1.206694,-2.195679 0.329141,-1.061146 1.338282,-2.921669 2.607927,-4.808158 0.664415,-0.987214 1.449567,-2.576953 1.744784,-3.532754 l 0.536758,-1.73782 -1.067831,-2.247595 c -1.172755,-2.468441 -1.636207,-4.218204 -2.123457,-8.017106 -0.478207,-3.7284 -0.441104,-6.835014 0.09373,-7.847993 1.724633,-3.266463 5.29139,-2.303889 7.511508,2.02716 0.709897,1.38488 0.74491,1.621437 0.724472,4.894791 -0.01181,1.891771 -0.238681,5.129797 -0.504155,7.195613 -0.403277,3.138156 -0.432132,4.0621 -0.175408,5.616623 0.379674,2.299016 1.205009,4.554793 2.021529,5.525171 l 0.617923,0.73436 2.602669,-0.198485 c 1.431467,-0.109167 3.522033,-0.336455 4.645702,-0.505085 2.260451,-0.339227 2.851757,-0.236572 2.851757,0.495087 0,1.645803 -4.553015,3.494008 -8.607414,3.494008 -2.70862,0 -4.240417,-0.513207 -5.557416,-1.861937 -0.563097,-0.576663 -1.109001,-1.048479 -1.21312,-1.048479 -0.10412,0 -0.436759,0.400384 -0.7392,0.889743 -0.30244,0.489359 -1.190264,1.693302 -1.972941,2.675429 -0.782677,0.982127 -1.561539,2.247924 -1.730805,2.812882 -0.380196,1.268982 -1.34387,1.824029 -3.166885,1.824029 -1.090736,0 -1.347536,-0.09235 -1.488064,-0.535112 z m 8.726611,-28.393044 c -0.0045,-1.020183 -0.143068,-1.629623 -0.437631,-1.924186 -0.986182,-0.986182 -1.352441,0.619668 -0.581045,2.547575 0.588015,1.469596 1.026651,1.201168 1.018676,-0.623389 z m 0.138818,21.784406 c 0,-0.145521 0.126089,-0.264583 0.280198,-0.264583 0.154109,0 0.206613,0.119062 0.116677,0.264583 -0.08994,0.145521 -0.216027,0.264583 -0.280199,0.264583 -0.06417,0 -0.116676,-0.119062 -0.116676,-0.264583 z"
       id="path1" /></g></svg>
