<?xml version="1.0" encoding="UTF-8" standalone="no"?>
<!-- Created with Inkscape (http://www.inkscape.org/) -->

<svg
   width="47.81823mm"
   height="20.536509mm"
   viewBox="0 0 47.81823 20.536509"
   version="1.1"
   id="svg1"
   xml:space="preserve"
   xmlns="http://www.w3.org/2000/svg"
   xmlns:svg="http://www.w3.org/2000/svg"><defs
     id="defs1" /><g
     id="layer1"
     transform="translate(-127.45861,-53.113971)"><path
       style="fill:#000000"
       d="m 135.499,72.32756 c -0.3687,-0.727604 -0.76325,-1.322917 -0.87676,-1.322917 -0.11351,0 -1.02213,0.535781 -2.01915,1.190625 -1.95174,1.281908 -2.75549,1.434346 -4.25634,0.807251 -1.41687,-0.592008 -1.14306,-1.150802 0.8544,-1.743655 1.09359,-0.324579 2.20099,-1.399958 2.98642,-2.900054 0.19048,-0.363802 0.70073,-1.069275 1.1339,-1.567717 0.77405,-0.890705 0.78459,-0.942925 0.61375,-3.042708 -0.0956,-1.175048 -0.34841,-2.969843 -0.56179,-3.988435 -0.21338,-1.018591 -0.38797,-2.222925 -0.38797,-2.676297 0,-0.453373 -0.23813,-1.127041 -0.52917,-1.49704 -0.73705,-0.93701 -0.69144,-1.981879 0.10231,-2.343534 0.88783,-0.40452 1.8959,0.14298 2.98644,1.621981 1.12505,1.525801 1.37083,2.107207 1.84549,4.365625 0.54977,2.615745 1.02803,2.89536 1.79845,1.051471 0.44294,-1.060107 2.39496,-3.081363 3.55529,-3.681391 0.52626,-0.272138 1.08139,-0.359379 1.54984,-0.243561 0.86199,0.213114 4.8089,4.147685 6.15385,6.134608 0.50932,0.752432 1.05411,1.368288 1.21065,1.36857 0.35988,6.46e-4 1.26,-0.977928 1.73374,-1.884846 0.76166,-1.458116 6.2579,-5.235726 8.46969,-5.821292 1.06686,-0.282448 1.39465,-0.261217 2.50318,0.162134 2.16331,0.826175 3.549,2.500582 5.62366,6.79538 1.14097,2.361936 2.44349,4.580973 3.45404,5.884465 0.89229,1.150941 1.69694,2.389857 1.78812,2.753146 0.40182,1.60097 -1.9206,1.533381 -3.84266,-0.111834 -0.57667,-0.493611 -1.16782,-0.897475 -1.31365,-0.897475 -0.72199,0 -3.29568,-4.082676 -4.61368,-7.318717 -0.81105,-1.991361 -1.91859,-3.264617 -2.83971,-3.264617 -0.26731,0 -1.06184,0.476583 -1.76563,1.059073 -0.7038,0.582489 -1.83572,1.493819 -2.5154,2.025177 -0.72172,0.564223 -1.65724,1.687841 -2.24896,2.70112 -1.87971,3.218888 -3.62966,4.350176 -5.07979,3.283926 -0.38274,-0.281423 -1.11261,-1.087331 -1.62193,-1.790905 -1.24956,-1.726134 -4.00132,-4.914289 -4.52312,-5.240424 -0.23213,-0.145093 -0.74681,-0.1823 -1.14372,-0.08268 -0.95831,0.240521 -1.86582,2.193867 -1.62231,3.491897 0.12585,0.670839 -0.0264,1.343492 -0.60756,2.68489 -0.42651,0.984392 -0.85653,2.058336 -0.95559,2.386543 -0.4346,1.439948 -2.34269,2.975135 -3.69782,2.975135 -0.53839,0 -0.80193,-0.260074 -1.34051,-1.322916 z"
       id="path1" /></g></svg>
