<?xml version="1.0" encoding="UTF-8" standalone="no"?>
<!-- Created with Inkscape (http://www.inkscape.org/) -->

<svg
   width="32.070812mm"
   height="20.194174mm"
   viewBox="0 0 32.070812 20.194174"
   version="1.1"
   id="svg1"
   xml:space="preserve"
   xmlns="http://www.w3.org/2000/svg"
   xmlns:svg="http://www.w3.org/2000/svg"><defs
     id="defs1" /><g
     id="layer1"
     transform="translate(-152.94211,-103.6205)"><path
       style="fill:#000000"
       d="m 153.45478,123.46105 c -0.45971,-0.322 -0.55916,-0.6195 -0.49512,-1.48115 0.0784,-1.05479 0.12327,-1.10001 2.06453,-2.08067 2.47762,-1.25163 3.83122,-2.62256 3.58328,-3.62914 -0.0952,-0.38664 -0.28273,-1.37876 -0.41664,-2.20473 -0.13392,-0.82596 -0.48442,-2.13565 -0.77889,-2.91042 -0.29447,-0.77476 -0.53829,-1.76585 -0.54182,-2.20241 -0.004,-0.43656 -0.30069,-1.50812 -0.66036,-2.38125 -0.84046,-2.04024 -0.82451,-2.37971 0.13039,-2.77524 0.69755,-0.28894 0.91515,-0.25068 1.91855,0.33735 1.5864,0.9297 1.9492,1.40427 2.99153,3.91316 0.50474,1.21491 0.91771,2.24319 0.91771,2.28506 0,0.0419 0.17962,0.0761 0.39917,0.0761 0.21954,0 1.08275,-0.62684 1.91823,-1.39298 2.09485,-1.92098 2.76961,-2.35654 5.3664,-3.46405 2.53399,-1.08073 3.60696,-1.17669 5.14849,-0.46045 2.84527,1.322 4.47986,3.84462 6.06544,9.36066 0.97779,3.40163 1.37563,4.1851 2.47105,4.86628 1.39742,0.86898 1.65077,1.178 1.38021,1.68353 -0.45814,0.85605 -2.04869,1.64793 -2.98142,1.48435 -0.46743,-0.082 -1.47322,-0.2515 -2.2351,-0.37673 -0.76188,-0.12522 -1.45962,-0.30206 -1.55054,-0.39298 -0.0909,-0.0909 -0.33324,-0.96647 -0.5385,-1.94567 -0.20525,-0.97921 -0.50538,-1.93966 -0.66694,-2.13433 -0.16157,-0.19467 -0.39687,-0.91826 -0.5229,-1.60797 -0.12603,-0.68972 -0.78608,-2.47738 -1.46679,-3.97258 -1.3549,-2.97612 -1.88297,-3.41422 -3.13027,-2.59695 -0.40792,0.26727 -0.90732,0.36889 -1.31282,0.26711 -0.87774,-0.2203 -2.31057,0.68373 -2.85447,1.80099 -0.56517,1.16096 -1.98095,5.80644 -2.31546,7.59752 -0.14788,0.79184 -0.45048,1.71686 -0.67243,2.0556 -0.55493,0.84694 -2.26536,2.41175 -2.85104,2.60833 -0.52574,0.17645 -1.5024,-0.53989 -1.5024,-1.10195 0,-0.18714 -0.10272,-0.40374 -0.22827,-0.48133 -0.35792,-0.22121 -3.54176,0.38986 -4.20513,0.80708 -1.20591,0.75844 -1.82364,0.87291 -2.42767,0.44983 z"
       id="path1" /></g></svg>
