<?xml version="1.0" encoding="UTF-8" standalone="no"?>
<!-- Created with Inkscape (http://www.inkscape.org/) -->

<svg
   width="35.079361mm"
   height="25.916798mm"
   viewBox="0 0 35.079361 25.916798"
   version="1.1"
   id="svg1"
   xml:space="preserve"
   xmlns="http://www.w3.org/2000/svg"
   xmlns:svg="http://www.w3.org/2000/svg"><defs
     id="defs1" /><g
     id="layer1"
     transform="translate(-16.819,-170.94698)"><path
       style="fill:#000000"
       d="m 17.217005,196.42547 c -0.577368,-0.57737 -0.516645,-2.20605 0.117671,-3.1561 0.291477,-0.43656 0.659955,-1.26803 0.81884,-1.84772 0.158885,-0.57968 0.633994,-1.44702 1.055799,-1.92743 0.421804,-0.48041 0.766916,-1.1001 0.766916,-1.3771 0,-0.277 0.357188,-0.8947 0.79375,-1.37268 0.582263,-0.63749 0.79375,-1.12981 0.79375,-1.84774 0,-0.80957 0.228249,-1.22233 1.320739,-2.38843 0.726406,-0.77535 1.321719,-1.60588 1.322917,-1.84561 0.0032,-0.64674 4.102502,-5.66439 5.585006,-6.83624 0.706461,-0.55843 2.184655,-1.4426 3.284877,-1.96483 2.442337,-1.15928 3.655988,-1.20354 5.662391,-0.20651 1.339697,0.66573 1.559915,0.92242 3.374743,3.93358 1.698009,2.81734 2.077739,3.69675 3.027577,7.01146 0.59733,2.08455 1.258322,4.12462 1.468871,4.53349 0.595064,1.15559 2.203959,2.81693 3.245249,3.35105 1.384256,0.71003 2.221946,1.69618 2.009479,2.36561 -0.38597,1.21608 -2.270081,1.5229 -5.025006,0.81831 -1.142985,-0.29232 -2.240157,-0.5315 -2.438159,-0.5315 -0.198002,0 -0.740702,0.5401 -1.205998,1.20022 l -0.845995,1.20022 -3.315741,-0.1628 c -5.727366,-0.2812 -6.868299,-0.60896 -9.190224,-2.64013 -1.276043,-1.11625 -1.625691,-1.73443 -2.036147,-3.59994 -0.08412,-0.38233 -0.460356,-0.89656 -0.836079,-1.14274 -0.630782,-0.41331 -0.73305,-0.4149 -1.33452,-0.0208 -0.358263,0.23474 -0.930957,1.04663 -1.272654,1.8042 -0.341696,0.75757 -1.171311,2.07633 -1.843587,2.93058 -0.672277,0.85426 -1.222322,1.69762 -1.222322,1.87413 0,0.17652 -0.436563,0.75751 -0.970139,1.29109 -1.074596,1.07459 -2.362372,1.30399 -3.112004,0.55436 z M 37.8847,190.70971 c 0.919768,-0.86408 0.756809,-1.24204 -0.839984,-1.94822 -0.798793,-0.35326 -2.078715,-1.05761 -2.844271,-1.56523 -1.814037,-1.20282 -2.552377,-1.28769 -3.087454,-0.35489 -0.393518,0.68602 -0.377825,0.75018 0.377899,1.54495 0.964557,1.01441 2.612712,1.9921 3.761995,2.23163 0.471274,0.0982 0.924785,0.28849 1.007803,0.42282 0.258113,0.41763 0.984733,0.26951 1.624012,-0.33106 z m 2.062435,-7.89138 c -0.385999,-2.14101 -2.433125,-5.06612 -4.0052,-5.72297 -1.047101,-0.43751 -2.899489,-0.47636 -3.153023,-0.0661 -0.100724,0.16297 0.338734,1.31439 0.976572,2.5587 1.124644,2.19399 1.227631,2.30526 3.406353,3.68045 2.090943,1.31979 2.270751,1.38542 2.594449,0.94703 0.222165,-0.30088 0.287493,-0.80556 0.180849,-1.39708 z"
       id="path1" /></g></svg>
