<?xml version="1.0" encoding="UTF-8" standalone="no"?>
<!-- Created with Inkscape (http://www.inkscape.org/) -->

<svg
   width="37.535088mm"
   height="49.148705mm"
   viewBox="0 0 37.535088 49.148705"
   version="1.1"
   id="svg1"
   xml:space="preserve"
   xmlns="http://www.w3.org/2000/svg"
   xmlns:svg="http://www.w3.org/2000/svg"><defs
     id="defs1" /><g
     id="layer1"
     transform="translate(-124.01654,-12.487865)"><path
       style="fill:#000000"
       d="m 134.50948,61.255957 c -0.0803,-0.271256 -0.27576,-1.386161 -0.43426,-2.477567 -0.1585,-1.091406 -0.40114,-2.520156 -0.5392,-3.175 -0.13807,-0.654844 -0.52053,-2.644946 -0.84991,-4.422449 -0.32939,-1.777504 -0.71795,-3.348162 -0.86347,-3.490353 -0.28216,-0.275696 -3.41583,0.02582 -5.09927,0.490635 -1.13095,0.312271 -1.75221,0.03234 -2.30633,-1.039204 -0.40222,-0.777814 -0.53699,-2.779003 -0.23939,-3.554559 0.12976,-0.338137 0.4265,-0.386248 1.56036,-0.252986 1.31392,0.154426 1.43799,0.117714 2.01529,-0.596284 0.33835,-0.418463 1.38975,-1.514821 2.33644,-2.436351 1.49089,-1.45125 1.66008,-1.709755 1.26406,-1.931376 -0.39,-0.218259 -0.4572,-0.683651 -0.4572,-3.166276 0,-2.128131 -0.11174,-3.126481 -0.41571,-3.714291 -0.24662,-0.476919 -0.51584,-2.058887 -0.66189,-3.889465 -0.1354,-1.697071 -0.36222,-3.561833 -0.50403,-4.143916 -0.14181,-0.582083 -0.26067,-2.274535 -0.26415,-3.761004 -0.006,-2.432363 -0.0595,-2.731122 -0.53786,-2.987147 -0.58299,-0.31201 -0.55393,-0.795422 0.17018,-2.830609 0.67612,-1.900317 1.97138,-1.847644 3.22883,0.131302 1.88961,2.973826 3.54741,8.253818 4.05946,12.929119 0.15684,1.432065 0.36272,2.690737 0.45752,2.797047 0.0948,0.106311 0.76403,-0.234872 1.48719,-0.758183 1.59384,-1.153377 3.74083,-2.150672 5.09678,-2.367498 0.82544,-0.131993 1.33862,0.0132 2.90774,0.822686 2.24224,1.156731 3.53696,2.493453 4.57448,4.722893 2.13006,4.577108 2.32887,9.444208 0.52707,12.90348 -0.42792,0.821564 -0.70609,1.565704 -0.61815,1.653646 0.27883,0.278822 2.3055,0.173519 4.7013,-0.244274 2.16459,-0.377473 4.02952,-0.976681 5.7553,-1.849194 0.99865,-0.504895 0.91165,-0.06855 -0.24061,1.206869 -2.11376,2.339677 -11.00101,5.531578 -13.35904,4.797967 -0.48746,-0.151655 -2.13645,-0.356567 -3.66441,-0.45536 -1.52797,-0.09879 -2.94464,-0.315287 -3.14814,-0.481099 -0.48798,-0.397589 -3.03989,-1.476103 -3.17502,-1.341858 -0.058,0.05762 0.23481,0.595765 0.6507,1.195886 0.94111,1.358024 1.16884,3.67197 0.56237,5.714176 -0.34622,1.165873 -0.35161,1.494799 -0.0388,2.372149 0.19974,0.560224 0.36838,1.412237 0.37477,1.893363 0.0105,0.787908 -0.10812,0.927739 -1.1942,1.408161 -1.84013,0.813977 -2.94036,0.929308 -3.1188,0.326924 z M 146.10744,45.66563 c 1.25748,-0.959126 1.5042,-1.868803 1.65441,-6.100118 0.16623,-4.682447 0.0199,-5.158021 -2.31762,-7.53295 -1.59728,-1.622837 -1.91327,-1.829172 -2.80121,-1.829172 -0.86403,0 -1.19058,0.195888 -2.38871,1.432887 -1.01534,1.048276 -1.43199,1.705198 -1.55228,2.447396 -0.0904,0.55798 -0.2904,1.589352 -0.44439,2.291939 -0.47963,2.1883 0.15603,5.001737 1.45992,6.461632 0.29243,0.327422 0.66064,0.595313 0.81825,0.595313 0.1576,0 1.03741,0.654843 1.95512,1.455208 0.91771,0.800365 1.90705,1.455208 2.19852,1.455208 0.29147,0 0.92957,-0.304804 1.41799,-0.677343 z"
       id="path1" /></g></svg>
