<?xml version="1.0" encoding="UTF-8" standalone="no"?>
<!-- Created with Inkscape (http://www.inkscape.org/) -->

<svg
   width="35.514805mm"
   height="34.465015mm"
   viewBox="0 0 35.514805 34.465015"
   version="1.1"
   id="svg1"
   xml:space="preserve"
   xmlns="http://www.w3.org/2000/svg"
   xmlns:svg="http://www.w3.org/2000/svg"><defs
     id="defs1" /><g
     id="layer1"
     transform="translate(-93.715021,-95.654969)"><path
       style="fill:#000000"
       d="m 113.65886,129.78684 c -0.003,-0.1819 -0.11381,-2.00543 -0.246,-4.05229 -0.19419,-3.00707 -0.39629,-4.19483 -1.05267,-6.1866 -0.44679,-1.35577 -0.81234,-2.60405 -0.81234,-2.77396 0,-0.16991 -0.1358,-0.44472 -0.30177,-0.6107 -0.22598,-0.22598 -0.76986,-0.0565 -2.16538,0.67469 -1.70426,0.89297 -2.04776,0.97646 -4.0174,0.97646 -1.9932,0 -2.22881,-0.0592 -3.15968,-0.79375 -0.55324,-0.43656 -1.26296,-0.99343 -1.57717,-1.23748 -0.31421,-0.24405 -0.886178,-0.52276 -1.271035,-0.61935 -0.606553,-0.15224 -0.785699,-0.0395 -1.345212,0.84687 -0.739472,1.1714 -2.395667,2.4141 -3.362701,2.52315 -0.646947,0.073 -0.658311,0.0421 -0.620042,-1.68277 0.04623,-2.08353 0.658654,-4.36348 1.438358,-5.35471 0.454087,-0.57728 0.528222,-0.92494 0.389721,-1.82763 -0.443957,-2.89352 -0.446662,-3.90254 -0.01447,-5.39784 0.397731,-1.37606 0.727058,-1.81768 3.132392,-4.20043 3.202189,-3.172124 4.821429,-4.089782 7.562659,-4.285916 l 1.81154,-0.129615 1.18596,1.093181 c 0.65228,0.601249 1.49003,1.539006 1.86166,2.083904 1.34029,1.965156 3.98808,10.143456 4.8319,14.924456 0.23981,1.35874 0.48384,2.73 0.54228,3.04724 0.0585,0.31725 0.2973,0.76784 0.53078,1.00132 0.56625,0.56625 1.06978,0.14453 1.43154,-1.19894 0.27599,-1.02493 3.73265,-6.42173 4.91247,-7.66971 0.35146,-0.37176 0.63902,-0.91552 0.63902,-1.20834 0,-0.29283 0.35718,-1.23084 0.79375,-2.08447 0.43656,-0.85363 0.79375,-1.74563 0.79375,-1.98223 0,-1.30621 1.70501,-1.82901 3.06302,-0.93921 0.85423,0.55972 0.82021,1.10933 -0.29676,4.79431 -1.50828,4.97597 -3.19028,8.3964 -5.04152,10.25219 -0.41038,0.41138 -0.78857,1.06485 -0.84044,1.45214 -0.0519,0.3873 -0.4849,1.59852 -0.96231,2.69161 -0.4774,1.09309 -1.12128,2.8292 -1.43085,3.85802 -0.59294,1.9706 -1.84738,3.61006 -3.1376,4.1006 -0.97852,0.37204 -3.25865,0.31324 -3.26545,-0.0842 z m -7.73417,-16.70988 c 1.21346,-1.10113 2.61955,-3.40282 2.84527,-4.65755 0.13798,-0.76701 0.0279,-1.12034 -0.63306,-2.03283 -0.97293,-1.34309 -2.95234,-2.57818 -3.73421,-2.33002 -0.30072,0.0954 -0.9164,0.82851 -1.36819,1.62903 -0.59652,1.05697 -0.94585,1.42296 -1.27584,1.33667 -0.24992,-0.0654 -0.64512,-0.0121 -0.87821,0.11835 -0.50772,0.28413 -0.83501,1.79235 -0.57009,2.62705 0.35824,1.12871 3.59138,4.20517 4.42371,4.20934 0.10872,5.4e-4 0.6445,-0.40448 1.19062,-0.90004 z"
       id="path1" /></g></svg>
