<?xml version="1.0" encoding="UTF-8" standalone="no"?>
<!-- Created with Inkscape (http://www.inkscape.org/) -->

<svg
   width="30.752741mm"
   height="31.370129mm"
   viewBox="0 0 30.752741 31.370129"
   version="1.1"
   id="svg1"
   xml:space="preserve"
   xmlns="http://www.w3.org/2000/svg"
   xmlns:svg="http://www.w3.org/2000/svg"><defs
     id="defs1" /><g
     id="layer1"
     transform="translate(-167.87374,-171.08918)"><path
       style="fill:#000000"
       d="m 193.26186,202.19128 c -1.02147,-0.49164 -2.66365,-3.58015 -3.13653,-5.89901 -0.38661,-1.8958 -0.38578,-2.17402 0.0102,-3.43026 0.4867,-1.54399 0.53066,-2.20856 0.18248,-2.7588 -0.2021,-0.31938 -0.30858,-0.32325 -0.66878,-0.0243 -0.36418,0.30224 -0.74385,0.24574 -2.53221,-0.3768 -1.285,-0.44733 -2.35388,-0.66959 -2.74636,-0.57108 -1.71901,0.43144 -3.26293,2.85772 -2.93404,4.61085 0.13353,0.71181 0.0538,1.00992 -0.37752,1.41177 -0.30073,0.28018 -0.54679,0.76485 -0.54679,1.07703 0,0.98607 -1.07583,2.83869 -2.07761,3.57771 -0.5308,0.39159 -1.35619,1.04319 -1.8342,1.44802 -1.07631,0.91153 -2.28704,0.9626 -3.30511,0.13942 -0.67747,-0.54779 -0.72083,-0.69294 -0.5573,-1.86568 0.12452,-0.89301 0.26054,-1.18846 0.45681,-0.99219 0.38368,0.38368 0.70283,0.3505 0.70283,-0.073 0,-0.1939 0.44648,-0.64158 0.99218,-0.99483 0.95078,-0.61548 0.99219,-0.70375 0.99219,-2.11512 0,-1.18431 0.14387,-1.67618 0.7344,-2.5109 1.76553,-2.49556 3.36658,-5.03234 3.36661,-5.33422 4e-5,-0.42459 -3.30487,-2.08684 -5.09334,-2.56176 -0.76391,-0.20285 -1.60929,-0.45679 -1.87864,-0.56432 -0.29845,-0.11914 -0.56973,-0.066 -0.69457,0.13595 -0.12458,0.20156 -0.42668,0.26105 -0.77089,0.1518 -0.31133,-0.0988 -0.50137,-0.2843 -0.42232,-0.4122 0.079,-0.1279 -0.51769,-0.65565 -1.32608,-1.17277 -1.71705,-1.09838 -2.09797,-1.85991 -1.85877,-3.71596 0.22246,-1.72616 1.04866,-3.09836 2.96704,-4.92783 1.88326,-1.79599 3.01331,-2.39585 5.69203,-3.02149 1.69029,-0.39479 2.21688,-0.42261 3.08365,-0.16292 1.40727,0.42163 3.61462,2.45784 4.46088,4.11502 0.78535,1.5379 0.84736,2.41238 0.51053,7.19889 l -0.2253,3.20167 1.15134,0.46429 c 0.63324,0.25536 1.82214,0.52654 2.64199,0.60261 1.43799,0.13342 1.50349,0.11141 1.85456,-0.62326 0.46146,-0.96568 1.29618,-1.09363 2.45647,-0.37653 1.21703,0.75216 1.4741,1.6713 1.4759,5.27684 0.003,5.98803 0.68813,7.63484 3.06492,7.36694 1.74632,-0.19683 1.92657,0.083 1.00924,1.56671 -1.24077,2.00691 -3.24619,2.8972 -4.8199,2.13977 z m -1.97328,-15.43994 c -0.0879,-0.0879 -0.31612,-0.0973 -0.50712,-0.0209 -0.21107,0.0845 -0.14837,0.14716 0.15985,0.15986 0.27892,0.0115 0.43519,-0.0511 0.34727,-0.13897 z m -10.9271,-2.75056 c 0.72223,0 1.34147,-2.13309 1.34147,-4.62094 0,-2.05938 -0.0875,-2.5312 -0.63137,-3.40613 -0.47519,-0.76439 -0.69013,-0.92801 -0.86892,-0.66146 -0.18933,0.28227 -0.32698,0.2442 -0.67811,-0.18754 -0.39933,-0.49099 -0.54088,-0.5123 -1.51233,-0.22771 -1.95132,0.57166 -3.83054,0.82747 -3.92812,0.53473 -0.05,-0.14998 -0.69954,0.29661 -1.44343,0.99243 -1.38742,1.29777 -2.50946,3.13749 -2.27933,3.73721 0.12093,0.31513 4.26645,2.28182 5.58692,2.65052 0.32742,0.0914 0.59531,0.26281 0.59531,0.38087 0,0.42335 2.3725,1.10782 3.13049,0.90316 0.19381,-0.0523 0.50315,-0.0951 0.68742,-0.0951 z"
       id="path1" /></g></svg>
