<?xml version="1.0" encoding="UTF-8" standalone="no"?>
<!-- Created with Inkscape (http://www.inkscape.org/) -->

<svg
   width="32.014584mm"
   height="28.291313mm"
   viewBox="0 0 32.014584 28.291313"
   version="1.1"
   id="svg1"
   xml:space="preserve"
   xmlns="http://www.w3.org/2000/svg"
   xmlns:svg="http://www.w3.org/2000/svg"><defs
     id="defs1" /><g
     id="layer1"
     transform="translate(-79.582335,-95.214972)"><path
       style="fill:#000000"
       d="m 94.398127,122.23688 c -0.727121,-0.70085 -1.322039,-1.40712 -1.322039,-1.56948 0,-0.16236 0.356962,-0.54939 0.793248,-0.86005 0.655023,-0.46642 1.104859,-0.55212 2.58154,-0.49183 2.257987,0.0922 2.545896,-0.0773 2.369201,-1.39466 -0.09544,-0.71153 -0.705996,-1.8148 -2.001871,-3.61733 -2.50181,-3.47995 -2.673266,-3.6242 -3.847315,-3.23673 -0.690254,0.2278 -1.209473,0.72296 -2.000964,1.90823 -0.587861,0.88033 -1.068838,1.8901 -1.068838,2.24393 0,0.35383 -0.282883,0.92622 -0.628629,1.27196 -0.345745,0.34575 -0.899875,1.02495 -1.231399,1.50933 -0.879597,1.28517 -2.931905,3.38261 -3.696222,3.77752 -1.54528,0.79841 -4.7625,0.79339 -4.7625,-0.007 0,-0.20671 0.09763,-0.37585 0.216959,-0.37585 0.119327,0 0.714639,-0.42599 1.322916,-0.94666 0.815043,-0.69764 1.105958,-0.83273 1.105958,-0.51355 0,0.7879 0.444139,0.17603 1.021381,-1.40711 0.440394,-1.20782 0.809075,-1.727 1.630745,-2.29641 0.595639,-0.41278 1.135925,-1.0379 1.230784,-1.42404 0.093,-0.37855 0.908542,-1.52171 1.812325,-2.54035 0.903783,-1.01865 1.942928,-2.50693 2.309212,-3.30729 0.84265,-1.84128 1.716852,-5.81759 1.919585,-8.73125 0.08607,-1.236932 0.275256,-2.625026 0.420424,-3.084659 0.330147,-1.045315 1.584299,-1.682083 3.688818,-1.872914 1.389687,-0.126012 1.595285,-0.07543 2.215935,0.545225 1.318591,1.318591 0.783661,5.096858 -1.188856,8.396998 -1.388641,2.32328 -1.358481,2.97105 0.235659,5.06151 0.700202,0.9182 1.815497,2.5029 2.478436,3.52154 0.66293,1.01865 1.61384,2.31631 2.11312,2.88369 l 0.90779,1.03161 3.73306,0.19957 c 4.08273,0.21826 4.84033,0.36277 4.84033,0.92325 0,0.51259 -1.05813,0.99836 -3.70417,1.70053 -2.29683,0.6095 -3.58756,1.18635 -4.76293,2.12863 -1.07046,0.85817 -4.19631,1.83657 -5.887422,1.84277 -1.462471,0.005 -1.574133,-0.0444 -2.844271,-1.2687 z"
       id="path1" /></g></svg>
