<?xml version="1.0" encoding="UTF-8" standalone="no"?>
<!-- Created with Inkscape (http://www.inkscape.org/) -->

<svg
   width="22.225002mm"
   height="33.810978mm"
   viewBox="0 0 22.225002 33.810978"
   version="1.1"
   id="svg1"
   xml:space="preserve"
   xmlns="http://www.w3.org/2000/svg"
   xmlns:svg="http://www.w3.org/2000/svg"><defs
     id="defs1" /><g
     id="layer1"
     transform="translate(-23.67876,-61.312159)"><path
       style="fill:#000000"
       d="m 23.952654,94.656446 c -0.150641,-0.281475 -0.273893,-0.824723 -0.273893,-1.207218 0,-0.601553 0.241122,-0.805671 1.785938,-1.51186 0.982266,-0.449028 2.181327,-0.842904 2.664581,-0.87528 0.483254,-0.03238 0.990472,-0.170694 1.127151,-0.307372 0.136679,-0.136679 0.554525,-1.728219 0.928547,-3.536755 0.634183,-3.06651 0.657416,-3.427564 0.344532,-5.35423 l -0.335509,-2.065982 -2.397724,0.154507 c -2.275799,0.146649 -2.437142,0.121297 -3.172895,-0.498571 -0.948131,-0.798795 -0.70253,-1.236761 0.970467,-1.730583 1.665184,-0.491515 3.571998,-1.592209 4.066966,-2.347625 0.369794,-0.564377 0.406928,-1.115267 0.248547,-3.687202 -0.160357,-2.604012 -0.125973,-3.090243 0.247727,-3.503177 0.377903,-0.417578 0.394828,-0.695111 0.131087,-2.149554 -0.311166,-1.715975 -0.155135,-3.817609 0.32691,-4.403264 0.361019,-0.438616 1.653696,-0.42283 2.025138,0.02473 0.459404,0.553549 1.114419,3.993618 1.342919,7.052874 0.392516,5.255169 0.522587,5.427692 3.903846,5.177974 3.375627,-0.249301 8.016773,0.587783 8.016773,1.445919 0,0.140401 -0.684609,0.255654 -1.521354,0.256119 -2.564261,0.0014 -6.068735,0.741636 -7.598399,1.604925 -1.901858,1.073342 -2.266779,1.552353 -2.43446,3.195574 -0.148863,1.458802 0.54416,6.974488 0.940011,7.481436 0.122367,0.156711 0.297374,0.599085 0.388903,0.983054 0.158198,0.663649 1.122058,1.668737 2.558636,2.668078 l 0.655204,0.455786 -0.624624,0.536402 c -0.343543,0.29502 -0.871499,0.536401 -1.173235,0.536401 -0.805992,0 -2.583736,-0.92706 -3.840337,-2.002664 L 32.153816,90.10708 31.52992,91.517821 c -0.754665,1.706432 -1.409348,2.062898 -3.788704,2.062898 -1.584929,0 -1.797022,0.06802 -2.474955,0.79375 -0.873954,0.935571 -0.954555,0.952873 -1.313607,0.281977 z"
       id="path1" /></g></svg>
