<?xml version="1.0" encoding="UTF-8" standalone="no"?>
<!-- Created with Inkscape (http://www.inkscape.org/) -->

<svg
   width="31.698397mm"
   height="20.61327mm"
   viewBox="0 0 31.698397 20.61327"
   version="1.1"
   id="svg1"
   xml:space="preserve"
   xmlns="http://www.w3.org/2000/svg"
   xmlns:svg="http://www.w3.org/2000/svg"><defs
     id="defs1" /><g
     id="layer1"
     transform="translate(-48.793845,-66.302363)"><path
       style="fill:#000000"
       d="m 60.946899,85.980456 c -0.778607,-0.514343 -2.275577,-1.853797 -3.3266,-2.976563 -1.224405,-1.307985 -1.984857,-1.935385 -2.116667,-1.746325 -0.113144,0.162287 -0.447846,0.370494 -0.743782,0.462681 -0.295936,0.09219 -0.741269,0.511608 -0.989628,0.932046 -1.055877,1.787457 -3.762315,3.33596 -4.606297,2.635517 -0.742076,-0.615868 -0.381217,-1.735684 1.200894,-3.726603 3.077375,-3.872552 3.032791,-3.738969 3.776184,-11.314335 0.380262,-3.874971 1.076218,-4.794846 2.419694,-3.198214 0.591188,0.702586 0.659987,1.0584 0.780176,4.034896 0.107051,2.651106 0.269518,3.662004 0.864817,5.381027 1.062736,3.06882 2.118205,5.030507 3.349595,6.22553 1.229258,1.192955 1.911101,1.299054 3.532214,0.549639 1.316378,-0.608542 5.285463,-4.659288 5.820822,-5.940581 0.638278,-1.527615 0.500452,-3.262976 -0.400215,-5.039061 -1.052624,-2.07574 -1.025421,-2.45226 0.201789,-2.793074 2.398172,-0.666005 3.194065,-0.06598 3.890499,2.933058 0.214985,0.925781 0.633079,2.386487 0.929098,3.246013 0.296019,0.859527 0.541582,1.752495 0.545696,1.984376 0.0041,0.23188 0.480036,1.132921 1.057606,2.002314 1.587673,2.389864 3.532721,6.376304 3.347106,6.860008 -0.08924,0.232551 -0.436434,0.42282 -0.771547,0.42282 -0.969772,0 -3.544023,-1.860752 -4.392443,-3.175 -0.422738,-0.654844 -1.272001,-1.666875 -1.88725,-2.248959 l -1.118636,-1.058333 -1.229123,1.455208 c -3.469559,4.10775 -4.844581,5.027084 -7.518865,5.027084 -0.929667,0 -1.517931,-0.210363 -2.615137,-0.935169 z"
       id="path5" /></g></svg>
