<?xml version="1.0" encoding="UTF-8" standalone="no"?>
<!-- Created with Inkscape (http://www.inkscape.org/) -->

<svg
   width="29.302149mm"
   height="25.590855mm"
   viewBox="0 0 29.302149 25.590855"
   version="1.1"
   id="svg1"
   xml:space="preserve"
   xmlns="http://www.w3.org/2000/svg"
   xmlns:svg="http://www.w3.org/2000/svg"><defs
     id="defs1" /><g
     id="layer1"
     transform="translate(-100.31817,-74.569492)"><path
       style="fill:#000000"
       d="m 114.33725,99.754559 c -0.63436,-0.294695 -1.34873,-0.538589 -1.5875,-0.541989 -0.23877,-0.0034 -1.02913,-0.331127 -1.75636,-0.728284 -0.99127,-0.541352 -1.50084,-1.053075 -2.03575,-2.04434 -0.73318,-1.358678 -1.84516,-2.512862 -2.42098,-2.512862 -0.17903,0 -0.6819,0.463714 -1.1175,1.030476 -0.95359,1.24073 -2.82028,2.837507 -3.61026,3.088237 -0.41727,0.132437 -0.70319,0.02098 -1.05237,-0.410247 -0.74473,-0.9197 -0.5833,-1.513302 0.81496,-2.9967 0.71193,-0.755273 1.4859,-1.834396 1.71993,-2.398051 0.47426,-1.14222 1.05418,-4.151388 1.00888,-5.235068 -0.0511,-1.222956 -1.60122,-4.832524 -2.8322,-6.595052 -1.31328,-1.880364 -1.44724,-2.610862 -0.66185,-3.609314 0.29104,-0.37 0.52916,-0.952058 0.52916,-1.293463 0,-0.454471 0.19489,-0.6719 0.72761,-0.811751 1.58872,-0.417083 2.86454,0.404696 3.11926,2.009186 0.0829,0.52243 0.28323,1.187997 0.44511,1.479039 0.16187,0.291042 0.44225,1.243542 0.62307,2.116667 0.36723,1.773226 0.90692,3.326727 1.34511,3.871868 0.1598,0.198806 0.47871,1.016309 0.70869,1.816673 0.4986,1.735223 2.50915,5.934067 3.60204,7.522528 0.83034,1.206862 2.10255,1.935381 2.73032,1.56349 1.28767,-0.762812 2.58364,-2.199816 2.72757,-3.024393 0.0866,-0.496237 0.32559,-1.351144 0.53103,-1.899791 0.43374,-1.158333 0.49154,-2.734752 0.10894,-2.971209 -0.319,-0.197157 -0.35518,-2.568764 -0.0446,-2.923646 0.35031,-0.400266 0.78341,-2.191675 1.09948,-4.547677 0.56371,-4.201999 2.06094,-6.034972 3.85549,-4.720067 0.48544,0.35569 0.51359,0.751062 0.51359,7.212653 0,6.807865 0.003,6.841831 0.67518,8.156494 0.54217,1.060084 1.02033,1.528655 2.42719,2.378493 3.24858,1.96237 3.82125,3.028768 2.25265,4.194768 l -0.7304,0.542934 -1.5166,-0.743812 c -0.83414,-0.409097 -1.95134,-1.088127 -2.48268,-1.508955 -1.47936,-1.171673 -3.13432,-0.954522 -3.14188,0.412253 -0.002,0.298317 -0.32908,1.197239 -0.72761,1.997604 -0.52074,1.04581 -0.98512,1.582114 -1.65064,1.906297 -1.54316,0.751702 -2.89466,0.821592 -4.19608,0.217011 z"
       id="path5" /></g></svg>
