<?xml version="1.0" encoding="UTF-8" standalone="no"?>
<!-- Created with Inkscape (http://www.inkscape.org/) -->

<svg
   width="26.661276mm"
   height="18.296946mm"
   viewBox="0 0 26.661276 18.296946"
   version="1.1"
   id="svg1"
   xml:space="preserve"
   xmlns="http://www.w3.org/2000/svg"
   xmlns:svg="http://www.w3.org/2000/svg"><defs
     id="defs1" /><g
     id="layer1"
     transform="translate(-105.99483,-151.23028)"><path
       style="fill:#000000"
       d="m 106.01318,168.93189 c 0.0586,-0.41261 0.47341,-0.78106 1.35163,-1.20054 0.82288,-0.39305 1.36513,-0.85684 1.54675,-1.32292 0.34127,-0.87581 0.15073,-7.77196 -0.24646,-8.91977 -0.15107,-0.43656 -0.34422,-1.11285 -0.42923,-1.50285 -0.085,-0.39001 -0.34993,-0.90446 -0.5887,-1.14324 -0.40246,-0.40245 -0.39217,-0.48585 0.14095,-1.14298 0.31629,-0.38986 0.82125,-1.0958 1.12212,-1.56874 0.7874,-1.23771 2.14829,-1.19293 2.82467,0.093 0.25219,0.47943 0.89712,4.44651 1.51654,9.32853 0.32709,2.57806 1.97387,3.22518 3.65982,1.43817 1.1868,-1.25795 1.54792,-2.69836 1.33138,-5.31052 -0.14982,-1.80726 -0.10752,-2.11959 0.36604,-2.70257 0.49595,-0.61056 0.57143,-0.62816 1.02369,-0.23866 0.26854,0.23128 0.66851,0.48361 0.88881,0.56074 0.22029,0.0771 0.68159,1.01796 1.0251,2.09074 0.74002,2.3111 2.81161,6.84935 3.12035,6.83578 0.11907,-0.005 0.55392,-0.28557 0.96632,-0.62297 0.66472,-0.54383 0.79388,-0.91058 1.13806,-3.23163 0.45848,-3.09185 1.307,-4.83067 2.98839,-6.12391 1.85576,-1.42735 2.54048,-1.05796 2.84773,1.53626 0.1123,0.94821 0.0354,1.56402 -0.27176,2.17523 -0.83613,1.66399 -2.66343,6.68921 -2.80777,7.72159 -0.11428,0.81732 -0.35051,1.1878 -1.0726,1.68212 -0.86705,0.59355 -1.08611,0.62387 -3.43865,0.47598 -1.60688,-0.10102 -2.55107,-0.27335 -2.61931,-0.47807 -0.0587,-0.17606 -0.53535,-0.77664 -1.05927,-1.33462 l -0.95256,-1.01451 -1.82775,1.33727 c -1.00526,0.7355 -2.10449,1.40672 -2.44272,1.49161 -0.69925,0.1755 -3.04097,-0.31792 -4.13404,-0.87107 -0.69658,-0.35251 -0.77889,-0.3242 -1.71979,0.59164 -1.18166,1.15018 -2.69319,1.96626 -3.64189,1.96626 -0.56464,0 -0.675,-0.10844 -0.60585,-0.59531 z"
       id="path1" /></g></svg>
