<?xml version="1.0" encoding="UTF-8" standalone="no"?>
<!-- Created with Inkscape (http://www.inkscape.org/) -->

<svg
   width="35.164513mm"
   height="27.45657mm"
   viewBox="0 0 35.164513 27.45657"
   version="1.1"
   id="svg1"
   xml:space="preserve"
   xmlns="http://www.w3.org/2000/svg"
   xmlns:svg="http://www.w3.org/2000/svg"><defs
     id="defs1" /><g
     id="layer1"
     transform="translate(-111.60262,-69.056245)"><path
       style="fill:#000000"
       d="m 112.94421,96.285526 c -1.26946,-0.368057 -1.5599,-0.862368 -1.19635,-2.036112 0.1676,-0.541085 0.51273,-1.239117 0.76697,-1.551181 0.25424,-0.312064 2.48268,-1.595777 4.95208,-2.852694 2.46941,-1.256918 4.76395,-2.542823 5.09898,-2.857567 0.33503,-0.314744 0.90489,-1.176742 1.26636,-1.915551 l 0.65721,-1.34329 -0.81619,-2.433589 c -0.97724,-2.913815 -1.67239,-4.020036 -2.89917,-4.61358 -0.50482,-0.244242 -1.51316,-0.725562 -2.24077,-1.069601 -0.97829,-0.462575 -1.57393,-0.99822 -2.2865,-2.056213 -0.52997,-0.786879 -0.90379,-1.586508 -0.83071,-1.776954 0.2572,-0.670264 1.30908,-0.650176 2.98947,0.05709 1.65074,0.694786 1.67784,0.697123 2.70628,0.233363 1.34413,-0.606121 1.68772,-0.389742 2.77229,1.745891 0.89391,1.76018 2.06104,3.178207 2.61588,3.178207 0.56015,0 2.00993,-1.389354 2.38401,-2.284657 0.19629,-0.469787 0.47956,-0.929972 0.62949,-1.022634 0.14993,-0.09266 0.43183,-0.547288 0.62645,-1.01028 0.19461,-0.462992 0.71605,-1.227922 1.15874,-1.699844 0.80225,-0.855212 0.80813,-0.856691 1.78473,-0.448645 0.97064,0.405563 0.9926,0.40059 2.34526,-0.531022 0.751,-0.51723 1.57003,-0.940418 1.82008,-0.940418 0.5776,0 1.152,0.910011 1.37405,2.176918 0.15687,0.894975 0.0724,1.095296 -0.91235,2.163619 -0.59873,0.649551 -1.04839,1.383508 -1.00307,1.63726 0.0572,0.320193 -0.15983,0.524295 -0.71429,0.671775 -0.9561,0.254307 -2.56524,2.097659 -3.01129,3.449576 -0.17621,0.534063 -0.48634,1.108759 -0.68918,1.277103 -1.0844,0.899977 -1.21457,6.922731 -0.19229,8.897238 0.64532,1.246404 1.893,2.387013 3.21866,2.942426 1.19809,0.501969 5.27798,0.958022 8.74659,0.9777 2.2697,0.01288 2.76303,0.08524 2.69568,0.395385 -0.19075,0.8783 -1.52472,1.405383 -4.68006,1.849194 -3.38684,0.476373 -10.45104,0.309896 -10.45104,-0.246292 0,-0.112114 -0.40038,-0.278956 -0.88974,-0.37076 -1.03719,-0.194578 -5.58114,-2.355817 -5.84264,-2.778938 -0.28691,-0.464234 -0.91402,-0.335192 -1.85353,0.381406 -0.48273,0.368193 -2.07954,1.137821 -3.54848,1.710283 -1.46893,0.572462 -3.23798,1.342775 -3.9312,1.711807 -1.3715,0.730106 -1.40719,0.73533 -2.62041,0.383579 z m 7.5735,-1.933263 c 0,-0.05719 0.18478,-0.17489 0.41062,-0.261552 0.23546,-0.09036 0.34166,-0.046 0.24896,0.103984 -0.15537,0.251408 -0.65958,0.371858 -0.65958,0.157568 z"
       id="path5" /></g></svg>
