<?xml version="1.0" encoding="UTF-8" standalone="no"?>
<!-- Created with Inkscape (http://www.inkscape.org/) -->

<svg
   width="46.364403mm"
   height="52.485409mm"
   viewBox="0 0 46.364403 52.485409"
   version="1.1"
   id="svg1"
   xml:space="preserve"
   xmlns="http://www.w3.org/2000/svg"
   xmlns:svg="http://www.w3.org/2000/svg"><defs
     id="defs1" /><g
     id="layer1"
     transform="translate(-124.03652,-64.556699)"><path
       style="fill:#000000"
       d="m 142.61041,116.04261 c -3.13014,-1.1824 -4.50348,-2.06547 -6.55172,-4.21283 -1.22919,-1.28869 -1.51807,-1.76029 -1.51807,-2.47835 0,-0.48775 -0.17855,-1.14173 -0.39678,-1.4533 -0.36175,-0.51648 -0.33717,-0.68517 0.27851,-1.91095 0.37141,-0.73946 0.77395,-1.34447 0.89454,-1.34447 0.12059,0 0.55265,-0.4371 0.96013,-0.97133 0.40747,-0.53423 0.6002,-0.88439 0.42827,-0.77813 -0.17192,0.10625 -0.31258,0.0713 -0.31258,-0.0777 0,-0.14899 0.26789,-0.41168 0.59531,-0.58375 0.32742,-0.17207 1.54781,-1.141 2.71198,-2.15317 1.16416,-1.012176 3.84307,-3.039035 5.95312,-4.504133 2.11006,-1.465098 4.10435,-2.902364 4.43177,-3.193923 0.65911,-0.586912 0.78087,-1.71483 0.28479,-2.638074 -0.17079,-0.317855 -0.38221,-0.926204 -0.46982,-1.351887 -0.18813,-0.91406 -0.78569,-1.217332 -0.97468,-0.49466 -0.27299,1.043937 -3.19503,1.381887 -7.26488,0.840224 -2.72716,-0.362963 -3.45921,-0.715284 -5.08668,-2.448128 l -1.27429,-1.356801 -0.51165,0.624624 c -0.2814,0.343544 -0.51164,0.773971 -0.51164,0.956507 0,0.182535 -0.22088,0.615829 -0.49083,0.962875 -0.26996,0.347047 -0.57643,1.107244 -0.68104,1.689328 -0.28585,1.590615 -0.77692,2.148126 -2.44027,2.770465 -2.12603,0.79545 -4.45885,0.974923 -5.73479,0.441197 -1.44497,-0.604436 -1.19383,-1.140316 1.18166,-2.521396 1.21492,-0.70634 2.20733,-1.496824 2.49769,-1.989478 0.26499,-0.4496 0.98296,-1.472299 1.59551,-2.272663 0.61254,-0.800365 1.44047,-2.284242 1.83984,-3.297506 0.67742,-1.718697 0.70408,-1.931708 0.39727,-3.175 -0.18088,-0.732986 -0.42243,-2.344734 -0.53678,-3.581661 -0.11434,-1.236927 -0.34647,-2.772845 -0.51584,-3.413152 -0.62938,-2.379459 0.64407,-7.106919 2.03317,-7.547803 0.66884,-0.212282 4.56583,1.250112 4.89401,1.836539 0.14748,0.26354 0.28117,1.756262 0.29709,3.31716 0.024,2.35939 -0.0493,2.924665 -0.43466,3.351911 -0.25498,0.282652 -0.38355,0.593965 -0.28571,0.691806 0.0978,0.09784 0.27193,1.397867 0.38686,2.888946 0.12834,1.665178 0.44271,3.371613 0.81487,4.42332 0.51263,1.448671 0.76884,1.806095 1.66424,2.321734 1.35411,0.779793 2.2058,0.636368 4.10104,-0.690613 0.80037,-0.560387 2.06535,-1.327973 2.81106,-1.705746 1.70261,-0.862518 1.74195,-1.038015 1.36383,-6.084069 -0.2587,-3.452383 -0.24142,-4.082579 0.14559,-5.310333 0.69637,-2.209132 2.03204,-3.113118 3.75807,-2.543477 1.67772,0.553697 1.83127,1.209287 1.73455,7.405444 -0.0466,2.983177 -0.0763,5.840677 -0.0662,6.35 0.0102,0.509323 0.0174,2.483592 0.016,4.387265 -0.002,2.698282 0.0818,3.531193 0.37998,3.778655 0.30657,0.254428 1.02702,0.05249 3.62982,-1.01741 1.78603,-0.734164 3.38458,-1.448749 3.55233,-1.587966 0.56009,-0.464839 5.27886,-1.590451 6.67029,-1.591127 1.49981,-7.29e-4 2.06847,0.370938 0.98399,0.643125 -0.37489,0.09409 -1.11821,0.444774 -1.65182,0.779295 -0.53361,0.334522 -2.81567,1.597315 -5.07125,2.806208 -6.68629,3.583576 -7.09887,3.86139 -7.29615,4.912984 -0.10933,0.58278 0.0309,1.706321 0.3874,3.104024 0.30731,1.204847 0.55758,2.484429 0.55614,2.843517 -0.003,0.811053 0.97283,5.764873 1.4746,7.483913 0.20466,0.70113 0.5159,2.56797 0.69165,4.14854 0.38742,3.48419 0.23675,3.9496 -1.55415,4.8006 -1.17947,0.56045 -1.66135,0.6081 -6.6949,0.66208 l -5.42396,0.0582 z m 11.43005,-3.59401 c 0.4667,-0.97869 0.41604,-1.51374 -0.57631,-6.0861 -0.1895,-0.87313 -0.60343,-3.07578 -0.91984,-4.89479 -0.8326,-4.786425 -0.8625,-4.88141 -1.56893,-4.982846 -0.90605,-0.130098 -4.57287,2.494576 -8.14565,5.830576 -1.66822,1.55765 -3.25713,2.9032 -3.53092,2.99009 -0.53568,0.17002 -0.65731,0.45488 -0.92188,2.15912 -0.15689,1.01057 -0.089,1.19303 0.81699,2.19586 0.6242,0.69091 1.78343,1.47867 3.14766,2.13899 2.11379,1.02313 2.22365,1.04578 5.18295,1.06847 2.50973,0.0192 3.94158,0.134 5.87194,0.47063 0.11149,0.0195 0.40129,-0.38105 0.64399,-0.89 z m -3.20241,-14.643724 c -0.0916,-0.148145 -0.0376,-0.349036 0.12003,-0.446423 0.40679,-0.251412 0.66925,0.09296 0.32966,0.43255 -0.19002,0.190019 -0.33801,0.194584 -0.44969,0.01387 z"
       id="path5" /></g></svg>
