<?xml version="1.0" encoding="UTF-8" standalone="no"?>
<!-- Created with Inkscape (http://www.inkscape.org/) -->

<svg
   width="42.267815mm"
   height="43.182919mm"
   viewBox="0 0 42.267815 43.182919"
   version="1.1"
   id="svg1"
   xml:space="preserve"
   xmlns="http://www.w3.org/2000/svg"
   xmlns:svg="http://www.w3.org/2000/svg"><defs
     id="defs1" /><g
     id="layer1"
     transform="translate(-82.660451,-113.16757)"><path
       style="fill:#000000"
       d="m 106.49169,156.13563 c -0.66971,-0.10931 -1.38796,-0.45887 -1.80996,-0.88087 -0.42166,-0.42165 -1.55739,-0.97468 -2.85844,-1.39187 -2.705291,-0.86747 -3.827386,-1.63303 -5.761709,-3.93101 -2.859362,-3.39692 -2.728094,-5.96086 0.484905,-9.47121 0.975081,-1.06533 2.016001,-2.12943 2.313155,-2.36468 0.715795,-0.56669 3.542589,-1.96791 4.376739,-2.16953 1.02647,-0.2481 3.175,-1.71029 3.175,-2.16077 0,-0.55593 -3.27933,-2.93418 -4.89479,-3.54982 l -1.32292,-0.50415 0.0201,-1.81171 c 0.0161,-1.44975 0.19581,-2.20816 0.89964,-3.79609 0.83598,-1.88608 0.86486,-2.05465 0.58296,-3.40315 -0.44769,-2.14158 -0.6057,-2.24969 -3.016308,-2.0638 -4.130103,0.31849 -6.188202,1.94864 -8.146355,6.45246 -2.241642,5.15584 -2.384134,5.38532 -3.695501,5.95158 -0.658134,0.28418 -1.819131,0.58239 -2.579994,0.66269 -1.155292,0.12193 -1.412578,0.0699 -1.560435,-0.31538 -0.229201,-0.59729 0.593776,-2.30109 2.56637,-5.31315 1.01559,-1.55076 1.568597,-2.66942 1.569553,-3.175 0.0031,-1.66313 1.370214,-5.52733 2.229093,-6.30082 1.01631,-0.91527 4.712422,-2.59131 6.605162,-2.99517 2.391929,-0.51037 9.293205,-0.59862 10.144995,-0.12972 0.32571,0.17929 0.66244,0.60587 0.74829,0.94795 0.1814,0.72273 -0.25032,5.72712 -0.82426,9.55478 l -0.39756,2.65138 2.35059,2.44185 c 2.66106,2.76435 2.88229,2.84009 5.34088,1.82852 2.0703,-0.8518 5.65525,-3.03219 6.61705,-4.02451 0.4484,-0.46263 1.01713,-1.24549 1.26384,-1.73968 0.38517,-0.77153 0.60018,-0.90968 1.52124,-0.97736 0.77808,-0.0572 1.26857,0.0753 1.78594,0.48222 0.62616,0.49254 0.71277,0.7445 0.70921,2.06321 -0.002,0.82618 -0.0915,1.62784 -0.19844,1.78147 -0.10691,0.15362 -0.74087,0.53223 -1.40881,0.84134 -0.66793,0.30912 -1.5609,0.85128 -1.98437,1.20481 -0.42348,0.35353 -1.17043,0.84818 -1.6599,1.09922 -0.48948,0.25104 -1.63176,0.9524 -2.5384,1.55858 -0.90664,0.60618 -2.02421,1.30496 -2.48348,1.55286 -1.05876,0.57146 -1.10643,1.56831 -0.18361,3.83937 0.35829,0.88176 0.78775,2.66616 0.95437,3.96533 0.39402,3.07245 0.0555,5.28755 -1.22528,8.01678 -0.8039,1.71309 -1.18016,2.20248 -2.20276,2.86511 -0.67829,0.43951 -1.78443,1.28428 -2.45809,1.87726 -0.67366,0.59298 -1.38516,1.06324 -1.58111,1.04502 -0.19595,-0.0182 -0.85592,-0.11466 -1.46659,-0.21434 z m 2.8392,-5.57824 c 0.27691,-0.1482 0.81606,-0.80284 1.19812,-1.45477 0.60491,-1.0322 0.69164,-1.46595 0.67139,-3.35762 -0.0398,-3.72076 -0.85511,-6.97733 -1.93637,-7.73467 -0.6838,-0.47896 -1.62911,-0.16385 -3.91098,1.30368 -4.28465,2.75557 -6.860711,5.21572 -6.874355,6.56503 -0.0074,0.72969 0.72765,1.98418 1.249054,2.13179 0.256258,0.0725 1.079631,0.20965 1.829711,0.30468 1.04005,0.13177 1.39553,0.29417 1.49751,0.68414 0.15978,0.611 1.50536,1.21464 3.41754,1.53313 1.96172,0.32675 2.28858,0.32956 2.85838,0.0246 z"
       id="path1" /></g></svg>
