<?xml version="1.0" encoding="UTF-8" standalone="no"?>
<!-- Created with Inkscape (http://www.inkscape.org/) -->

<svg
   width="28.826097mm"
   height="45.299294mm"
   viewBox="0 0 28.826097 45.299294"
   version="1.1"
   id="svg1"
   xml:space="preserve"
   xmlns="http://www.w3.org/2000/svg"
   xmlns:svg="http://www.w3.org/2000/svg"><defs
     id="defs1" /><g
     id="layer1"
     transform="translate(-124.53434,-81.235367)"><path
       style="fill:#000000"
       d="m 139.99984,126.14594 c -1.74282,-0.69712 -2.87446,-1.41475 -3.03662,-1.92567 -0.0778,-0.24504 -0.61828,-1.18334 -1.20113,-2.08513 -0.58285,-0.90178 -1.28069,-2.19358 -1.55074,-2.87067 -1.62912,-4.08453 -3.5244,-8.08345 -4.18867,-8.83783 -0.22425,-0.25466 -0.61282,-0.46302 -0.86349,-0.46302 -0.25067,0 -0.60398,-0.17859 -0.78514,-0.39687 -0.18115,-0.21828 -0.55292,-0.39688 -0.82614,-0.39688 -0.27323,0 -0.70513,-0.22498 -0.95979,-0.49996 -0.25466,-0.27497 -0.8586,-0.92154 -1.34208,-1.4368 -0.75676,-0.8065 -0.83723,-1.01499 -0.57843,-1.49857 0.45992,-0.85936 1.86425,-1.59033 3.04499,-1.58495 1.22656,0.006 2.67528,0.61185 4.66665,1.95292 1.65298,1.11318 2.56354,1.19239 3.58682,0.31201 1.32232,-1.13766 0.8925,-3.31938 -1.15014,-5.83791 -1.38129,-1.703102 -4.45306,-6.684309 -4.89834,-7.943196 -0.7236,-2.045742 -0.61794,-3.055027 0.56639,-5.410546 1.7154,-3.411763 3.70995,-4.906523 7.5912,-5.689004 1.92006,-0.387094 2.26402,-0.39232 3.09059,-0.04696 1.26404,0.528151 1.70283,1.951587 1.02723,3.332349 -0.58267,1.190833 -2.58145,2.303779 -4.55853,2.538243 -1.90078,0.225415 -2.64583,0.702587 -2.64583,1.694525 0,0.42462 -0.11907,0.84562 -0.26459,0.935557 -0.49198,0.304062 -0.25627,1.845248 0.46921,3.067955 1.60417,2.703648 3.14196,5.075024 4.39234,6.773284 0.34234,0.464973 0.70033,1.332533 0.79554,1.927913 0.0952,0.59538 0.39685,1.49998 0.67032,2.01022 0.40256,0.75108 0.44546,1.08927 0.22535,1.77625 -0.81434,2.54168 -1.85478,3.94279 -3.75462,5.05617 -1.29702,0.7601 -1.62055,1.29551 -1.06262,1.75856 0.20963,0.17397 0.38169,0.56963 0.38234,0.87924 0.002,0.89637 2.14679,5.16613 3.5364,7.03979 l 1.27148,1.71439 1.89494,-0.0704 c 1.04222,-0.0387 3.58773,-0.19454 5.65668,-0.34625 2.06895,-0.1517 3.86868,-0.20972 3.99941,-0.12893 0.38436,0.23755 0.0335,1.42015 -0.61437,2.07101 -1.316,1.32201 -2.89858,2.02433 -5.57404,2.47368 -4.04003,0.67853 -5.61753,0.71351 -7.01257,0.15549 z m 0.28046,-17.25627 c 0,-0.1541 0.11907,-0.20661 0.26459,-0.11667 0.14552,0.0899 0.26458,0.21602 0.26458,0.2802 0,0.0642 -0.11906,0.11667 -0.26458,0.11667 -0.14552,0 -0.26459,-0.12609 -0.26459,-0.2802 z"
       id="path4" /></g></svg>
