<?xml version="1.0" encoding="UTF-8" standalone="no"?>
<!-- Created with Inkscape (http://www.inkscape.org/) -->

<svg
   width="17.663036mm"
   height="39.341831mm"
   viewBox="0 0 17.663036 39.341831"
   version="1.1"
   id="svg1"
   xml:space="preserve"
   xmlns="http://www.w3.org/2000/svg"
   xmlns:svg="http://www.w3.org/2000/svg"><defs
     id="defs1" /><g
     id="layer1"
     transform="translate(-115.05348,-82.066426)"><path
       style="fill:#000000"
       d="m 122.66145,121.23618 c -0.69056,-0.0963 -1.39898,-0.31853 -1.57427,-0.49382 -0.17528,-0.17528 -0.58551,-0.3187 -0.91162,-0.3187 -0.76142,0 -1.09231,-0.5265 -0.52902,-0.84173 0.66577,-0.37258 0.51813,-0.86259 -0.35972,-1.19394 -0.63606,-0.24009 -0.79375,-0.45543 -0.79375,-1.08395 0,-1.5449 1.27066,-1.71434 4.01902,-0.53593 1.06086,0.45487 1.37745,0.487 2.182,0.22148 1.40973,-0.46526 1.73648,-1.12274 1.73648,-3.49417 0,-1.42411 0.1612,-2.45697 0.52916,-3.39051 0.29769,-0.75523 0.52917,-1.96639 0.52917,-2.76871 0,-1.22562 -0.0981,-1.50334 -0.69714,-1.97458 -0.38343,-0.30161 -0.85968,-0.54837 -1.05833,-0.54837 -0.19866,0 -0.3612,-0.10054 -0.3612,-0.22342 0,-0.12288 -0.58124,-0.88763 -1.29165,-1.69946 -0.94003,-1.07423 -1.38299,-1.85679 -1.62718,-2.87472 -0.48483,-2.02098 -0.41164,-5.361304 0.15865,-7.240944 0.3103,-1.022739 0.48691,-2.465392 0.49644,-4.055188 0.0129,-2.147118 -0.0519,-2.516609 -0.49881,-2.844271 -1.16516,-0.854341 -2.58918,-0.09067 -2.94136,1.577401 -0.26566,1.258249 -1.09446,2.446268 -1.95537,2.802871 -1.12161,0.464586 -1.3778,0.179222 -1.17971,-1.314055 0.16377,-1.234555 0.1403,-1.295706 -0.65495,-1.706949 -0.75724,-0.391584 -0.82481,-0.535369 -0.82481,-1.755279 0,-1.669548 0.6759,-2.375129 2.86309,-2.988822 1.90468,-0.534428 5.81437,-0.57146 7.02286,-0.06652 1.11743,0.466892 2.0203,1.614902 2.0203,2.568836 0,0.41009 0.1393,1.051339 0.30955,1.424997 0.24635,0.540693 0.18325,1.729649 -0.30913,5.824376 -0.70541,5.866274 -0.60933,6.723478 0.92565,8.258457 0.69923,0.69923 1.0857,0.8731 1.94067,0.8731 2.76994,0 3.17579,0.78485 2.59323,5.01483 -0.38401,2.78828 -0.38299,3.06843 0.0128,3.50573 0.4008,0.44288 0.39251,0.47528 -0.12165,0.47528 -0.48579,0 -0.54843,0.15028 -0.52379,1.25677 0.032,1.43955 -0.62113,4.99206 -1.20207,6.53789 -0.26205,0.69729 -0.64659,1.15535 -1.1496,1.36937 -0.4157,0.17688 -1.57287,0.68764 -2.57147,1.13503 -1.86895,0.83732 -2.07202,0.86475 -4.20243,0.56762 z"
       id="path4" /></g></svg>
